<ttFont>
        <CharString name=".notdef">
          -397 endchar
        </CharString>
        <CharString name="A">
          52 21 -21 145.5 102.5 269 127 hstem
          8 576 vstem
          584 hmoveto
          -197 644 rlineto
          -161 hlineto
          -218 -644 rlineto
          134 hlineto
          17 91 17 53 111 3 126 -3 17 -60 16 -84 rlineto
          -62 249 rmoveto
          -87 -2 -86 2 88 268 rlineto
          9 hlineto
          endchar
        </CharString>
        <CharString name="AE">
          274 0 106 431 107 -11 11 hstemhm
          -18 832 hintmask 11010000
          814 101 rmoveto
          -8 11 -165 -6 rlineto
          -102 hlineto
          -18 149 203 48 -11 95 -10 8 -194 -50 -22 181 rlineto
          88 hlineto
          155 -5 rlineto
          hintmask 10110000
          11 101 -9 11 rlineto
          hintmask 11010000
          -440 hlineto
          -310 -644 rlineto
          135 hlineto
          30 91 35 74 212 56 17 -137 5 -84 rlineto
          389 hlineto
          -423 323 rmoveto
          -142 -37 109 231 rlineto
          9 hlineto
          endchar
        </CharString>
        <CharString name="AEacute">
          274 0 106 431 107 -11 11 hstemhm
          -17 832 hintmask 11010000
          419 721 rmoveto
          13 -4 70 24 68 24 77 30 rlinecurve
          4 12 -34 79 -12 3 -69 -41 -66 -35 -73 -37 rlinecurve
          418 -675 rmoveto
          -8 11 -165 -6 rlineto
          -103 hlineto
          -18 149 204 48 -11 95 -10 8 -195 -50 -21 181 rlineto
          87 hlineto
          156 -5 rlineto
          hintmask 10110000
          10 101 -8 11 rlineto
          hintmask 11010000
          -441 hlineto
          -309 -644 rlineto
          135 hlineto
          29 91 35 74 213 56 17 -137 5 -84 rlineto
          389 hlineto
          -424 323 rmoveto
          -142 -37 110 231 rlineto
          8 hlineto
          endchar
        </CharString>
        <CharString name="Aacute">
          52 21 -21 145.5 102.5 269 127 hstem
          8 576 vstem
          218 721 rmoveto
          13 -4 70 24 68 24 77 30 rlinecurve
          4 12 -34 79 -12 3 -69 -41 -66 -35 -73 -37 rlinecurve
          388 -776 rmoveto
          -197 644 rlineto
          -162 hlineto
          -217 -644 rlineto
          134 hlineto
          17 91 17 53 111 3 126 -3 17 -60 16 -84 rlineto
          -62 249 rmoveto
          -88 -2 -85 2 88 268 rlineto
          9 hlineto
          endchar
        </CharString>
        <CharString name="Abreve">
          52 21 -21 145.5 102.5 269 127 77 92 hstem
          8 576 vstem
          299 721 rmoveto
          74 54 37 68 25 hvcurveto
          -31 43 rlineto
          -19 hlineto
          -35 -17 -35 -21 -46 hhcurveto
          -49 -37 21 35 -17 hvcurveto
          -19 hlineto
          -31 -43 rlineto
          -68 23 53 -37 72 hhcurveto
          285 -721 rmoveto
          -197 644 rlineto
          -162 hlineto
          -217 -644 rlineto
          134 hlineto
          17 91 17 53 111 3 126 -3 17 -60 16 -84 rlineto
          -62 249 rmoveto
          -88 -2 -85 2 88 268 rlineto
          9 hlineto
          endchar
        </CharString>
        <CharString name="Abreveacute">
          52 21 -21 145.5 102.5 269 127 57 92 hstem
          8 576 vstem
          294 837 rmoveto
          11 3 38 35 38 36 36 37 rlinecurve
          -2 10 -61 40 -10 -2 -30 -43 -30 -41 -32 -42 rlinecurve
          47 -169 rmoveto
          74 54 37 68 25 hvcurveto
          -31 43 rlineto
          -19 hlineto
          -35 -17 -35 -21 -46 hhcurveto
          -49 -37 21 35 -17 hvcurveto
          -19 hlineto
          -31 -43 rlineto
          -68 23 53 -37 72 hhcurveto
          285 -701 rmoveto
          -197 644 rlineto
          -162 hlineto
          -217 -644 rlineto
          134 hlineto
          17 91 17 53 111 3 126 -3 17 -60 16 -84 rlineto
          -62 249 rmoveto
          -88 -2 -85 2 88 268 rlineto
          9 hlineto
          endchar
        </CharString>
        <CharString name="Abrevedotbelow">
          52 -194 142 73 -21 145.5 102.5 269 127 76 93 hstem
          226 139 vstem
          299 720 rmoveto
          73 55 38 68 25 hvcurveto
          -31 42 rlineto
          -19 hlineto
          -35 -17 -35 -20 -46 hhcurveto
          -49 -37 20 35 -17 hvcurveto
          -19 hlineto
          -31 -42 rlineto
          -68 23 52 -38 73 hhcurveto
          285 -720 rmoveto
          -197 644 rlineto
          -162 hlineto
          -217 -644 rlineto
          134 hlineto
          17 91 17 53 111 3 126 -3 17 -60 16 -84 rlineto
          -62 249 rmoveto
          -88 -2 -85 2 88 268 rlineto
          9 hlineto
          -9 -569 rmoveto
          -45 -28 -29 -44 -44 24 -25 44 44 27 29 45 43 -24 25 -42 hvcurveto
          endchar
        </CharString>
        <CharString name="Abrevegrave">
          52 21 -21 145.5 102.5 269 127 57 92 hstem
          8 576 vstem
          310 837 rmoveto
          41 33 -31 42 -31 41 -29 43 rlinecurve
          -11 2 -61 -40 -1 -10 36 -37 37 -36 38 -35 rlinecurve
          1 -139 rmoveto
          74 54 37 68 25 hvcurveto
          -31 43 rlineto
          -19 hlineto
          -35 -17 -35 -21 -46 hhcurveto
          -49 -37 21 35 -17 hvcurveto
          -19 hlineto
          -31 -43 rlineto
          -68 23 53 -37 72 hhcurveto
          285 -701 rmoveto
          -197 644 rlineto
          -162 hlineto
          -217 -644 rlineto
          134 hlineto
          17 91 17 53 111 3 126 -3 17 -60 16 -84 rlineto
          -62 249 rmoveto
          -88 -2 -85 2 88 268 rlineto
          9 hlineto
          endchar
        </CharString>
        <CharString name="Abrevehookabove">
          52 21 -21 145.5 102.5 269 127 57 92 198 62 hstem
          306 71 vstem
          278 991 rmoveto
          16 12 -7 -15 -19 -19 -28 -33 -24 hvcurveto
          42 -66 49 28 -23 39 rlineto
          40 35 15 21 27 vvcurveto
          41 -35 30 -45 -37 -38 -20 -31 -30 vhcurveto
          22 -36 rlineto
          16 20 25 9 19 hhcurveto
          21 -290 rmoveto
          74 54 37 68 25 hvcurveto
          -31 43 rlineto
          -19 hlineto
          -35 -17 -35 -21 -46 hhcurveto
          -49 -37 21 35 -17 hvcurveto
          -19 hlineto
          -31 -43 rlineto
          -68 23 53 -37 72 hhcurveto
          285 -701 rmoveto
          -197 644 rlineto
          -162 hlineto
          -217 -644 rlineto
          134 hlineto
          17 91 17 53 111 3 126 -3 17 -60 16 -84 rlineto
          -62 249 rmoveto
          -88 -2 -85 2 88 268 rlineto
          9 hlineto
          endchar
        </CharString>
        <CharString name="Abrevetilde">
          52 21 -21 145.5 102.5 269 127 56 89 hstem
          8 576 vstem
          180 870 rmoveto
          11 hlineto
          25 22 16 24 19 hhcurveto
          24 76 -28 -6 43 hvcurveto
          11 5 65 84 rlineto
          11 vlineto
          -36 37 rlineto
          -11 hlineto
          -26 -22 -17 -23 -19 hhcurveto
          -23 -76 27 6 -43 hvcurveto
          -12 -4 -65 -84 rlineto
          -11 vlineto
          164 -118 rmoveto
          -47 -35 19 34 -16 hvcurveto
          -19 hlineto
          -29 -40 rlineto
          -65 22 50 -37 70 hhcurveto
          70 52 37 65 23 hvcurveto
          -29 40 rlineto
          -18 hlineto
          -34 -17 -33 -19 -44 hhcurveto
          277 -789 rmoveto
          -197 644 rlineto
          -162 hlineto
          -217 -644 rlineto
          134 hlineto
          17 91 17 53 111 3 126 -3 17 -60 16 -84 rlineto
          -62 249 rmoveto
          -88 -2 -85 2 88 268 rlineto
          9 hlineto
          endchar
        </CharString>
        <CharString name="Acaron">
          52 21 -21 145.5 102.5 269 127 hstem
          8 576 vstem
          316 718 rmoveto
          40 36 44 35 50 33 -25 53 rcurveline
          -13 hlineto
          -37 -21 -37 -20 -36 -22 -36 22 -37 20 -37 21 rrcurveto
          -13 hlineto
          -24 -53 48 -33 45 -35 41 -36 rlinecurve
          295 -718 rmoveto
          -197 644 rlineto
          -162 hlineto
          -217 -644 rlineto
          134 hlineto
          17 91 17 53 111 3 126 -3 17 -60 16 -84 rlineto
          -62 249 rmoveto
          -88 -2 -85 2 88 268 rlineto
          9 hlineto
          endchar
        </CharString>
        <CharString name="Acircumflex">
          52 21 -21 145.5 102.5 269 127 hstem
          8 576 vstem
          179 728 rmoveto
          13 hlineto
          37 21 37 20 36 22 36 -22 37 -20 37 -21 rrcurveto
          13 hlineto
          24 53 -48 33 -45 35 -41 36 rlinecurve
          -27 hlineto
          -40 -36 -44 -35 -50 -33 rrcurveto
          430 -781 rmoveto
          -197 644 rlineto
          -162 hlineto
          -217 -644 rlineto
          134 hlineto
          17 91 17 53 111 3 126 -3 17 -60 16 -84 rlineto
          -62 249 rmoveto
          -88 -2 -85 2 88 268 rlineto
          9 hlineto
          endchar
        </CharString>
        <CharString name="Acircumflexacute">
          52 21 -21 145.5 102.5 269 127 hstem
          8 576 vstem
          402 833 rmoveto
          9 hlineto
          95 123 -3 10 -67 29 -9 -4 -70 -124 rlineto
          -179 -159 rmoveto
          13 hlineto
          37 21 37 20 36 22 36 -22 37 -20 37 -21 rrcurveto
          13 hlineto
          24 53 -48 33 -45 35 -41 36 rlinecurve
          -27 hlineto
          -40 -36 -44 -35 -50 -33 rrcurveto
          431 -761 rmoveto
          -197 644 rlineto
          -162 hlineto
          -217 -644 rlineto
          134 hlineto
          17 91 17 53 111 3 126 -3 17 -60 16 -84 rlineto
          -62 249 rmoveto
          -88 -2 -85 2 88 268 rlineto
          9 hlineto
          endchar
        </CharString>
        <CharString name="Acircumflexdotbelow">
          52 -194 142 73 -21 145.5 102.5 269 127 hstem
          226 139 vstem
          178 728 rmoveto
          13 hlineto
          37 21 37 20 36 22 36 -22 37 -20 37 -21 rrcurveto
          13 hlineto
          24 53 -48 33 -45 35 -41 36 rlinecurve
          -27 hlineto
          -40 -36 -44 -35 -50 -33 rrcurveto
          431 -781 rmoveto
          -197 644 rlineto
          -162 hlineto
          -217 -644 rlineto
          134 hlineto
          17 91 17 53 111 3 126 -3 17 -60 16 -84 rlineto
          -62 249 rmoveto
          -88 -2 -85 2 88 268 rlineto
          9 hlineto
          -9 -569 rmoveto
          -45 -28 -29 -44 -44 24 -25 44 44 27 29 45 43 -24 25 -42 hvcurveto
          endchar
        </CharString>
        <CharString name="Acircumflexgrave">
          52 21 -21 145.5 102.5 269 127 hstem
          8 576 vstem
          409 833 rmoveto
          10 hlineto
          44 34 -70 124 -9 4 -67 -29 -3 -10 rlineto
          -136 -248 rmoveto
          13 hlineto
          37 21 37 20 36 22 36 -22 37 -20 37 -21 rrcurveto
          13 hlineto
          24 53 -48 33 -45 35 -41 36 rlinecurve
          -27 hlineto
          -40 -36 -44 -35 -50 -33 rrcurveto
          431 -761 rmoveto
          -197 644 rlineto
          -162 hlineto
          -217 -644 rlineto
          134 hlineto
          17 91 17 53 111 3 126 -3 17 -60 16 -84 rlineto
          -62 249 rmoveto
          -88 -2 -85 2 88 268 rlineto
          9 hlineto
          endchar
        </CharString>
        <CharString name="Acircumflexhookabove">
          52 21 -21 145.5 102.5 269 127 336 58 hstem
          412 68 vstem
          385 980 rmoveto
          15 12 -7 -15 -18 -18 -26 -32 -23 hvcurveto
          40 -63 46 27 -22 37 rlineto
          39 33 15 20 26 vvcurveto
          39 -34 28 -43 -35 -37 -18 -30 -28 vhcurveto
          22 -34 rlineto
          15 18 24 9 18 hhcurveto
          -207 -272 rmoveto
          13 hlineto
          37 21 37 20 36 22 36 -22 37 -20 37 -21 rrcurveto
          13 hlineto
          24 53 -48 33 -45 35 -41 36 rlinecurve
          -27 hlineto
          -40 -36 -44 -35 -50 -33 rrcurveto
          431 -761 rmoveto
          -197 644 rlineto
          -162 hlineto
          -217 -644 rlineto
          134 hlineto
          17 91 17 53 111 3 126 -3 17 -60 16 -84 rlineto
          -62 249 rmoveto
          -88 -2 -85 2 88 268 rlineto
          9 hlineto
          endchar
        </CharString>
        <CharString name="Acircumflextilde">
          52 21 -21 145.5 102.5 269 127 hstem
          8 576 vstem
          180 870 rmoveto
          11 hlineto
          25 22 16 24 19 hhcurveto
          24 76 -28 -6 43 hvcurveto
          11 5 65 84 rlineto
          11 vlineto
          -36 37 rlineto
          -11 hlineto
          -26 -22 -17 -23 -19 hhcurveto
          -23 -76 27 6 -43 hvcurveto
          -12 -4 -65 -84 rlineto
          -11 vlineto
          144 -42 rmoveto
          -40 -36 -44 -35 -50 -33 25 -53 rcurveline
          13 hlineto
          37 21 37 20 36 22 36 -22 37 -20 37 -21 rrcurveto
          13 hlineto
          24 53 -48 33 -45 35 -41 36 rlinecurve
          270 -865 rmoveto
          -197 644 rlineto
          -162 hlineto
          -217 -644 rlineto
          134 hlineto
          17 91 17 53 111 3 126 -3 17 -60 16 -84 rlineto
          -62 249 rmoveto
          -88 -2 -85 2 88 268 rlineto
          9 hlineto
          endchar
        </CharString>
        <CharString name="Adieresis">
          52 21 -21 145.5 102.5 269 127 88 130 hstem
          152 127 47 127 vstem
          213 732 rmoveto
          41 25 26 42 39 -22 23 -39 -41 -25 -26 -41 -40 22 -23 39 hvcurveto
          174 hmoveto
          41 25 26 42 39 -22 23 -39 -41 -25 -26 -41 -40 22 -23 39 hvcurveto
          197 -732 rmoveto
          -197 644 rlineto
          -162 hlineto
          -217 -644 rlineto
          134 hlineto
          17 91 17 53 111 3 126 -3 17 -60 16 -84 rlineto
          -62 249 rmoveto
          -88 -2 -85 2 88 268 rlineto
          9 hlineto
          endchar
        </CharString>
        <CharString name="Adotbelow">
          52 -194 142 73 -21 145.5 102.5 269 127 hstem
          226 139 vstem
          584 hmoveto
          -197 644 rlineto
          -162 hlineto
          -217 -644 rlineto
          134 hlineto
          17 91 17 53 111 3 126 -3 17 -60 16 -84 rlineto
          -62 249 rmoveto
          -88 -2 -85 2 88 268 rlineto
          9 hlineto
          -9 -569 rmoveto
          -45 -28 -29 -44 -44 24 -25 44 44 27 29 45 43 -24 25 -42 hvcurveto
          endchar
        </CharString>
        <CharString name="Agrave">
          52 21 -21 145.5 102.5 269 127 hstem
          8 576 vstem
          409 722 rmoveto
          22 55 -73 37 -66 35 -69 41 rlinecurve
          -12 -3 -34 -79 4 -12 77 -30 68 -24 70 -24 rlinecurve
          188 -718 rmoveto
          -197 644 rlineto
          -162 hlineto
          -217 -644 rlineto
          134 hlineto
          17 91 17 53 111 3 126 -3 17 -60 16 -84 rlineto
          -62 249 rmoveto
          -88 -2 -85 2 88 268 rlineto
          9 hlineto
          endchar
        </CharString>
        <CharString name="Ahookabove">
          52 21 -21 145.5 102.5 269 127 213 62 hstem
          301 71 vstem
          273 857 rmoveto
          16 12 -7 -15 -19 -19 -28 -33 -24 hvcurveto
          42 -66 49 28 -23 39 rlineto
          40 35 15 21 27 vvcurveto
          41 -35 30 -45 -37 -38 -20 -31 -30 vhcurveto
          22 -36 rlineto
          16 20 25 9 19 hhcurveto
          311 -857 rmoveto
          -197 644 rlineto
          -162 hlineto
          -217 -644 rlineto
          134 hlineto
          17 91 17 53 111 3 126 -3 17 -60 16 -84 rlineto
          -62 249 rmoveto
          -88 -2 -85 2 88 268 rlineto
          9 hlineto
          endchar
        </CharString>
        <CharString name="Amacron">
          52 21 -21 145.5 102.5 269 127 112 83 hstem
          8 576 vstem
          163 756 rmoveto
          280 hlineto
          6 74 -8 9 rlineto
          -280 hlineto
          -7 -74 rlineto
          430 -765 rmoveto
          -197 644 rlineto
          -162 hlineto
          -217 -644 rlineto
          134 hlineto
          17 91 17 53 111 3 126 -3 17 -60 16 -84 rlineto
          -62 249 rmoveto
          -88 -2 -85 2 88 268 rlineto
          9 hlineto
          endchar
        </CharString>
        <CharString name="Aogonek">
          52 -197 75 143 -21 145.5 102.5 269 127 hstem
          426 73 vstem
          609 -93 rmoveto
          -7 hlineto
          -18 -22 -24 -11 -22 hhcurveto
          -24 -11 12 21 19 10 25 32 45 hvcurveto
          43 hlineto
          -197 644 rlineto
          -162 hlineto
          -217 -644 rlineto
          134 hlineto
          17 91 17 53 111 3 126 -3 17 -60 16 -84 rlineto
          30 hlineto
          -38 -48 -12 -29 -32 vvcurveto
          -53 34 -35 55 37 32 17 33 37 vhcurveto
          -237 396 rmoveto
          -88 -2 -85 2 88 268 rlineto
          9 hlineto
          endchar
        </CharString>
        <CharString name="Aring">
          52 21 -21 145.5 102.5 269 127 70 55 77 57 hstem
          205 55 82 55 vstem
          298 714 rmoveto
          60 39 35 63 56 -32 35 -62 -63 -35 -35 -60 -62 36 -32 57 hvcurveto
          2 132 rmoveto
          29 13 -14 -25 -26 -15 -12 -26 -26 -15 13 27 25 13 12 27 hvcurveto
          284 -846 rmoveto
          -197 644 rlineto
          -162 hlineto
          -217 -644 rlineto
          134 hlineto
          17 91 17 53 111 3 126 -3 17 -60 16 -84 rlineto
          -62 249 rmoveto
          -88 -2 -85 2 88 268 rlineto
          9 hlineto
          endchar
        </CharString>
        <CharString name="Aringacute">
          52 21 -21 142.5 100.5 400 -20 97 57 hstem
          211 55 82 55 vstem
          216 797 rmoveto
          12 -6 73 13 71 14 80 18 rlinecurve
          6 11 -21 83 -12 5 -75 -30 -70 -25 -77 -25 rlinecurve
          381 -855 rmoveto
          -201 621 rlineto
          13 16 7 22 27 vvcurveto
          56 -32 35 -62 -63 -35 -35 -60 -26 6 -20 11 -15 vhcurveto
          -220 -621 rlineto
          134 hlineto
          17 89 17 52 111 3 126 -3 17 -59 16 -82 rlineto
          -140 720 rmoveto
          29 13 -14 -25 -26 -15 -12 -26 -26 -15 13 27 25 13 12 27 hvcurveto
          77 -476 rmoveto
          -87 -2 -85 2 88 261 rlineto
          9 hlineto
          endchar
        </CharString>
        <CharString name="Atilde">
          52 21 -21 145.5 102.5 269 127 hstem
          8 576 vstem
          165 720 rmoveto
          12 hlineto
          26 24 18 25 20 hhcurveto
          26 82 -29 -6 46 hvcurveto
          13 5 70 89 rlineto
          11 vlineto
          -39 39 rlineto
          -12 hlineto
          -27 -24 -18 -24 -21 hhcurveto
          -25 -82 29 6 -47 hvcurveto
          -12 -5 -71 -89 rlineto
          -11 vlineto
          459 -759 rmoveto
          -197 644 rlineto
          -162 hlineto
          -217 -644 rlineto
          134 hlineto
          17 91 17 53 111 3 126 -3 17 -60 16 -84 rlineto
          -62 249 rmoveto
          -88 -2 -85 2 88 268 rlineto
          9 hlineto
          endchar
        </CharString>
        <CharString name="B">
          31 -5 97 -71 -21 276 94.5 176.5 98 hstemhm
          81.5 124 171.5 139 -107 138 hintmask 10111010
          418 334 rmoveto
          hintmask 01111100
          63 27 35 53 70 vvcurveto
          106 -79 55 -130 vhcurveto
          -229 -1 7 -452 -7 -192 rlineto
          hintmask 10111010
          -3 54 87 -2 35 hhcurveto
          193 100 60 127 81 -40 50 -89 21 hvcurveto
          hintmask 10111100
          -41 132 rmoveto
          -55 -25 -29 -50 -13 vhcurveto
          -94 3 3 175 rlineto
          49 hlineto
          87 30 -22 -59 hvcurveto
          hintmask 10111010
          -100 -374 rmoveto
          -17 -26 1 3 -26 hvcurveto
          -3 108 1 71 111 2 rlineto
          61 -11 31 -28 -49 vvcurveto
          -63 -48 -34 -84 vhcurveto
          endchar
        </CharString>
        <CharString name="C">
          -31 -9 114 435 112 hstem
          28 143 vstem
          336 652 rmoveto
          -196 -112 -122 -214 -209 103 -116 192 56 52 11 24 52 hvcurveto
          11 115 -12 7 rlineto
          -27 -43 -55 -16 -50 hhcurveto
          -106 -57 74 152 142 55 67 104 51 50 -17 -28 39 hvcurveto
          11 5 24 113 rlineto
          25 -48 -57 14 -64 hhcurveto
          endchar
        </CharString>
        <CharString name="C.ss01">
          -94 0 49 -49 103 300 102 -49 49 hstemhm
          39 128 hintmask 00000000
          hintmask 10101000
          283 403 rmoveto
          40 42 -12 -21 29 hvcurveto
          10 5 rlineto
          hintmask 10011000
          17 81 rlineto
          133 49 -654 -49 229 hlineto
          -59 -42 -31 -71 -95 vvcurveto
          -90 27 -68 53 -41 vhcurveto
          -219 -49 654 49 -147 hlineto
          hintmask 01011000
          8 77 -11 6 rlineto
          -18 -33 -44 -11 -38 hhcurveto
          -81 -41 52 106 hvcurveto
          hintmask 10101000
          100 39 42 77 vhcurveto
          endchar
        </CharString>
        <CharString name="Cacute">
          -31 -9 114 435 112 hstem
          28 142 vstem
          430 886 rmoveto
          -12 3 -69 -41 -66 -35 -73 -37 rlinecurve
          22 -55 13 -4 70 24 68 24 77 30 rlinecurve
          4 12 rlineto
          -129 -155 rmoveto
          -195 -112 -122 -214 -209 103 -116 192 56 52 11 24 52 hvcurveto
          11 115 -13 7 rlineto
          -27 -42 -55 -16 -50 hhcurveto
          -106 -58 74 152 142 55 67 105 51 50 -17 -28 39 hvcurveto
          10 5 25 113 rlineto
          25 -48 -57 14 -65 hhcurveto
          endchar
        </CharString>
        <CharString name="Ccaron">
          -31 -9 114 435 112 hstem
          28 142 vstem
          439 875 rmoveto
          -13 hlineto
          -37 -21 -37 -20 -36 -22 -36 22 -37 20 -37 21 rrcurveto
          -13 hlineto
          -24 -53 48 -33 45 -35 41 -36 rlinecurve
          27 hlineto
          40 36 44 35 50 33 rrcurveto
          -129 -170 rmoveto
          -195 -112 -122 -214 -209 103 -116 192 56 52 11 24 52 hvcurveto
          11 115 -13 7 rlineto
          -27 -42 -55 -16 -50 hhcurveto
          -106 -58 74 152 142 55 67 105 51 50 -17 -28 39 hvcurveto
          10 5 25 113 rlineto
          25 -48 -57 14 -65 hhcurveto
          endchar
        </CharString>
        <CharString name="Ccedilla">
          -31 -201 57 135 114 435 112 hstem
          28 142 160 78 vstem
          334 105 rmoveto
          -106 -58 74 152 142 55 67 105 51 50 -17 -28 39 hvcurveto
          10 5 25 113 rlineto
          25 -48 -57 14 -65 hhcurveto
          -195 -112 -122 -214 -193 87 -113 165 -17 hvcurveto
          -16 -68 49 -28 rlineto
          10 -5 7 -5 -10 vvcurveto
          -14 -9 -7 -15 -20 -20 11 19 -19 vhcurveto
          -6 -3 -9 -56 rlineto
          -16 21 26 -12 35 hhcurveto
          57 37 31 44 23 -10 19 -31 17 hvcurveto
          -34 19 10 39 48 3 46 11 46 21 rlinecurve
          11 115 -13 7 rlineto
          -27 -42 -55 -16 -50 hhcurveto
          endchar
        </CharString>
        <CharString name="Ccircumflex">
          -31 -9 114 435 112 hstem
          28 142 vstem
          193 728 rmoveto
          13 hlineto
          37 21 37 20 36 22 36 -22 37 -20 37 -21 rrcurveto
          13 hlineto
          24 53 -48 33 -45 35 -41 36 rlinecurve
          -27 hlineto
          -40 -36 -44 -35 -50 -33 rrcurveto
          167 -129 rmoveto
          -195 -112 -122 -214 -209 103 -116 192 56 52 11 24 52 hvcurveto
          11 115 -13 7 rlineto
          -27 -42 -55 -16 -50 hhcurveto
          -106 -58 74 152 142 55 67 105 51 50 -17 -28 39 hvcurveto
          10 5 25 113 rlineto
          25 -48 -57 14 -65 hhcurveto
          endchar
        </CharString>
        <CharString name="Cdotaccent">
          -31 -9 114 435 112 78 142 hstem
          28 142 76 139 vstem
          319 872 rmoveto
          -45 -28 -29 -44 -44 24 -25 44 44 27 29 45 43 -24 25 -42 hvcurveto
          16 -220 rmoveto
          -195 -112 -122 -214 -209 103 -116 192 56 52 11 24 52 hvcurveto
          11 115 -13 7 rlineto
          -27 -42 -55 -16 -50 hhcurveto
          -106 -58 74 152 142 55 67 105 51 50 -17 -28 39 hvcurveto
          10 5 25 113 rlineto
          25 -48 -57 14 -65 hhcurveto
          endchar
        </CharString>
        <CharString name="D">
          107 -7 105 -77 -21 540 108 hstemhm
          81.5 129.5 275 141 hintmask 10111000
          78 644 rmoveto
          7 -452 rlineto
          hintmask 01111000
          -7 -192 rlineto
          hintmask 10111000
          -4 66 109 -3 50 hhcurveto
          208 116 125 228 195 -103 107 -187 hvcurveto
          -10 -550 rmoveto
          -20 -56 3 4 -40 hvcurveto
          -3 99 6 331 rlineto
          3 36 57 2 20 hhcurveto
          108 51 -67 -158 -152 -59 -65 -100 hvcurveto
          endchar
        </CharString>
        <CharString name="D.ss01">
          22 0 49 -49 94 308 103 -49 49 hstemhm
          83.5 116 203.5 127 hintmask 10011100
          670 456 rmoveto
          49 -770 -49 181 vlineto
          5 -304 -4 -103 rlineto
          -182 -49 770 49 -234 hlineto
          61 45 33 75 101 vvcurveto
          84 -28 63 -51 39 vhcurveto
          -254 -292 rmoveto
          hintmask 01101100
          5 234 rlineto
          3 28 40 1 15 hhcurveto
          81 37 -44 -116 -106 -44 -42 -72 -17 -42 3 4 -29 hvcurveto
          endchar
        </CharString>
        <CharString name="Dcaron">
          107 -7 105 -77 -21 540 108 hstemhm
          82 129.5 273.5 141 hintmask 10111000
          335 718 rmoveto
          40 36 44 35 50 33 -25 53 rcurveline
          -13 hlineto
          -37 -21 -37 -20 -36 -22 -36 22 -37 20 -37 21 rrcurveto
          -13 hlineto
          -24 -53 48 -33 45 -35 41 -36 rlinecurve
          -230 -74 rmoveto
          8 -452 rlineto
          hintmask 01111000
          -8 -192 rlineto
          hintmask 10111000
          -4 66 108 -3 51 hhcurveto
          208 115 125 228 195 -102 107 -187 hvcurveto
          -10 -550 rmoveto
          -20 -55 3 4 -40 hvcurveto
          -3 99 5 331 rlineto
          3 36 56 2 20 hhcurveto
          109 50 -67 -158 -152 -58 -65 -100 hvcurveto
          endchar
        </CharString>
        <CharString name="Dcroat">
          107 -7 105 -77 -21 540 108 108 83 hstemhm
          82 129.5 273.5 141 hintmask 10111100
          182 756 rmoveto
          280 hlineto
          6 74 -8 9 rlineto
          -280 hlineto
          -7 -74 rlineto
          -95 -121 rmoveto
          8 -452 rlineto
          hintmask 01111100
          -8 -192 rlineto
          hintmask 10111100
          -4 66 108 -3 51 hhcurveto
          208 115 125 228 195 -102 107 -187 hvcurveto
          -10 -550 rmoveto
          -20 -55 3 4 -40 hvcurveto
          -3 99 5 331 rlineto
          3 36 56 2 20 hhcurveto
          109 50 -67 -158 -152 -58 -65 -100 hvcurveto
          endchar
        </CharString>
        <CharString name="Delta">
          52 0 104 413 127 hstem
          8 576 vstem
          584 hmoveto
          -197 644 rlineto
          -162 hlineto
          -217 -644 rlineto
          291 517 rmoveto
          9 hlineto
          117 -413 rlineto
          -262 hlineto
          endchar
        </CharString>
        <CharString name="E">
          -39 0 106.5 -106.5 109 164.5 106.5 -8 8.5 156 107.5 -11 11 hstemhm
          81.5 131 hintmask 00000000
          hintmask 01101010
          483 112 rmoveto
          hintmask 10101010
          -159 -6 -113 1 -3 97 1 69 103 1 114 -3 rlineto
          hintmask 10011010
          9 101 -8 10 rlineto
          hintmask 10101010
          -105 -3 -111 2 3 155 116 1 154 -5 rlineto
          hintmask 10100110
          10 101 -8 11 rlineto
          hintmask 10101010
          -408 hlineto
          7 -452 -7 -192 rlineto
          404 hlineto
          hintmask 01101010
          9 101 rlineto
          endchar
        </CharString>
        <CharString name="Eacute">
          -39 0 106.5 -106.5 109 164.5 106 -7.5 8.5 156 107.5 -11 11 hstemhm
          82 131 hintmask 10101010
          199 721 rmoveto
          13 -4 70 24 68 24 77 30 rlinecurve
          4 12 -34 79 -12 3 -69 -41 -66 -35 -73 -37 rlinecurve
          hintmask 01101010
          306 -664 rmoveto
          hintmask 10101010
          -159 -6 -112 1 -3 97 1 69 102 1 114 -3 rlineto
          hintmask 10011010
          9 101 -8 10 rlineto
          hintmask 10101010
          -106 -3 -109 1 2 156 115 1 155 -5 rlineto
          hintmask 10100110
          9 101 -7 11 rlineto
          hintmask 10101010
          -408 hlineto
          8 -452 -8 -192 rlineto
          404 hlineto
          hintmask 01101010
          8 101 rlineto
          endchar
        </CharString>
        <CharString name="Ebreve">
          -39 0 106.5 -106.5 109 164.5 106 -7.5 8.5 156 107.5 -11 11 77 92 hstemhm
          82 131 hintmask 10101011
          280 721 rmoveto
          74 54 37 68 25 hvcurveto
          -31 43 rlineto
          -19 hlineto
          -35 -17 -35 -21 -46 hhcurveto
          -49 -37 21 35 -17 hvcurveto
          -19 hlineto
          -31 -43 rlineto
          -68 23 53 -37 72 hhcurveto
          hintmask 01101011
          203 -609 rmoveto
          hintmask 10101011
          -159 -6 -112 1 -3 97 1 69 102 1 114 -3 rlineto
          hintmask 10011011
          9 101 -8 10 rlineto
          hintmask 10101011
          -106 -3 -109 1 2 156 115 1 155 -5 rlineto
          hintmask 10100111
          9 101 -7 11 rlineto
          hintmask 10101011
          -408 hlineto
          8 -452 -8 -192 rlineto
          404 hlineto
          hintmask 01101011
          8 101 rlineto
          endchar
        </CharString>
        <CharString name="Ecaron">
          -39 0 106.5 -106.5 109 164.5 106 -7.5 8.5 156 107.5 -11 11 hstemhm
          82 131 hintmask 10101010
          297 718 rmoveto
          40 36 44 35 50 33 -25 53 rcurveline
          -13 hlineto
          -37 -21 -37 -20 -36 -22 -36 22 -37 20 -37 21 rrcurveto
          -13 hlineto
          -24 -53 48 -33 45 -35 41 -36 rlinecurve
          hintmask 01101010
          213 -606 rmoveto
          hintmask 10101010
          -159 -6 -112 1 -3 97 1 69 102 1 114 -3 rlineto
          hintmask 10011010
          9 101 -8 10 rlineto
          hintmask 10101010
          -106 -3 -109 1 2 156 115 1 155 -5 rlineto
          hintmask 10100110
          9 101 -7 11 rlineto
          hintmask 10101010
          -408 hlineto
          8 -452 -8 -192 rlineto
          404 hlineto
          hintmask 01101010
          8 101 rlineto
          endchar
        </CharString>
        <CharString name="Ecircumflex">
          -39 0 106.5 -106.5 109 164.5 106 -7.5 8.5 156 107.5 -11 11 hstemhm
          82 131 hintmask 10101010
          160 728 rmoveto
          13 hlineto
          37 21 37 20 36 22 36 -22 37 -20 37 -21 rrcurveto
          13 hlineto
          24 53 -48 33 -45 35 -41 36 rlinecurve
          -27 hlineto
          -40 -36 -44 -35 -50 -33 rrcurveto
          hintmask 01101010
          348 -669 rmoveto
          hintmask 10101010
          -159 -6 -112 1 -3 97 1 69 102 1 114 -3 rlineto
          hintmask 10011010
          9 101 -8 10 rlineto
          hintmask 10101010
          -106 -3 -109 1 2 156 115 1 155 -5 rlineto
          hintmask 10100110
          9 101 -7 11 rlineto
          hintmask 10101010
          -408 hlineto
          8 -452 -8 -192 rlineto
          404 hlineto
          hintmask 01101010
          8 101 rlineto
          endchar
        </CharString>
        <CharString name="Ecircumflexacute">
          -39 0 106.5 -106.5 109 164.5 106 -7.5 8.5 156 107.5 -11 11 hstemhm
          82 131 hintmask 10101010
          383 833 rmoveto
          9 hlineto
          95 123 -3 10 -67 29 -9 -4 -70 -124 rlineto
          -179 -159 rmoveto
          13 hlineto
          37 21 37 20 36 22 36 -22 37 -20 37 -21 rrcurveto
          13 hlineto
          24 53 -48 33 -45 35 -41 36 rlinecurve
          -27 hlineto
          -40 -36 -44 -35 -50 -33 rrcurveto
          hintmask 01101010
          349 -649 rmoveto
          hintmask 10101010
          -159 -6 -112 1 -3 97 1 69 102 1 114 -3 rlineto
          hintmask 10011010
          9 101 -8 10 rlineto
          hintmask 10101010
          -106 -3 -109 1 2 156 115 1 155 -5 rlineto
          hintmask 10100110
          9 101 -7 11 rlineto
          hintmask 10101010
          -408 hlineto
          8 -452 -8 -192 rlineto
          404 hlineto
          hintmask 01101010
          8 101 rlineto
          endchar
        </CharString>
        <CharString name="Ecircumflexdotbelow">
          -39 -194 142 52 106.5 -106.5 109 164.5 106 -7.5 8.5 156 107.5 -11 11 hstemhm
          82 131 11 139 hintmask 1101010100000000
          160 728 rmoveto
          13 hlineto
          37 21 37 20 36 22 36 -22 37 -20 37 -21 rrcurveto
          13 hlineto
          24 53 -48 33 -45 35 -41 36 rlinecurve
          -27 hlineto
          -40 -36 -44 -35 -50 -33 rrcurveto
          hintmask 1011010100000000
          348 -669 rmoveto
          hintmask 1101010100000000
          -159 -6 -112 1 -3 97 1 69 102 1 114 -3 rlineto
          hintmask 1100110100000000
          9 101 -8 10 rlineto
          hintmask 1101010100000000
          -106 -3 -109 1 2 156 115 1 155 -5 rlineto
          hintmask 1101001100000000
          9 101 -7 11 rlineto
          hintmask 1101010100000000
          -408 hlineto
          8 -452 -8 -192 rlineto
          404 hlineto
          hintmask 1011010110000000
          8 101 rlineto
          -193 -153 rmoveto
          -45 -28 -29 -44 -44 24 -25 44 44 27 29 45 43 -24 25 -42 hvcurveto
          endchar
        </CharString>
        <CharString name="Ecircumflexgrave">
          -39 0 106.5 -106.5 109 164.5 106 -7.5 8.5 156 107.5 -11 11 hstemhm
          82 131 hintmask 10101010
          390 833 rmoveto
          10 hlineto
          44 34 -70 124 -9 4 -67 -29 -3 -10 rlineto
          -136 -248 rmoveto
          13 hlineto
          37 21 37 20 36 22 36 -22 37 -20 37 -21 rrcurveto
          13 hlineto
          24 53 -48 33 -45 35 -41 36 rlinecurve
          -27 hlineto
          -40 -36 -44 -35 -50 -33 rrcurveto
          hintmask 01101010
          349 -649 rmoveto
          hintmask 10101010
          -159 -6 -112 1 -3 97 1 69 102 1 114 -3 rlineto
          hintmask 10011010
          9 101 -8 10 rlineto
          hintmask 10101010
          -106 -3 -109 1 2 156 115 1 155 -5 rlineto
          hintmask 10100110
          9 101 -7 11 rlineto
          hintmask 10101010
          -408 hlineto
          8 -452 -8 -192 rlineto
          404 hlineto
          hintmask 01101010
          8 101 rlineto
          endchar
        </CharString>
        <CharString name="Ecircumflexhookabove">
          -39 0 106.5 -106.5 109 164.5 106 -7.5 8.5 156 107.5 -11 11 336 58 hstemhm
          82 131 180 68 hintmask 1010101110000000
          366 980 rmoveto
          15 12 -7 -15 -18 -18 -26 -32 -23 hvcurveto
          40 -63 46 27 -22 37 rlineto
          39 33 15 20 26 vvcurveto
          39 -34 28 -43 -35 -37 -18 -30 -28 vhcurveto
          22 -34 rlineto
          15 18 24 9 18 hhcurveto
          -207 -272 rmoveto
          13 hlineto
          37 21 37 20 36 22 36 -22 37 -20 37 -21 rrcurveto
          13 hlineto
          24 53 -48 33 -45 35 -41 36 rlinecurve
          -27 hlineto
          -40 -36 -44 -35 -50 -33 rrcurveto
          hintmask 0110101110000000
          349 -649 rmoveto
          hintmask 1010101110000000
          -159 -6 -112 1 -3 97 1 69 102 1 114 -3 rlineto
          hintmask 1001101110000000
          9 101 -8 10 rlineto
          hintmask 1010101110000000
          -106 -3 -109 1 2 156 115 1 155 -5 rlineto
          hintmask 1010011110000000
          9 101 -7 11 rlineto
          hintmask 1010101110000000
          -408 hlineto
          8 -452 -8 -192 rlineto
          404 hlineto
          hintmask 0110101110000000
          8 101 rlineto
          endchar
        </CharString>
        <CharString name="Ecircumflextilde">
          -39 0 106.5 -106.5 109 164.5 106 -7.5 8.5 156 107.5 -11 11 hstemhm
          82 131 hintmask 10101010
          390 833 rmoveto
          10 hlineto
          44 34 -70 124 -9 4 -67 -29 -3 -10 rlineto
          -136 -248 rmoveto
          13 hlineto
          37 21 37 20 36 22 36 -22 37 -20 37 -21 rrcurveto
          13 hlineto
          24 53 -48 33 -45 35 -41 36 rlinecurve
          -27 hlineto
          -40 -36 -44 -35 -50 -33 rrcurveto
          hintmask 01101010
          349 -649 rmoveto
          hintmask 10101010
          -159 -6 -112 1 -3 97 1 69 102 1 114 -3 rlineto
          hintmask 10011010
          9 101 -8 10 rlineto
          hintmask 10101010
          -106 -3 -109 1 2 156 115 1 155 -5 rlineto
          hintmask 10100110
          9 101 -7 11 rlineto
          hintmask 10101010
          -408 hlineto
          8 -452 -8 -192 rlineto
          404 hlineto
          hintmask 01101010
          8 101 rlineto
          endchar
        </CharString>
        <CharString name="Edieresis">
          -39 0 106.5 -106.5 109 164.5 106 -7.5 8.5 156 107.5 -11 11 88 130 hstemhm
          82 131 -80 127 47 127 hintmask 0000000000000000
          hintmask 0110101011000000
          194 732 rmoveto
          41 25 26 42 39 -22 23 -39 -41 -25 -26 -41 -40 22 -23 39 hvcurveto
          174 hmoveto
          41 25 26 42 39 -22 23 -39 -41 -25 -26 -41 -40 22 -23 39 hvcurveto
          115 -620 rmoveto
          hintmask 1010101101000000
          -159 -6 -112 1 -3 97 1 69 102 1 114 -3 rlineto
          hintmask 1001101101000000
          9 101 -8 10 rlineto
          hintmask 1010101101000000
          -106 -3 -109 1 2 156 115 1 155 -5 rlineto
          hintmask 1010011100000000
          9 101 -7 11 rlineto
          hintmask 1010101100000000
          -408 hlineto
          8 -452 -8 -192 rlineto
          404 hlineto
          hintmask 0110101100000000
          8 101 rlineto
          endchar
        </CharString>
        <CharString name="Edotaccent">
          -39 0 106.5 -106.5 109 164.5 106 -7.5 8.5 156 107.5 -11 11 86 142 hstemhm
          82 131 0 139 hintmask 0000000000000000
          hintmask 0110101010000000
          281 730 rmoveto
          44 27 29 45 43 -24 25 -42 -45 -28 -29 -44 -44 24 -25 44 hvcurveto
          202 -618 rmoveto
          hintmask 1010100010000000
          -159 -6 rlineto
          hintmask 1010100100000000
          -112 1 -3 97 1 69 102 1 114 -3 rlineto
          hintmask 1001100100000000
          9 101 -8 10 rlineto
          hintmask 1010100100000000
          -106 -3 -109 1 2 156 115 1 155 -5 rlineto
          hintmask 1010010100000000
          9 101 -7 11 rlineto
          hintmask 1010100100000000
          -408 hlineto
          8 -452 -8 -192 rlineto
          404 hlineto
          hintmask 0110100100000000
          8 101 rlineto
          endchar
        </CharString>
        <CharString name="Edotbelow">
          -39 -194 142 52 106.5 -106.5 109 164.5 106 -7.5 8.5 156 107.5 -11 11 hstemhm
          82 131 11 139 hintmask 0000000000000000
          hintmask 1011010100000000
          483 112 rmoveto
          hintmask 1101010100000000
          -159 -6 -112 1 -3 97 1 69 102 1 114 -3 rlineto
          hintmask 1100110100000000
          9 101 -8 10 rlineto
          hintmask 1101010100000000
          -106 -3 -109 1 2 156 115 1 155 -5 rlineto
          hintmask 1101001100000000
          9 101 -7 11 rlineto
          hintmask 1101010100000000
          -408 hlineto
          8 -452 -8 -192 rlineto
          404 hlineto
          hintmask 1011010110000000
          8 101 rlineto
          -193 -153 rmoveto
          -45 -28 -29 -44 -44 24 -25 44 44 27 29 45 43 -24 25 -42 hvcurveto
          endchar
        </CharString>
        <CharString name="Egrave">
          -39 0 106.5 -106.5 109 164.5 106 -7.5 8.5 156 107.5 -11 11 hstemhm
          82 131 hintmask 10101010
          390 722 rmoveto
          22 55 -73 37 -66 35 -69 41 rlinecurve
          -12 -3 -34 -79 4 -12 77 -30 68 -24 70 -24 rlinecurve
          hintmask 01101010
          106 -606 rmoveto
          hintmask 10101010
          -159 -6 -112 1 -3 97 1 69 102 1 114 -3 rlineto
          hintmask 10011010
          9 101 -8 10 rlineto
          hintmask 10101010
          -106 -3 -109 1 2 156 115 1 155 -5 rlineto
          hintmask 10100110
          9 101 -7 11 rlineto
          hintmask 10101010
          -408 hlineto
          8 -452 -8 -192 rlineto
          404 hlineto
          hintmask 01101010
          8 101 rlineto
          endchar
        </CharString>
        <CharString name="Ehookabove">
          -39 0 106.5 -106.5 109 164.5 106 -7.5 8.5 156 107.5 -11 11 213 62 hstemhm
          82 131 69 71 hintmask 1010101110000000
          254 857 rmoveto
          16 12 -7 -15 -19 -19 -28 -33 -24 hvcurveto
          42 -66 49 28 -23 39 rlineto
          40 35 15 21 27 vvcurveto
          41 -35 30 -45 -37 -38 -20 -31 -30 vhcurveto
          22 -36 rlineto
          16 20 25 9 19 hhcurveto
          hintmask 0110101110000000
          229 -745 rmoveto
          hintmask 1010101110000000
          -159 -6 -112 1 -3 97 1 69 102 1 114 -3 rlineto
          hintmask 1001101110000000
          9 101 -8 10 rlineto
          hintmask 1010101110000000
          -106 -3 -109 1 2 156 115 1 155 -5 rlineto
          hintmask 1010011110000000
          9 101 -7 11 rlineto
          hintmask 1010101110000000
          -408 hlineto
          8 -452 -8 -192 rlineto
          404 hlineto
          hintmask 0110101110000000
          8 101 rlineto
          endchar
        </CharString>
        <CharString name="Emacron">
          -39 0 106.5 -106.5 109 164.5 106 -7.5 8.5 156 107.5 -11 11 112 83 hstemhm
          82 131 hintmask 10101011
          144 756 rmoveto
          280 hlineto
          6 74 -8 9 rlineto
          -280 hlineto
          -7 -74 rlineto
          hintmask 01101011
          348 -653 rmoveto
          hintmask 10101011
          -159 -6 -112 1 -3 97 1 69 102 1 114 -3 rlineto
          hintmask 10011011
          9 101 -8 10 rlineto
          hintmask 10101011
          -106 -3 -109 1 2 156 115 1 155 -5 rlineto
          hintmask 10100111
          9 101 -7 11 rlineto
          hintmask 10101011
          -408 hlineto
          8 -452 -8 -192 rlineto
          404 hlineto
          hintmask 01101011
          8 101 rlineto
          endchar
        </CharString>
        <CharString name="Eng">
          147 21 -21 22 -21 435 208 0 -20 22 -20 hstemhm
          82 115.5 296.5 120 hintmask 01001110
          610 199 rmoveto
          8 447 -126 -8 4 -421 rlineto
          -9 hlineto
          hintmask 10010110
          -262 427 rlineto
          -146 hlineto
          6 -454 -7 -190 rlineto
          124 hlineto
          -5 222 rlineto
          hintmask 01100110
          1 214 rlineto
          9 hlineto
          270 -435 -16 -34 -32 -26 -53 -27 rlinecurve
          -13 vlineto
          41 -72 rlineto
          147 56 49 61 110 vvcurveto
          endchar
        </CharString>
        <CharString name="Eogonek">
          -39 -197 75 122 106.5 -106.5 109 164.5 106 -7.5 8.5 156 107.5 -11 11 hstemhm
          82 131 91 73 hintmask 1101010110000000
          487 -93 rmoveto
          -7 hlineto
          -18 -22 -23 -11 -20 hhcurveto
          -26 -12 16 21 14 6 16 10 17 hvcurveto
          25 38 rlineto
          64 hlineto
          hintmask 1011010110000000
          8 101 -7 11 rlineto
          hintmask 1101010110000000
          -159 -6 -112 1 -3 97 1 69 102 1 114 -3 rlineto
          hintmask 1100110110000000
          9 101 -8 10 rlineto
          hintmask 1101010110000000
          -106 -3 -109 1 2 156 115 1 155 -5 rlineto
          hintmask 1101001110000000
          9 101 -7 11 rlineto
          hintmask 1101010110000000
          -408 hlineto
          8 -452 -8 -192 rlineto
          274 hlineto
          -19 -27 rlineto
          -21 -28 -8 -28 -26 vvcurveto
          -50 35 -38 56 35 31 16 33 37 vhcurveto
          endchar
        </CharString>
        <CharString name="Eth">
          132 -7 105 -77 -21 275 90 175 108 hstemhm
          105.5 132.5 -127.5 124 276.5 141 hintmask 00000000
          hintmask 10111010
          104 644 rmoveto
          -1 hlineto
          5 -279 rlineto
          hintmask 01110110
          -88 hlineto
          -5 -81 6 -9 rlineto
          89 hlineto
          1 -83 -8 -192 rlineto
          1 hlineto
          hintmask 10110110
          -4 65 109 -3 50 hhcurveto
          208 116 125 228 195 -103 107 -186 hvcurveto
          -10 -550 rmoveto
          -21 -55 3 4 -40 hvcurveto
          -3 99 1 71 rlineto
          121 hlineto
          4 81 -6 9 rlineto
          hintmask 10111010
          -117 hlineto
          2 170 rlineto
          3 37 56 2 20 hhcurveto
          108 51 -67 -158 hvcurveto
          hintmask 10110110
          -152 -59 -65 -99 vhcurveto
          endchar
        </CharString>
        <CharString name="Etilde">
          -39 0 106.5 -106.5 109 164.5 106 -7.5 8.5 156 107.5 -11 11 hstemhm
          82 131 hintmask 10101010
          146 720 rmoveto
          12 hlineto
          26 24 18 25 20 hhcurveto
          26 82 -29 -6 46 hvcurveto
          13 5 70 89 rlineto
          11 vlineto
          -39 39 rlineto
          -12 hlineto
          -27 -24 -18 -24 -21 hhcurveto
          -25 -82 29 6 -47 hvcurveto
          -12 -5 -71 -89 rlineto
          -11 vlineto
          hintmask 01101010
          377 -647 rmoveto
          hintmask 10101010
          -159 -6 -112 1 -3 97 1 69 102 1 114 -3 rlineto
          hintmask 10011010
          9 101 -8 10 rlineto
          hintmask 10101010
          -106 -3 -109 1 2 156 115 1 155 -5 rlineto
          hintmask 10100110
          9 101 -7 11 rlineto
          hintmask 10101010
          -408 hlineto
          8 -452 -8 -192 rlineto
          404 hlineto
          hintmask 01101010
          8 101 rlineto
          endchar
        </CharString>
        <CharString name="Euro">
          -81 -7 101 67 67 42 67 73 102 hstem
          6 446 vstem
          10 270 rmoveto
          345 hlineto
          5 61 -6 6 rlineto
          -142 hlineto
          49 15 36 24 54 hhcurveto
          34 41 -11 -18 29 hvcurveto
          10 5 21 99 rlineto
          16 -38 -45 11 -47 hhcurveto
          -128 -84 -63 -112 -29 hvcurveto
          -71 hlineto
          -4 -59 rlineto
          314 -184 rmoveto
          -52 -35 22 45 -18 hvcurveto
          140 hlineto
          5 60 -6 7 rlineto
          -344 hlineto
          -4 -60 4 -7 rlineto
          69 hlineto
          -110 23 78 -58 133 hhcurveto
          38 41 6 17 39 hvcurveto
          10 98 -11 6 rlineto
          -16 -32 -45 -10 -33 hhcurveto
          endchar
        </CharString>
        <CharString name="F">
          -92 21 -21 255.5 106 -7.5 8.5 171.5 110 -107.5 107.5 -11 11 hstemhm
          81.5 131 hintmask 11010010
          214 536 rmoveto
          hintmask 11001010
          92 1 rlineto
          hintmask 11010010
          153 -6 rlineto
          hintmask 11000110
          10 102 -8 11 rlineto
          hintmask 11010010
          -383 hlineto
          7 -452 -7 -192 rlineto
          136 hlineto
          -6 204 1 51 81 1 119 -3 rlineto
          hintmask 10110010
          10 101 -9 10 rlineto
          hintmask 11010010
          -109 -3 -90 1 rlineto
          endchar
        </CharString>
        <CharString name="G">
          50 -9 107 444 110 hstem
          28 142 256 122.5 vstem
          364 652 rmoveto
          -214 -122 -120 -224 -201 98 -116 203 67 70 12 28 84 hvcurveto
          -3 157 3 88 -125 -10 2 -99 -2 -55 rlineto
          -11 -37 -21 -3 -27 hhcurveto
          -121 -49 58 159 164 54 63 117 60 46 -16 -37 64 hvcurveto
          13 2 29 122 rlineto
          27 -58 -63 12 -68 hhcurveto
          endchar
        </CharString>
        <CharString name="Gbreve">
          50 -9 107 444 110 69 92 hstem
          28 142 256 122 vstem
          446 869 rmoveto
          -19 hlineto
          -35 -17 -35 -21 -46 hhcurveto
          -49 -37 21 35 -17 hvcurveto
          -19 hlineto
          -31 -43 rlineto
          -68 23 53 -37 72 hhcurveto
          74 54 37 68 25 hvcurveto
          -113 -174 rmoveto
          -214 -122 -120 -224 -201 98 -116 203 66 71 12 28 83 hvcurveto
          -2 157 3 88 -126 -10 3 -99 -2 -55 rlineto
          -11 -37 -21 -3 -28 hhcurveto
          -121 -48 58 159 164 53 63 117 60 47 -16 -37 64 hvcurveto
          12 2 29 122 rlineto
          27 -57 -63 12 -68 hhcurveto
          endchar
        </CharString>
        <CharString name="Gcircumflex">
          50 -9 107 444 110 hstem
          28 142 256 122 vstem
          204 728 rmoveto
          13 hlineto
          37 21 37 20 36 22 36 -22 37 -20 37 -21 rrcurveto
          13 hlineto
          24 53 -48 33 -45 35 -41 36 rlinecurve
          -27 hlineto
          -40 -36 -44 -35 -50 -33 rrcurveto
          185 -129 rmoveto
          -214 -122 -120 -224 -201 98 -116 203 66 71 12 28 83 hvcurveto
          -2 157 3 88 -126 -10 3 -99 -2 -55 rlineto
          -11 -37 -21 -3 -28 hhcurveto
          -121 -48 58 159 164 53 63 117 60 47 -16 -37 64 hvcurveto
          12 2 29 122 rlineto
          27 -57 -63 12 -68 hhcurveto
          endchar
        </CharString>
        <CharString name="Gcommaaccent">
          50 -66 -21 78 107 444 110 hstem
          28 142 109 98 49 122 vstem
          364 652 rmoveto
          -214 -122 -120 -224 -201 98 -116 203 66 71 12 28 83 hvcurveto
          -2 157 3 88 -126 -10 3 -99 -2 -55 rlineto
          -11 -37 -21 -3 -28 hhcurveto
          -121 -48 58 159 164 53 63 117 60 47 -16 -37 64 hvcurveto
          12 2 29 122 rlineto
          27 -57 -63 12 -68 hhcurveto
          -27 -692 rmoveto
          -31 -8 -28 -13 -27 -16 rrcurveto
          -10 vlineto
          19 -16 9 -17 -21 vvcurveto
          -32 -16 -28 -34 -28 vhcurveto
          1 -9 39 -34 rlineto
          73 52 35 50 54 vvcurveto
          30 -13 25 -27 21 vhcurveto
          endchar
        </CharString>
        <CharString name="Gdieresis">
          50 -9 107 444 110 80 130 hstemhm
          28 142 8 127 46 127 -52 122 hintmask 00000000
          hintmask 11111100
          244 862 rmoveto
          -41 -25 -26 -41 -40 22 -23 39 41 25 26 42 39 -22 23 -39 hvcurveto
          173 hmoveto
          -41 -25 -26 -41 -40 22 -23 39 41 25 26 42 39 -22 23 -39 hvcurveto
          -53 -210 rmoveto
          hintmask 11110010
          -214 -122 -120 -224 -201 98 -116 203 66 71 12 28 83 hvcurveto
          -2 157 3 88 -126 -10 3 -99 -2 -55 rlineto
          -11 -37 -21 -3 -28 hhcurveto
          -121 -48 58 159 164 53 63 117 60 47 -16 -37 64 hvcurveto
          12 2 29 122 rlineto
          hintmask 11111100
          27 -57 -63 12 -68 hhcurveto
          endchar
        </CharString>
        <CharString name="Gdotaccent">
          50 -9 107 444 110 78 142 hstemhm
          28 142 87 139 30 122 hintmask 00000000
          hintmask 11111100
          330 872 rmoveto
          -45 -28 -29 -44 -44 24 -25 44 44 27 29 45 43 -24 25 -42 hvcurveto
          34 -220 rmoveto
          -214 -122 -120 -224 -201 98 -116 203 hvcurveto
          hintmask 11010100
          66 71 12 28 83 hvcurveto
          -2 157 3 88 -126 -10 3 -99 -2 -55 rlineto
          -11 -37 -21 -3 -28 hhcurveto
          -121 -48 58 159 164 53 63 117 60 47 -16 -37 64 hvcurveto
          12 2 29 122 rlineto
          hintmask 11111100
          27 -57 -63 12 -68 hhcurveto
          endchar
        </CharString>
        <CharString name="Germandbls">
          120 -9 104 -95 32 -11 -21 543 109 hstemhm
          66 128 321 134 hintmask 10011000
          339 652 rmoveto
          -178 -98 -95 -142 1 hvcurveto
          4 -225 rlineto
          hintmask 00111000
          -8 -190 rlineto
          137 hlineto
          -6 205 3 210 rlineto
          84 44 44 92 36 32 -7 -16 39 vhcurveto
          -139 -185 5 -21 rlineto
          hintmask 10011100
          157 -62 55 -38 -51 vvcurveto
          -40 -30 -28 -46 -44 -57 26 45 -50 vhcurveto
          -15 -8 rlineto
          hintmask 01011000
          -19 -126 rlineto
          hintmask 10011100
          -27 54 64 -14 58 hhcurveto
          119 100 63 124 98 -64 41 -124 60 hvcurveto
          144 188 -6 20 rlineto
          hintmask 10011000
          42 -90 -78 25 -92 hhcurveto
          endchar
        </CharString>
        <CharString name="Gtilde">
          50 -9 107 444 110 hstem
          28 142 256 122 vstem
          501 841 rmoveto
          -39 39 rlineto
          -12 hlineto
          -27 -24 -18 -24 -21 hhcurveto
          -25 -82 29 6 -47 hvcurveto
          -12 -5 -71 -89 rlineto
          -11 vlineto
          40 -39 rlineto
          12 hlineto
          26 24 18 25 20 hhcurveto
          26 82 -29 -6 46 hvcurveto
          13 5 70 89 rlineto
          -137 -178 rmoveto
          -214 -122 -120 -224 -201 98 -116 203 66 71 12 28 83 hvcurveto
          -2 157 3 88 -126 -10 3 -99 -2 -55 rlineto
          -11 -37 -21 -3 -28 hhcurveto
          -121 -48 58 159 164 53 63 117 60 47 -16 -37 64 hvcurveto
          12 2 29 122 rlineto
          27 -57 -63 12 -68 hhcurveto
          endchar
        </CharString>
        <CharString name="H">
          148 21 -21 268 109.5 266.5 -20 hstem
          81.5 132 268 132.5 vstem
          610 204 rmoveto
          8 440 rlineto
          -139 hlineto
          5 -265 -135 -3 -138 3 5 265 rlineto
          -138 hlineto
          7 -452 -7 -192 rlineto
          136 hlineto
          -6 204 1 62 131 3 146 -2 1 -75 -8 -192 rlineto
          137 hlineto
          endchar
        </CharString>
        <CharString name="Hbar">
          180 21 -21 268 109.5 97.5 78 -78 169 hstemhm
          92 136.5 -132 129 268.5 136.5 -133.5 129 hintmask 11010101
          628 475 rmoveto
          hintmask 11010110
          69 hlineto
          hintmask 11100110
          5 70 -6 8 rlineto
          -66 hlineto
          hintmask 11010110
          1 91 rlineto
          -138 hlineto
          hintmask 11101010
          2 -91 rlineto
          -267 hlineto
          hintmask 11011001
          1 91 rlineto
          -138 hlineto
          hintmask 11101001
          2 -91 rlineto
          hintmask 11100101
          -62 hlineto
          hintmask 11010101
          -5 -71 6 -7 rlineto
          62 hlineto
          5 -283 -8 -192 rlineto
          137 hlineto
          -6 204 1 62 130 3 147 -2 1 -75 -8 -192 rlineto
          136 hlineto
          -5 204 rlineto
          -128 271 rmoveto
          2 -96 -136 -3 -137 3 1 96 rlineto
          endchar
        </CharString>
        <CharString name="Hcircumflex">
          148 21 -21 268 109.5 266.5 -20 hstem
          82 132 267.5 132 vstem
          223 728 rmoveto
          13 hlineto
          37 21 37 20 36 22 36 -22 37 -20 37 -21 rrcurveto
          13 hlineto
          24 53 -48 33 -45 35 -41 36 rlinecurve
          -27 hlineto
          -40 -36 -44 -35 -50 -33 rrcurveto
          412 -577 rmoveto
          7 440 rlineto
          -138 hlineto
          5 -265 -136 -3 -136 3 4 265 rlineto
          -138 hlineto
          8 -452 -8 -192 rlineto
          137 hlineto
          -6 204 1 62 129 3 147 -2 1 -75 -8 -192 rlineto
          137 hlineto
          endchar
        </CharString>
        <CharString name="I">
          -253 21 -21 644 -20 hstem
          81.5 130.5 vstem
          208 204 rmoveto
          8 440 rlineto
          -138 hlineto
          7 -452 -7 -192 rlineto
          136 hlineto
          endchar
        </CharString>
        <CharString name="I.ss01">
          -269 0 49 407 49 hstem
          76.5 120.5 vstem
          194 162 rmoveto
          6 294 rlineto
          179 49 -479 -49 174 hlineto
          5 -306 -4 -101 rlineto
          -175 -49 479 49 -181 hlineto
          endchar
        </CharString>
        <CharString name="IJ">
          82 21 -21 542.5 101.5 hstem
          82 130.5 210.5 126.5 vstem
          216 644 rmoveto
          -138 hlineto
          8 -452 -8 -192 rlineto
          137 hlineto
          -6 204 rlineto
          337 8 rmoveto
          7 432 rlineto
          -245 hlineto
          -7 -93 10 -10 106 3 6 -345 rlineto
          -76 vlineto
          -68 -32 -35 -81 -42 vhcurveto
          -12 vlineto
          41 -72 rlineto
          147 55 50 61 111 vvcurveto
          endchar
        </CharString>
        <CharString name="Iacute">
          -253 21 -21 644 -20 hstem
          82 130.5 vstem
          262 886 rmoveto
          -12 3 -69 -41 -66 -35 -73 -37 rlinecurve
          22 -55 13 -4 70 24 68 24 77 30 rlinecurve
          4 12 rlineto
          -87 -603 rmoveto
          7 440 rlineto
          -138 hlineto
          8 -452 -8 -192 rlineto
          137 hlineto
          endchar
        </CharString>
        <CharString name="Iacute_J.loclNLD">
          82 21 -21 542.5 101.5 hstem
          82 130.5 210.5 126.5 vstem
          262 886 rmoveto
          -12 3 -69 -41 -66 -35 -73 -37 rlinecurve
          22 -55 13 -4 70 24 68 24 77 30 rlinecurve
          4 12 rlineto
          296 hmoveto
          -34 79 -12 3 -69 -41 -66 -35 -73 -37 rlinecurve
          22 -55 13 -4 70 24 68 24 77 30 rlinecurve
          -372 -151 rmoveto
          -138 hlineto
          8 -452 -8 -192 rlineto
          137 hlineto
          -6 204 rlineto
          344 440 rmoveto
          -245 hlineto
          -7 -93 10 -10 106 3 6 -345 rlineto
          -76 vlineto
          -68 -32 -35 -81 -42 vhcurveto
          -12 vlineto
          41 -72 rlineto
          147 55 50 61 111 vvcurveto
          -2 91 rlineto
          endchar
        </CharString>
        <CharString name="Ibreve">
          -253 21 -21 644 -20 97 92 hstem
          82 130.5 vstem
          266 869 rmoveto
          -19 hlineto
          -35 -17 -35 -21 -46 hhcurveto
          -49 -37 21 35 -17 hvcurveto
          -19 hlineto
          -31 -43 rlineto
          -68 23 53 -37 72 hhcurveto
          74 54 37 68 25 hvcurveto
          -88 -622 rmoveto
          7 440 rlineto
          -138 hlineto
          8 -452 -8 -192 rlineto
          137 hlineto
          endchar
        </CharString>
        <CharString name="Icaron">
          -253 21 -21 644 -20 hstem
          82 130.5 vstem
          270 875 rmoveto
          -13 hlineto
          -37 -21 -37 -20 -36 -22 -36 22 -37 20 -37 21 rrcurveto
          -13 hlineto
          -24 -53 48 -33 45 -35 41 -36 rlinecurve
          27 hlineto
          40 36 44 35 50 33 rrcurveto
          -86 -618 rmoveto
          7 440 rlineto
          -138 hlineto
          8 -452 -8 -192 rlineto
          137 hlineto
          endchar
        </CharString>
        <CharString name="Icircumflex">
          -253 21 -21 644 -20 hstem
          82 130.5 vstem
          24 728 rmoveto
          13 hlineto
          37 21 37 20 36 22 36 -22 37 -20 37 -21 rrcurveto
          13 hlineto
          24 53 -48 33 -45 35 -41 36 rlinecurve
          -27 hlineto
          -40 -36 -44 -35 -50 -33 rrcurveto
          210 -577 rmoveto
          7 440 rlineto
          -138 hlineto
          8 -452 -8 -192 rlineto
          137 hlineto
          endchar
        </CharString>
        <CharString name="Idieresis">
          -253 21 -21 644 -20 108 130 hstemhm
          8 127 -53 130.5 -51.5 127 hintmask 00000000
          hintmask 11110000
          74 862 rmoveto
          -41 -25 -26 -41 -40 22 -23 39 41 25 26 42 39 -22 23 -39 hvcurveto
          hintmask 11100100
          153 hmoveto
          -41 -25 -26 -41 -40 22 -23 39 41 25 26 42 39 -22 23 -39 hvcurveto
          hintmask 11101000
          -18 -658 rmoveto
          7 440 rlineto
          -138 hlineto
          8 -452 -8 -192 rlineto
          137 hlineto
          endchar
        </CharString>
        <CharString name="Idotaccent">
          -253 21 -21 644 -20 106 142 hstemhm
          77 139 -134 130.5 hintmask 00000000
          hintmask 11110000
          150 872 rmoveto
          -45 -28 -29 -44 -44 24 -25 44 44 27 29 45 43 -24 25 -42 hvcurveto
          hintmask 11101000
          59 -668 rmoveto
          7 440 rlineto
          -138 hlineto
          8 -452 -8 -192 rlineto
          137 hlineto
          endchar
        </CharString>
        <CharString name="Idotbelow">
          -253 -194 142 73 -21 644 -20 hstemhm
          71 139 -128 130.5 hintmask 11101000
          209 204 rmoveto
          7 440 rlineto
          -138 hlineto
          8 -452 -8 -192 rlineto
          137 hlineto
          hintmask 11110000
          -71 -52 rmoveto
          -45 -28 -29 -44 -44 24 -25 44 44 27 29 45 43 -24 25 -42 hvcurveto
          endchar
        </CharString>
        <CharString name="Igrave">
          -253 21 -21 644 -20 hstem
          82 130.5 vstem
          56 887 rmoveto
          -34 -79 4 -12 77 -30 68 -24 70 -24 rlinecurve
          13 4 22 55 -73 37 -66 35 -69 41 rlinecurve
          141 -686 rmoveto
          7 440 rlineto
          -138 hlineto
          8 -452 -8 -192 rlineto
          137 hlineto
          endchar
        </CharString>
        <CharString name="Ihookabove">
          -253 21 -21 644 -20 233 62 hstemhm
          82 130.5 -65.5 71 hintmask 00000000
          hintmask 11101000
          138 919 rmoveto
          -37 -38 -20 -31 -30 hvcurveto
          22 -36 rlineto
          16 20 25 9 19 hhcurveto
          16 12 -7 -15 -19 -19 -28 -33 -24 hvcurveto
          42 -66 49 28 -23 39 rlineto
          40 35 15 21 27 vvcurveto
          41 -35 30 -45 vhcurveto
          hintmask 11110000
          71 -715 rmoveto
          7 440 rlineto
          -138 hlineto
          8 -452 -8 -192 rlineto
          137 hlineto
          endchar
        </CharString>
        <CharString name="Imacron">
          -253 21 -21 644 -20 132 83 hstem
          82 130.5 vstem
          267 830 rmoveto
          -9 9 rlineto
          -225 hlineto
          -7 -74 9 -9 rlineto
          226 hlineto
          -52 -552 rmoveto
          7 440 rlineto
          -138 hlineto
          8 -452 -8 -192 rlineto
          137 hlineto
          endchar
        </CharString>
        <CharString name="Iogonek">
          -253 -197 75 143 -21 644 -20 hstemhm
          34 73 -25 130.5 hintmask 11101000
          215 hmoveto
          -6 204 7 440 rlineto
          -138 hlineto
          8 -452 -8 -192 rlineto
          hintmask 11110000
          -34 -50 -10 -28 -31 vvcurveto
          -52 34 -36 55 31 29 12 26 30 vhcurveto
          -10 60 rlineto
          -8 hlineto
          -15 -17 -20 -8 -17 hhcurveto
          -22 -12 12 21 19 9 25 31 45 hvcurveto
          endchar
        </CharString>
        <CharString name="Itilde">
          -253 21 -21 644 -20 hstem
          82 130.5 vstem
          301 838 rmoveto
          -39 39 rlineto
          -12 hlineto
          -26 -20 -15 -24 -20 hhcurveto
          -21 -66 28 6 -41 hvcurveto
          -12 -5 -62 -87 rlineto
          -12 vlineto
          39 -39 rlineto
          11 hlineto
          26 20 15 24 20 hhcurveto
          21 66 -28 -6 41 hvcurveto
          12 4 63 89 rlineto
          -92 -623 rmoveto
          7 440 rlineto
          -138 hlineto
          8 -452 -8 -192 rlineto
          137 hlineto
          endchar
        </CharString>
        <CharString name="J">
          -213 542.5 101.5 hstem
          128 126.5 vstem
          251 212 rmoveto
          7 432 rlineto
          -245 hlineto
          -7 -93 10 -10 106 3 6 -345 rlineto
          -76 vlineto
          -68 -32 -35 -81 -42 vhcurveto
          -12 vlineto
          41 -72 rlineto
          147 55 50 61 111 vvcurveto
          endchar
        </CharString>
        <CharString name="Jcircumflex">
          -213 542.5 101.5 hstem
          127 127 vstem
          134 885 rmoveto
          -40 -36 -44 -35 -50 -33 25 -53 rcurveline
          13 hlineto
          37 21 37 20 36 22 36 -22 37 -20 37 -21 rrcurveto
          13 hlineto
          24 53 -48 33 -45 35 -41 36 rlinecurve
          97 -241 rmoveto
          -246 hlineto
          -6 -93 9 -10 107 3 5 -345 rlineto
          -76 vlineto
          -68 -31 -35 -81 -42 vhcurveto
          -12 vlineto
          41 -72 rlineto
          147 55 49 61 111 vvcurveto
          -2 91 rlineto
          endchar
        </CharString>
        <CharString name="K">
          36 11 -21 31 -21 644 -20 hstemhm
          81 131.5 hintmask 01110000
          574 644 rmoveto
          -147 hlineto
          -37 -62 -180 -237 5 299 rlineto
          -138 hlineto
          8 -452 -8 -192 rlineto
          136 hlineto
          -5 204 2 127 rlineto
          hintmask 10110000
          73 -115 79 -110 80 -108 16 -8 rcurveline
          45 5 43 7 45 11 2 15 rcurveline
          -87 100 -84 106 -76 106 rrcurveto
          endchar
        </CharString>
        <CharString name="Kcommaaccent">
          36 -66 -21 98 -21 31 -21 644 -20 hstemhm
          81 131.5 62.5 98 hintmask 10111000
          574 644 rmoveto
          -147 hlineto
          -37 -62 -180 -237 5 299 rlineto
          -138 hlineto
          8 -452 -8 -192 rlineto
          137 hlineto
          -6 204 2 127 rlineto
          hintmask 11011100
          73 -115 79 -110 80 -108 15 -8 rcurveline
          45 5 44 7 45 11 2 15 rcurveline
          -87 100 -84 106 -76 106 rrcurveto
          -13 -380 rmoveto
          -31 -8 -28 -13 -27 -16 rrcurveto
          -10 vlineto
          19 -16 9 -17 -21 vvcurveto
          -32 -16 -28 -34 -28 vhcurveto
          1 -9 39 -34 rlineto
          73 52 35 50 54 vvcurveto
          30 -13 25 -27 21 vhcurveto
          endchar
        </CharString>
        <CharString name="L">
          -115 0 112 -11 11 532 -20 hstemhm
          77.5 130.5 hintmask 00000000
          hintmask 01110000
          431 101 rmoveto
          -8 11 rlineto
          hintmask 10110000
          -216 hlineto
          -3 92 8 440 rlineto
          -138 hlineto
          7 -452 -7 -192 rlineto
          348 hlineto
          endchar
        </CharString>
        <CharString name="L.ss01">
          -148 0 49 48 10 349 49 hstem
          75.5 118.5 vstem
          197 456 rmoveto
          303 49 -600 -49 173 hlineto
          5 -304 -4 -103 rlineto
          -174 -49 600 49 -133 hlineto
          4 48 -7 10 rlineto
          -172 hlineto
          -1 57 rlineto
          endchar
        </CharString>
        <CharString name="Lacute">
          -115 0 112 -11 11 532 -20 hstemhm
          78 130.5 hintmask 10110000
          129 721 rmoveto
          13 -4 70 24 68 24 77 30 rlinecurve
          4 12 -34 79 -12 3 -69 -41 -66 -35 -73 -37 rlinecurve
          hintmask 01110000
          324 -675 rmoveto
          -8 11 rlineto
          hintmask 10110000
          -215 hlineto
          -3 92 7 440 rlineto
          -138 hlineto
          8 -452 -8 -192 rlineto
          348 hlineto
          endchar
        </CharString>
        <CharString name="Lcaron">
          -81 0 112 -11 11 479 -20 73 -20 hstemhm
          78 130.5 122.5 69 hintmask 10111000
          423 112 rmoveto
          -215 hlineto
          -3 92 7 440 rlineto
          -138 hlineto
          8 -452 -8 -192 rlineto
          348 hlineto
          hintmask 01111100
          9 101 rlineto
          -99 280 rmoveto
          10 -8 58 9 33 200 -8 9 -95 -6 rlineto
          endchar
        </CharString>
        <CharString name="Lcommaaccent">
          -115 -66 -21 87 112 -11 11 532 -20 hstemhm
          78 130.5 1.5 98 hintmask 00000000
          hintmask 10111000
          431 101 rmoveto
          -8 11 rlineto
          hintmask 11011000
          -215 hlineto
          -3 92 7 440 rlineto
          -138 hlineto
          8 -452 -8 -192 rlineto
          348 hlineto
          hintmask 11010100
          -154 -40 rmoveto
          -31 -8 -28 -13 -27 -16 rrcurveto
          -10 vlineto
          19 -16 9 -17 -21 vvcurveto
          -32 -16 -28 -34 -28 vhcurveto
          1 -9 39 -34 rlineto
          73 52 35 50 54 vvcurveto
          30 -13 25 -27 21 vhcurveto
          endchar
        </CharString>
        <CharString name="Ldot">
          -93 0 112 -11 11 206 142 184 -20 hstemhm
          78 130.5 86.5 139 hintmask 10111000
          423 112 rmoveto
          -215 hlineto
          -3 92 7 440 rlineto
          -138 hlineto
          8 -452 -8 -192 rlineto
          348 hlineto
          hintmask 01111100
          9 101 rlineto
          -68 217 rmoveto
          44 27 29 45 43 -24 25 -42 -45 -28 -29 -44 -44 24 -25 44 hvcurveto
          endchar
        </CharString>
        <CharString name="Lslash">
          -99 0 112 -11 11 358 -20 194 -20 hstemhm
          92.5 134.5 -133 128.5 hintmask 00000000
          hintmask 01111000
          448 101 rmoveto
          -8 11 rlineto
          hintmask 10111000
          -216 hlineto
          -3 92 2 109 141 73 -24 78 -13 6 -102 -52 4 226 rlineto
          -139 hlineto
          5 -293 rlineto
          hintmask 10110100
          -95 -49 24 -79 13 -6 60 31 1 -56 -8 -192 rlineto
          349 hlineto
          endchar
        </CharString>
        <CharString name="M">
          249 21 -21 68 176 199 201 0 -20 hstemhm
          44 705 hintmask 11011000
          749 hmoveto
          -58 644 rlineto
          -153 hlineto
          -29 -95 -107 -305 rlineto
          -9 hlineto
          -102 305 -26 95 rlineto
          -156 hlineto
          -65 -644 rlineto
          114 hlineto
          14 208 rlineto
          hintmask 11101000
          25 235 rlineto
          9 hlineto
          131 -375 rlineto
          105 hlineto
          144 375 rlineto
          10 hlineto
          23 -248 10 -195 rlineto
          endchar
        </CharString>
        <CharString name="M.ss01">
          138 0 49 277 179 -49 49 hstemhm
          -100 886 hintmask 10110000
          580 456 rmoveto
          206 49 -886 -49 206 hlineto
          -43 -407 rlineto
          -163 -49 886 49 -169 hlineto
          -187 407 rmoveto
          -11 -31 -74 -183 rlineto
          -8 hlineto
          -70 185 -9 29 rlineto
          255 -407 rmoveto
          -351 hlineto
          7 131 rlineto
          hintmask 11010000
          16 146 rlineto
          7 hlineto
          96 -238 rlineto
          92 hlineto
          106 238 rlineto
          8 hlineto
          14 -155 rlineto
          endchar
        </CharString>
        <CharString name="N">
          147 0 208 -187 -21 436 208 0 -20 22 -20 hstemhm
          82 115.5 296.5 120 hintmask 01001110
          610 199 rmoveto
          8 447 -126 -8 rlineto
          hintmask 10010110
          4 -430 rlineto
          -9 hlineto
          -262 436 rlineto
          -146 hlineto
          6 -454 -7 -190 rlineto
          124 hlineto
          -5 222 rlineto
          hintmask 01100110
          1 214 rlineto
          9 hlineto
          262 -436 rlineto
          146 hlineto
          endchar
        </CharString>
        <CharString name="Nacute">
          147 0 208 -187 -21 436 208 0 -20 22 -20 hstemhm
          82.5 115 296.5 120.5 hintmask 01001110
          461 886 rmoveto
          -12 3 -69 -41 -66 -35 -73 -37 rlinecurve
          22 -55 13 -4 70 24 68 24 77 30 rlinecurve
          4 12 rlineto
          115 -608 rmoveto
          9 447 -127 -8 rlineto
          hintmask 10010110
          4 -430 rlineto
          -9 hlineto
          -262 436 rlineto
          -146 hlineto
          7 -454 -8 -190 rlineto
          125 hlineto
          -6 222 rlineto
          hintmask 01100110
          1 214 rlineto
          9 hlineto
          262 -436 rlineto
          146 hlineto
          endchar
        </CharString>
        <CharString name="Ncaron">
          147 0 208 -187 -21 436 208 0 -20 22 -20 hstemhm
          82.5 115 296.5 120.5 hintmask 01001110
          470 875 rmoveto
          -13 hlineto
          -37 -21 -37 -20 -36 -22 -36 22 -37 20 -37 21 rrcurveto
          -13 hlineto
          -24 -53 48 -33 45 -35 41 -36 rlinecurve
          27 hlineto
          40 36 44 35 50 33 rrcurveto
          115 -623 rmoveto
          9 447 -127 -8 rlineto
          hintmask 10010110
          4 -430 rlineto
          -9 hlineto
          -262 436 rlineto
          -146 hlineto
          7 -454 -8 -190 rlineto
          125 hlineto
          -6 222 rlineto
          hintmask 01100110
          1 214 rlineto
          9 hlineto
          262 -436 rlineto
          146 hlineto
          endchar
        </CharString>
        <CharString name="Ncommaaccent">
          147 -66 -21 87 208 -187 -21 436 208 0 -20 22 -20 hstemhm
          82.5 115 124.5 98 74 120.5 hintmask 1010011010000000
          610 199 rmoveto
          9 447 -127 -8 rlineto
          hintmask 1100101010000000
          4 -430 rlineto
          -9 hlineto
          -262 436 rlineto
          -146 hlineto
          7 -454 -8 -190 rlineto
          125 hlineto
          -6 222 rlineto
          hintmask 1011001110000000
          1 214 rlineto
          9 hlineto
          262 -436 rlineto
          146 hlineto
          -235 -40 rmoveto
          -31 -8 -28 -13 -27 -16 rrcurveto
          -10 vlineto
          19 -16 9 -17 -21 vvcurveto
          -32 -16 -28 -34 -28 vhcurveto
          1 -9 39 -34 rlineto
          73 52 35 50 54 vvcurveto
          30 -13 25 -27 21 vhcurveto
          endchar
        </CharString>
        <CharString name="Ntilde">
          147 0 208 -187 -21 436 208 0 -20 22 -20 hstemhm
          82.5 115 296.5 120.5 hintmask 01001110
          521 841 rmoveto
          -39 39 rlineto
          -12 hlineto
          -27 -24 -18 -24 -21 hhcurveto
          -25 -82 29 6 -47 hvcurveto
          -12 -5 -71 -89 rlineto
          -11 vlineto
          40 -39 rlineto
          12 hlineto
          26 24 18 25 20 hhcurveto
          26 82 -29 -6 46 hvcurveto
          13 5 70 89 rlineto
          89 -631 rmoveto
          9 447 -127 -8 rlineto
          hintmask 10010110
          4 -430 rlineto
          -9 hlineto
          -262 436 rlineto
          -146 hlineto
          7 -454 -8 -190 rlineto
          125 hlineto
          -6 222 rlineto
          hintmask 01100110
          1 214 rlineto
          9 hlineto
          262 -436 rlineto
          146 hlineto
          endchar
        </CharString>
        <CharString name="O">
          95 -10 105 448 110 hstem
          28 141 305 142 vstem
          333 653 rmoveto
          -195 -110 -122 -217 -206 102 -118 181 194 111 125 221 202 -102 115 -181 hvcurveto
          -12 -110 rmoveto
          108 45 -64 -170 -153 -46 -61 -106 -108 -45 65 172 150 46 61 106 hvcurveto
          endchar
        </CharString>
        <CharString name="OE">
          321 -12 104 -92 107 166.5 106.5 -8 8.5 156.5 107 -98 110 -23 11 hstemhm
          28 141 273 126 hintmask 0000000000000000
          hintmask 1010010110000000
          352 656 rmoveto
          -204 -120 -125 -216 -207 111 -120 193 hvcurveto
          hintmask 0110100110000000
          71 72 14 -2 61 hvcurveto
          305 hlineto
          9 101 -8 11 -161 -6 -112 2 -1 94 rlineto
          71 vlineto
          101 1 116 -3 rlineto
          hintmask 0101100110000000
          10 101 -8 10 rlineto
          hintmask 0110100110000000
          -109 -3 -107 2 1 156 rlineto
          121 hlineto
          150 -5 rlineto
          hintmask 0110001110000000
          10 101 -8 11 rlineto
          hintmask 0110100110000000
          -309 hlineto
          hintmask 1010010110000000
          -57 -57 12 -70 hhcurveto
          -11 -110 rmoveto
          40 34 -6 -8 12 hvcurveto
          8 -6 4 -12 1 -25 4 -341 rcurveline
          1 -24 -6 -12 -14 -7 rrcurveto
          -8 -13 -32 -5 -37 hhcurveto
          -122 -52 72 161 154 52 67 120 hvcurveto
          endchar
        </CharString>
        <CharString name="Oacute">
          95 -10 105 448 110 hstem
          28 141 305 141 vstem
          437 886 rmoveto
          -12 3 -69 -41 -66 -35 -73 -37 rlinecurve
          22 -55 13 -4 70 24 68 24 77 30 rlinecurve
          4 12 rlineto
          -138 -154 rmoveto
          -195 -110 -122 -217 -206 102 -118 181 194 110 125 221 202 -102 115 -180 hvcurveto
          -13 -110 rmoveto
          109 45 -64 -170 -153 -47 -61 -105 -108 -45 65 172 150 45 61 106 hvcurveto
          endchar
        </CharString>
        <CharString name="Obreve">
          95 -10 105 448 110 68 92 hstem
          28 141 305 141 vstem
          442 869 rmoveto
          -19 hlineto
          -35 -17 -35 -21 -46 hhcurveto
          -49 -37 21 35 -17 hvcurveto
          -19 hlineto
          -31 -43 rlineto
          -68 23 53 -37 72 hhcurveto
          74 54 37 68 25 hvcurveto
          -140 -173 rmoveto
          -195 -110 -122 -217 -206 102 -118 181 194 110 125 221 202 -102 115 -180 hvcurveto
          -13 -110 rmoveto
          109 45 -64 -170 -153 -47 -61 -105 -108 -45 65 172 150 45 61 106 hvcurveto
          endchar
        </CharString>
        <CharString name="Ocaron">
          95 -10 105 448 110 hstem
          28 141 305 141 vstem
          446 875 rmoveto
          -13 hlineto
          -37 -21 -37 -20 -36 -22 -36 22 -37 20 -37 21 rrcurveto
          -13 hlineto
          -24 -53 48 -33 45 -35 41 -36 rlinecurve
          27 hlineto
          40 36 44 35 50 33 rrcurveto
          -138 -169 rmoveto
          -195 -110 -122 -217 -206 102 -118 181 194 110 125 221 202 -102 115 -180 hvcurveto
          -13 -110 rmoveto
          109 45 -64 -170 -153 -47 -61 -105 -108 -45 65 172 150 45 61 106 hvcurveto
          endchar
        </CharString>
        <CharString name="Ocircumflex">
          95 -10 105 448 110 hstem
          28 141 305 141 vstem
          200 728 rmoveto
          13 hlineto
          37 21 37 20 36 22 36 -22 37 -20 37 -21 rrcurveto
          13 hlineto
          24 53 -48 33 -45 35 -41 36 rlinecurve
          -27 hlineto
          -40 -36 -44 -35 -50 -33 rrcurveto
          158 -128 rmoveto
          -195 -110 -122 -217 -206 102 -118 181 194 110 125 221 202 -102 115 -180 hvcurveto
          -13 -110 rmoveto
          109 45 -64 -170 -153 -47 -61 -105 -108 -45 65 172 150 45 61 106 hvcurveto
          endchar
        </CharString>
        <CharString name="Ocircumflexacute">
          95 -10 105 448 110 hstem
          28 141 305 141 vstem
          524 966 rmoveto
          -67 29 -9 -4 -70 -124 45 -34 rlineto
          9 hlineto
          95 123 rlineto
          -328 -248 rmoveto
          13 hlineto
          37 21 37 20 36 22 36 -22 37 -20 37 -21 rrcurveto
          13 hlineto
          24 53 -48 33 -45 35 -41 36 rlinecurve
          -27 hlineto
          -40 -36 -44 -35 -50 -33 rrcurveto
          159 -108 rmoveto
          -195 -110 -122 -217 -206 102 -118 181 194 110 125 221 202 -102 115 -180 hvcurveto
          -13 -110 rmoveto
          109 45 -64 -170 -153 -47 -61 -105 -108 -45 65 172 150 45 61 106 hvcurveto
          endchar
        </CharString>
        <CharString name="Ocircumflexdotbelow">
          95 -194 142 42 105 448 110 hstem
          28 141 85 139 81 141 vstem
          205 724 rmoveto
          13 hlineto
          37 21 37 20 36 22 36 -22 37 -20 37 -21 rrcurveto
          13 hlineto
          24 53 -48 33 -45 35 -41 36 rlinecurve
          -27 hlineto
          -40 -36 -44 -35 -50 -33 rrcurveto
          153 -124 rmoveto
          -195 -110 -122 -217 -206 102 -118 181 194 110 125 221 202 -102 115 -180 hvcurveto
          -13 -110 rmoveto
          109 45 -64 -170 -153 -47 -61 -105 -108 -45 65 172 150 45 61 106 hvcurveto
          7 -595 rmoveto
          -45 -28 -29 -44 -44 24 -25 44 44 27 29 45 43 -24 25 -42 hvcurveto
          endchar
        </CharString>
        <CharString name="Ocircumflexgrave">
          95 -10 105 448 110 hstem
          28 141 305 141 vstem
          414 991 rmoveto
          -9 4 -67 -29 -3 -10 95 -123 rlineto
          10 hlineto
          44 34 rlineto
          -285 -159 rmoveto
          13 hlineto
          37 21 37 20 36 22 36 -22 37 -20 37 -21 rrcurveto
          13 hlineto
          24 53 -48 33 -45 35 -41 36 rlinecurve
          -27 hlineto
          -40 -36 -44 -35 -50 -33 rrcurveto
          159 -108 rmoveto
          -195 -110 -122 -217 -206 102 -118 181 194 110 125 221 202 -102 115 -180 hvcurveto
          -13 -110 rmoveto
          109 45 -64 -170 -153 -47 -61 -105 -108 -45 65 172 150 45 61 106 hvcurveto
          endchar
        </CharString>
        <CharString name="Ocircumflexhookabove">
          95 -10 105 448 110 327 58 hstemhm
          28 141 264 68 -27 141 hintmask 00000000
          hintmask 11111000
          424 1038 rmoveto
          -35 -37 -18 -30 -28 hvcurveto
          22 -34 rlineto
          15 18 24 9 18 hhcurveto
          15 12 -7 -15 -18 -18 -26 -32 -23 hvcurveto
          40 -63 46 27 -22 37 rlineto
          39 33 15 20 26 vvcurveto
          39 -34 28 -43 vhcurveto
          -225 -330 rmoveto
          13 hlineto
          37 21 37 20 36 22 36 -22 37 -20 37 -21 rrcurveto
          13 hlineto
          24 53 -48 33 -45 35 -41 36 rlinecurve
          -27 hlineto
          -40 -36 -44 -35 -50 -33 rrcurveto
          hintmask 11010100
          159 -108 rmoveto
          -195 -110 -122 -217 -206 102 -118 181 194 110 125 221 202 -102 115 -180 hvcurveto
          -13 -110 rmoveto
          109 45 -64 -170 -153 -47 -61 -105 -108 -45 65 172 150 45 61 106 hvcurveto
          endchar
        </CharString>
        <CharString name="Ocircumflextilde">
          95 -10 105 448 110 hstem
          28 141 305 141 vstem
          488 985 rmoveto
          -36 37 rlineto
          -11 hlineto
          -26 -22 -17 -23 -19 hhcurveto
          -23 -76 27 6 -43 hvcurveto
          -12 -4 -65 -84 rlineto
          -11 vlineto
          37 -37 rlineto
          11 hlineto
          25 22 16 24 19 hhcurveto
          24 76 -28 -6 43 hvcurveto
          11 5 65 84 rlineto
          -289 -266 rmoveto
          13 hlineto
          37 21 37 20 36 22 36 -22 37 -20 37 -21 rrcurveto
          13 hlineto
          24 53 -48 33 -45 35 -41 36 rlinecurve
          -27 hlineto
          -40 -36 -44 -35 -50 -33 rrcurveto
          159 -108 rmoveto
          -195 -110 -122 -217 -206 102 -118 181 194 110 125 221 202 -102 115 -180 hvcurveto
          -13 -110 rmoveto
          109 45 -64 -170 -153 -47 -61 -105 -108 -45 65 172 150 45 61 106 hvcurveto
          endchar
        </CharString>
        <CharString name="Odieresis">
          95 -10 105 448 110 79 130 hstemhm
          28 141 4 127 47 127 0 141 hintmask 00000000
          hintmask 11101100
          239 862 rmoveto
          -41 -25 -26 -41 -40 22 -23 39 41 25 26 42 39 -22 23 -39 hvcurveto
          174 hmoveto
          -41 -25 -26 -41 -40 22 -23 39 41 25 26 42 39 -22 23 -39 hvcurveto
          hintmask 11110010
          -80 -209 rmoveto
          -195 -110 -122 -217 -206 102 -118 181 194 110 125 221 202 -102 115 -180 hvcurveto
          -13 -110 rmoveto
          109 45 -64 -170 -153 -47 -61 -105 -108 -45 65 172 150 45 61 106 hvcurveto
          endchar
        </CharString>
        <CharString name="Odotbelow">
          95 -194 142 42 105 448 110 hstem
          28 141 85 139 81 141 vstem
          333 653 rmoveto
          -195 -110 -122 -217 -206 102 -118 181 194 110 125 221 202 -102 115 -180 hvcurveto
          -13 -110 rmoveto
          109 45 -64 -170 -153 -47 -61 -105 -108 -45 65 172 150 45 61 106 hvcurveto
          7 -595 rmoveto
          -45 -28 -29 -44 -44 24 -25 44 44 27 29 45 43 -24 25 -42 hvcurveto
          endchar
        </CharString>
        <CharString name="Ograve">
          95 -10 105 448 110 hstem
          28 141 305 141 vstem
          232 887 rmoveto
          -34 -79 4 -12 77 -30 68 -24 70 -24 rlinecurve
          13 4 22 55 -73 37 -66 35 -69 41 rlinecurve
          89 -237 rmoveto
          -195 -110 -122 -217 -206 102 -118 181 194 110 125 221 202 -102 115 -180 hvcurveto
          -13 -110 rmoveto
          109 45 -64 -170 -153 -47 -61 -105 -108 -45 65 172 150 45 61 106 hvcurveto
          endchar
        </CharString>
        <CharString name="Ohm">
          206 0 102 -87 -21 25 -21 546 109 hstemhm
          81 142 308 141 hintmask 10011100
          384 653 rmoveto
          -198 -105 -126 -160 -91 35 -91 79 -79 hvcurveto
          -2 -4 -60 -1 -92 8 rlineto
          hintmask 00111100
          -16 -104 8 -9 rlineto
          hintmask 10011100
          98 4 rlineto
          164 hlineto
          38 -2 6 5 rlineto
          86 vlineto
          -76 71 -40 95 105 vvcurveto
          111 45 73 107 108 48 -75 -114 -103 -39 -93 -79 -70 vhcurveto
          -86 vlineto
          7 -5 37 2 rlineto
          141 hlineto
          hintmask 01011100
          115 -6 rlineto
          hintmask 10011100
          16 108 -7 8 -85 -8 rlineto
          -77 hlineto
          -3 4 rlineto
          78 80 37 97 95 vvcurveto
          154 -96 121 -192 vhcurveto
          endchar
        </CharString>
        <CharString name="Ohookabove">
          95 -10 105 448 110 204 62 hstem
          28 141 153 71 81 141 vstem
          313 919 rmoveto
          -37 -38 -20 -31 -30 hvcurveto
          22 -36 rlineto
          16 20 25 9 19 hhcurveto
          16 12 -7 -15 -19 -19 -28 -33 -24 hvcurveto
          42 -66 49 28 -23 39 rlineto
          40 35 15 21 27 vvcurveto
          41 -35 30 -45 vhcurveto
          20 -266 rmoveto
          -195 -110 -122 -217 -206 102 -118 181 194 110 125 221 202 -102 115 -180 hvcurveto
          -13 -110 rmoveto
          109 45 -64 -170 -153 -47 -61 -105 -108 -45 65 172 150 45 61 106 hvcurveto
          endchar
        </CharString>
        <CharString name="Ohorn">
          102 -10 105 448 78 -78 110 hstemhm
          28 141 305 142 -59 104 hintmask 00000000
          hintmask 11010100
          593 776 rmoveto
          -22 -24 -12 -14 -18 hvcurveto
          -3 -10 rlineto
          20 -19 11 -24 -23 vvcurveto
          -33 -25 -20 -35 vhcurveto
          hintmask 10111000
          -43 -43 32 -89 hhcurveto
          -179 -115 -122 -218 -205 102 -118 183 192 111 129 213 hvcurveto
          hintmask 11011000
          98 -24 76 -48 55 vhcurveto
          hintmask 11010100
          66 9 51 44 68 vvcurveto
          54 -32 40 -36 vhcurveto
          hintmask 10111000
          -273 -233 rmoveto
          108 46 -64 -165 -158 -46 -61 -105 -108 -46 65 167 155 45 61 106 hvcurveto
          endchar
        </CharString>
        <CharString name="Ohornacute">
          102 -10 105 448 78 -78 110 hstemhm
          28 141 305 141 -58 104 hintmask 10111000
          437 886 rmoveto
          -12 3 -69 -41 -66 -35 -73 -37 rlinecurve
          22 -55 13 -4 70 24 68 24 77 30 rlinecurve
          4 12 rlineto
          hintmask 11010100
          121 -31 rmoveto
          -21 -24 -12 -14 -19 hvcurveto
          -2 -10 rlineto
          20 -19 11 -24 -23 vvcurveto
          -33 -25 -20 -35 vhcurveto
          hintmask 10111000
          -43 -43 32 -89 hhcurveto
          -180 -114 -122 -218 -205 101 -118 183 193 110 129 213 hvcurveto
          hintmask 11011000
          98 -24 76 -47 55 vhcurveto
          hintmask 11010100
          66 9 51 44 68 vvcurveto
          54 -33 40 -36 vhcurveto
          hintmask 10111000
          -272 -233 rmoveto
          108 46 -64 -165 -158 -46 -61 -105 -108 -46 65 167 155 44 61 107 hvcurveto
          endchar
        </CharString>
        <CharString name="Ohorndotbelow">
          102 -194 142 42 105 448 78 -78 110 hstemhm
          28 141 85 139 81 141 -58 104 hintmask 00000000
          hintmask 11101001
          592 776 rmoveto
          -21 -24 -12 -14 -19 hvcurveto
          -2 -10 rlineto
          20 -19 11 -24 -23 vvcurveto
          -33 -25 -20 -35 vhcurveto
          hintmask 11011010
          -43 -43 32 -89 hhcurveto
          -180 -114 -122 -218 -205 101 -118 183 193 110 129 213 hvcurveto
          hintmask 11101010
          98 -24 76 -47 55 vhcurveto
          hintmask 11101001
          66 9 51 44 68 vvcurveto
          54 -33 40 -36 vhcurveto
          hintmask 11011110
          -272 -233 rmoveto
          108 46 -64 -165 -158 -46 -61 -105 -108 -46 65 167 155 44 61 107 hvcurveto
          7 -595 rmoveto
          -45 -28 -29 -44 -44 24 -25 44 44 27 29 45 43 -24 25 -42 hvcurveto
          endchar
        </CharString>
        <CharString name="Ohorngrave">
          102 -10 105 448 78 -78 110 hstemhm
          28 141 305 141 -58 104 hintmask 10111000
          232 887 rmoveto
          -34 -79 4 -12 77 -30 68 -24 70 -24 rlinecurve
          13 4 22 55 -73 37 -66 35 -69 41 rlinecurve
          hintmask 11010100
          348 -114 rmoveto
          -21 -24 -12 -14 -19 hvcurveto
          -2 -10 rlineto
          20 -19 11 -24 -23 vvcurveto
          -33 -25 -20 -35 vhcurveto
          hintmask 10111000
          -43 -43 32 -89 hhcurveto
          -180 -114 -122 -218 -205 101 -118 183 193 110 129 213 hvcurveto
          hintmask 11011000
          98 -24 76 -47 55 vhcurveto
          hintmask 11010100
          66 9 51 44 68 vvcurveto
          54 -33 40 -36 vhcurveto
          hintmask 10111000
          -272 -233 rmoveto
          108 46 -64 -165 -158 -46 -61 -105 -108 -46 65 167 155 44 61 107 hvcurveto
          endchar
        </CharString>
        <CharString name="Ohornhookabove">
          102 -10 105 448 78 -78 110 204 62 hstemhm
          28 141 153 71 81 141 -58 104 hintmask 10111110
          313 919 rmoveto
          -37 -38 -20 -31 -30 hvcurveto
          22 -36 rlineto
          16 20 25 9 19 hhcurveto
          16 12 -7 -15 -19 -19 -28 -33 -24 hvcurveto
          42 -66 49 28 -23 39 rlineto
          40 35 15 21 27 vvcurveto
          41 -35 30 -45 vhcurveto
          hintmask 11011101
          279 -143 rmoveto
          -21 -24 -12 -14 -19 hvcurveto
          -2 -10 rlineto
          20 -19 11 -24 -23 vvcurveto
          -33 -25 -20 -35 vhcurveto
          hintmask 10111110
          -43 -43 32 -89 hhcurveto
          -180 -114 -122 -218 -205 101 -118 183 193 110 129 213 hvcurveto
          hintmask 11011110
          98 -24 76 -47 55 vhcurveto
          hintmask 11011101
          66 9 51 44 68 vvcurveto
          54 -33 40 -36 vhcurveto
          hintmask 10111110
          -272 -233 rmoveto
          108 46 -64 -165 -158 -46 -61 -105 -108 -46 65 167 155 44 61 107 hvcurveto
          endchar
        </CharString>
        <CharString name="Ohorntilde">
          102 -10 105 448 78 -78 110 hstemhm
          28 141 305 141 -58 104 hintmask 10111000
          497 841 rmoveto
          -39 39 rlineto
          -12 hlineto
          -27 -24 -18 -24 -21 hhcurveto
          -25 -82 29 6 -47 hvcurveto
          -12 -5 -71 -89 rlineto
          -11 vlineto
          40 -39 rlineto
          12 hlineto
          26 24 18 25 20 hhcurveto
          26 82 -29 -6 46 hvcurveto
          13 5 70 89 rlineto
          hintmask 11010100
          95 -54 rmoveto
          -21 -24 -12 -14 -19 hvcurveto
          -2 -10 rlineto
          20 -19 11 -24 -23 vvcurveto
          -33 -25 -20 -35 vhcurveto
          hintmask 10111000
          -43 -43 32 -89 hhcurveto
          -180 -114 -122 -218 -205 101 -118 183 193 110 129 213 hvcurveto
          hintmask 11011000
          98 -24 76 -47 55 vhcurveto
          hintmask 11010100
          66 9 51 44 68 vvcurveto
          54 -33 40 -36 vhcurveto
          hintmask 10111000
          -272 -233 rmoveto
          108 46 -64 -165 -158 -46 -61 -105 -108 -46 65 167 155 44 61 107 hvcurveto
          endchar
        </CharString>
        <CharString name="Ohungarumlaut">
          95 -10 105 448 110 hstem
          28 141 305 141 vstem
          221 715 rmoveto
          12 3 43 38 41 38 40 40 rlinecurve
          -1 11 -61 40 -11 -2 -33 -46 -36 -43 -36 -45 rlinecurve
          197 -34 rmoveto
          11 3 43 38 41 38 41 40 rlinecurve
          -1 11 -62 40 -10 -2 -34 -46 -35 -43 -36 -45 rlinecurve
          -1 -96 rmoveto
          -195 -110 -122 -217 -206 102 -118 181 194 110 125 221 202 -102 115 -180 hvcurveto
          -13 -110 rmoveto
          109 45 -64 -170 -153 -47 -61 -105 -108 -45 65 172 150 45 61 106 hvcurveto
          endchar
        </CharString>
        <CharString name="Omacron">
          95 -10 105 448 110 103 83 hstem
          28 141 305 141 vstem
          470 830 rmoveto
          -8 9 rlineto
          -280 hlineto
          -7 -74 9 -9 rlineto
          280 hlineto
          -131 -103 rmoveto
          -195 -110 -122 -217 -206 102 -118 181 194 110 125 221 202 -102 115 -180 hvcurveto
          -13 -110 rmoveto
          109 45 -64 -170 -153 -47 -61 -105 -108 -45 65 172 150 45 61 106 hvcurveto
          endchar
        </CharString>
        <CharString name="Omega">
          206 0 102 -87 -21 25 -21 546 109 hstemhm
          81 142 307 142 hintmask 10011100
          383 653 rmoveto
          -197 -105 -126 -160 -91 35 -91 79 -79 hvcurveto
          -2 -4 -61 -1 -92 8 rlineto
          hintmask 00111100
          -15 -104 7 -9 rlineto
          hintmask 10011100
          99 4 rlineto
          164 hlineto
          38 -2 6 5 rlineto
          86 vlineto
          -77 71 -39 95 105 vvcurveto
          111 45 73 107 108 47 -75 -114 -103 -38 -93 -79 -70 vhcurveto
          -86 vlineto
          6 -5 38 2 rlineto
          141 hlineto
          hintmask 01011100
          115 -6 rlineto
          hintmask 10011100
          15 108 -7 8 -84 -8 rlineto
          -78 hlineto
          -2 4 rlineto
          78 80 37 97 95 vvcurveto
          154 -96 121 -193 vhcurveto
          endchar
        </CharString>
        <CharString name="Oogonek">
          95 -197 75 112 105 448 110 hstem
          28 141 148 73 84 141 vstem
          440 13 rmoveto
          113 45 62 112 166 vvcurveto
          202 -102 115 -180 -195 -110 -122 -217 -206 102 -118 181 17 16 1 2 16 vhcurveto
          -14 -20 rlineto
          -21 -28 -8 -28 -26 vvcurveto
          -50 35 -38 56 35 31 16 33 37 vhcurveto
          -11 55 rlineto
          -7 hlineto
          -18 -22 -23 -11 -20 hhcurveto
          -26 -12 16 21 14 6 16 10 17 hvcurveto
          -237 370 rmoveto
          150 45 61 106 109 45 -64 -170 -153 -47 -61 -105 -108 -45 65 172 vhcurveto
          endchar
        </CharString>
        <CharString name="Oslash">
          95 -10 105 -74 -21 543 110 hstemhm
          28 141 305 141 hintmask 10111000
          563 704 rmoveto
          -8 14 -83 30 -51 -106 rlineto
          7 -27 -29 4 -32 hhcurveto
          -195 -110 -122 -217 -125 37 -92 70 -54 hvcurveto
          -57 -119 6 -12 85 -31 rlineto
          hintmask 01111000
          57 119 rlineto
          hintmask 10111000
          -7 26 28 -3 31 hhcurveto
          194 110 125 221 120 -36 90 -67 52 hvcurveto
          -190 -503 rmoveto
          -108 -45 65 172 150 45 61 106 109 45 -64 -170 -153 -47 -61 -105 hvcurveto
          endchar
        </CharString>
        <CharString name="Oslashacute">
          95 -10 105 -74 -21 543 110 hstemhm
          28 141 305 141 hintmask 10111000
          238 722 rmoveto
          13 -4 70 24 68 24 77 30 rlinecurve
          4 12 -34 79 -12 3 -69 -41 -66 -35 -73 -37 rlinecurve
          347 -73 rmoveto
          -8 14 -83 30 -51 -106 rlineto
          7 -27 -29 4 -32 hhcurveto
          -195 -110 -122 -217 -125 37 -92 70 -54 hvcurveto
          -57 -119 6 -12 85 -31 rlineto
          hintmask 01111000
          57 119 rlineto
          hintmask 10111000
          -7 26 28 -3 31 hhcurveto
          194 110 125 221 120 -36 90 -67 52 hvcurveto
          -190 -503 rmoveto
          -108 -45 65 172 150 45 61 106 109 45 -64 -170 -153 -47 -61 -105 hvcurveto
          endchar
        </CharString>
        <CharString name="Otilde">
          95 -10 105 448 110 hstem
          28 141 305 141 vstem
          497 841 rmoveto
          -39 39 rlineto
          -12 hlineto
          -27 -24 -18 -24 -21 hhcurveto
          -25 -82 29 6 -47 hvcurveto
          -12 -5 -71 -89 rlineto
          -11 vlineto
          40 -39 rlineto
          12 hlineto
          26 24 18 25 20 hhcurveto
          26 82 -29 -6 46 hvcurveto
          13 5 70 89 rlineto
          -164 -177 rmoveto
          -195 -110 -122 -217 -206 102 -118 181 194 110 125 221 202 -102 115 -180 hvcurveto
          -13 -110 rmoveto
          109 45 -64 -170 -153 -47 -61 -105 -108 -45 65 172 150 45 61 106 hvcurveto
          endchar
        </CharString>
        <CharString name="P">
          5 21 -21 206 101 236 102 hstem
          81.5 130.5 182 141 vstem
          78 644 rmoveto
          7 -452 -7 -192 rlineto
          136 hlineto
          -6 204 rlineto
          2 64 vlineto
          161 102 95 147 127 -76 70 -134 hvcurveto
          -115 -336 rmoveto
          4 232 68 4 rlineto
          75 -3 37 -33 -73 vvcurveto
          -72 -32 -42 -60 -17 vhcurveto
          endchar
        </CharString>
        <CharString name="Q">
          101 -176 -21 187 105 448 110 hstem
          28 141 305 142 vstem
          731 -96 rmoveto
          -100 24 -92 39 -85 52 rrcurveto
          104 49 58 110 156 vvcurveto
          205 -102 114 -181 -195 -110 -122 -217 -206 102 -118 182 vhcurveto
          21 hlineto
          97 -83 113 -64 119 -44 11 4 rcurveline
          27 25 18 26 18 36 rrcurveto
          -567 439 rmoveto
          153 45 61 106 108 46 -64 -168 -154 -48 -62 -103 -108 -46 65 169 vhcurveto
          endchar
        </CharString>
        <CharString name="R">
          42 11 -21 31 -21 217 103 223 102 hstemhm
          81.5 130.5 182 142 hintmask 01111100
          416 256 rmoveto
          76 44 44 71 83 vvcurveto
          123 -77 68 -134 vhcurveto
          -247 -1 7 -452 -7 -192 rlineto
          136 hlineto
          -6 204 rlineto
          13 97 vlineto
          hintmask 10111100
          36 -73 40 -72 41 -71 14 -11 rcurveline
          46 3 44 9 43 15 2 15 rcurveline
          hintmask 01111100
          -56 73 -51 75 -48 76 rrcurveto
          -206 66 rmoveto
          4 219 68 4 rlineto
          75 -3 37 -32 -69 vvcurveto
          -64 -29 -40 -56 -19 vhcurveto
          endchar
        </CharString>
        <CharString name="Racute">
          42 11 -21 31 -21 217 103 223 102 hstemhm
          82 130.5 181.5 142 hintmask 01111100
          231 700 rmoveto
          13 -1 64 37 61 38 70 43 rlinecurve
          2 13 -48 72 -13 1 -59 -55 -58 -47 -64 -51 rlinecurve
          216 -494 rmoveto
          76 44 45 71 83 vvcurveto
          123 -77 68 -134 vhcurveto
          -247 -1 8 -452 -8 -192 rlineto
          137 hlineto
          -6 204 rlineto
          13 95 vlineto
          hintmask 10111100
          37 -73 40 -72 40 -71 15 -11 rcurveline
          46 3 43 9 43 15 2 15 rcurveline
          hintmask 01111100
          -56 73 -50 75 -49 76 rrcurveto
          -204 66 rmoveto
          3 219 68 4 rlineto
          75 -3 37 -32 -69 vvcurveto
          -64 -29 -40 -56 -19 vhcurveto
          endchar
        </CharString>
        <CharString name="Rcaron">
          42 11 -21 31 -21 217 103 223 102 hstemhm
          82 130.5 181.5 142 hintmask 01111100
          310 703 rmoveto
          49 52 48 49 44 40 -34 51 rcurveline
          -13 hlineto
          -41 -33 -37 -31 -30 -28 -30 28 -37 31 -42 33 rrcurveto
          -13 hlineto
          -33 -51 49 -44 48 -50 43 -47 rlinecurve
          134 -447 rmoveto
          76 44 45 71 83 vvcurveto
          123 -77 68 -134 vhcurveto
          -247 -1 8 -452 -8 -192 rlineto
          137 hlineto
          -6 204 rlineto
          13 95 vlineto
          hintmask 10111100
          37 -73 40 -72 40 -71 15 -11 rcurveline
          46 3 43 9 43 15 2 15 rcurveline
          hintmask 01111100
          -56 73 -50 75 -49 76 rrcurveto
          -204 66 rmoveto
          3 219 68 4 rlineto
          75 -3 37 -32 -69 vvcurveto
          -64 -29 -40 -56 -19 vhcurveto
          endchar
        </CharString>
        <CharString name="Rcommaaccent">
          42 -66 -21 98 -21 31 -21 217 103 223 102 hstemhm
          82 130.5 59.5 98 24 142 hintmask 10111101
          415 256 rmoveto
          76 44 45 71 83 vvcurveto
          123 -77 68 -134 vhcurveto
          -247 -1 8 -452 -8 -192 rlineto
          137 hlineto
          -6 204 rlineto
          13 95 vlineto
          hintmask 11011101
          37 -73 40 -72 40 -71 15 -11 rcurveline
          46 3 43 9 43 15 2 15 rcurveline
          hintmask 10111101
          -56 73 -50 75 -49 76 rrcurveto
          -204 66 rmoveto
          3 219 68 4 rlineto
          75 -3 37 -32 -69 vvcurveto
          -64 -29 -40 -56 -19 vhcurveto
          hintmask 10111111
          21 -358 rmoveto
          -31 -8 -28 -13 -27 -16 rrcurveto
          -10 vlineto
          19 -16 9 -17 -21 vvcurveto
          -32 -16 -28 -34 -28 vhcurveto
          1 -9 39 -34 rlineto
          73 52 35 50 54 vvcurveto
          30 -13 25 -27 21 vhcurveto
          endchar
        </CharString>
        <CharString name="S">
          -50 -9 103 452 106 hstem
          48 133 149 134 vstem
          285 652 rmoveto
          -141 -96 -86 -113 hvcurveto
          -190 282 14 -110 vvcurveto
          -37 -31 -36 -62 -46 -70 23 49 -56 vhcurveto
          -15 -8 -19 -126 rlineto
          -27 63 67 -14 61 hhcurveto
          147 95 89 110 hvcurveto
          189 -283 -8 104 vvcurveto
          35 32 36 56 39 52 -19 -33 46 vhcurveto
          20 8 22 117 rlineto
          25 -61 -57 8 -45 hhcurveto
          endchar
        </CharString>
        <CharString name="Sacute">
          -50 -9 103 452 106 hstem
          48 133 149 134 vstem
          357 902 rmoveto
          -13 1 -59 -55 -58 -47 -64 -51 rlinecurve
          32 -50 13 -1 64 37 61 38 70 43 rlinecurve
          2 13 rlineto
          -120 -178 rmoveto
          -141 -96 -86 -113 hvcurveto
          -190 282 14 -110 vvcurveto
          -37 -31 -36 -62 -46 -70 23 49 -56 vhcurveto
          -15 -8 -19 -126 rlineto
          -27 63 67 -14 61 hhcurveto
          147 95 89 110 hvcurveto
          189 -283 -8 104 vvcurveto
          35 32 36 56 39 52 -19 -33 46 vhcurveto
          20 8 22 117 rlineto
          25 -61 -57 8 -45 hhcurveto
          endchar
        </CharString>
        <CharString name="Scaron">
          -50 -9 103 452 106 hstem
          48 133 149 134 vstem
          382 895 rmoveto
          -13 hlineto
          -41 -33 -37 -31 -30 -28 -30 28 -37 31 -42 33 rrcurveto
          -13 hlineto
          -33 -51 49 -44 48 -50 43 -47 rlinecurve
          29 hlineto
          49 52 48 49 44 40 rrcurveto
          -131 -192 rmoveto
          -141 -96 -86 -113 hvcurveto
          -190 282 14 -110 vvcurveto
          -37 -31 -36 -62 -46 -70 23 49 -56 vhcurveto
          -15 -8 -19 -126 rlineto
          -27 63 67 -14 61 hhcurveto
          147 95 89 110 hvcurveto
          189 -283 -8 104 vvcurveto
          35 32 36 56 39 52 -19 -33 46 vhcurveto
          20 8 22 117 rlineto
          25 -61 -57 8 -45 hhcurveto
          endchar
        </CharString>
        <CharString name="Scedilla">
          -50 -201 57 135 103 -82 -21 555 106 hstemhm
          48 133 77 78 -6 134 hintmask 10111010
          464 190 rmoveto
          189 -283 -8 104 vvcurveto
          35 32 36 56 39 52 -19 -33 46 vhcurveto
          20 8 22 117 rlineto
          25 -61 -57 8 -45 hhcurveto
          -141 -96 -86 -113 hvcurveto
          hintmask 11011010
          -190 282 14 -110 vvcurveto
          -37 -31 -36 -62 -46 -70 23 49 -56 vhcurveto
          -15 -8 -19 -126 rlineto
          hintmask 10111100
          58 -25 61 -14 57 -2 -15 -66 rcurveline
          49 -28 rlineto
          10 -5 7 -5 -10 vvcurveto
          -14 -9 -7 -15 -20 -20 11 19 -19 vhcurveto
          -6 -3 -9 -56 rlineto
          -16 21 26 -12 35 hhcurveto
          57 37 31 44 23 -10 19 -31 17 hvcurveto
          -34 19 10 43 rlineto
          hintmask 10111010
          119 17 74 81 97 vvcurveto
          endchar
        </CharString>
        <CharString name="Scircumflex">
          -50 -9 103 452 106 hstem
          48 133 149 134 vstem
          140 705 rmoveto
          13 hlineto
          41 33 37 31 30 28 30 -28 37 -31 42 -33 rrcurveto
          13 hlineto
          33 51 -49 44 -48 50 -43 47 rlinecurve
          -29 hlineto
          -49 -52 -48 -49 -44 -40 rrcurveto
          179 -104 rmoveto
          -141 -96 -86 -113 hvcurveto
          -190 282 14 -110 vvcurveto
          -37 -31 -36 -62 -46 -70 23 49 -56 vhcurveto
          -15 -8 -19 -126 rlineto
          -27 63 67 -14 61 hhcurveto
          147 95 89 110 hvcurveto
          189 -283 -8 104 vvcurveto
          35 32 36 56 39 52 -19 -33 46 vhcurveto
          20 8 22 117 rlineto
          25 -61 -57 8 -45 hhcurveto
          endchar
        </CharString>
        <CharString name="Scommaaccent">
          -50 -66 -21 78 103 452 106 hstemhm
          48 133 36 98 15 134 hintmask 11110100
          285 652 rmoveto
          -141 -96 -86 -113 hvcurveto
          -190 282 14 -110 vvcurveto
          -37 -31 -36 -62 -46 -70 23 49 -56 vhcurveto
          -15 -8 -19 -126 rlineto
          -27 63 67 -14 61 hhcurveto
          147 95 89 110 hvcurveto
          189 -283 -8 104 vvcurveto
          35 32 36 56 39 52 -19 -33 46 vhcurveto
          20 8 22 117 rlineto
          25 -61 -57 8 -45 hhcurveto
          hintmask 11111100
          -10 -692 rmoveto
          -31 -8 -28 -13 -27 -16 rrcurveto
          -10 vlineto
          19 -16 9 -17 -21 vvcurveto
          -32 -16 -28 -34 -28 vhcurveto
          1 -9 39 -34 rlineto
          73 52 35 50 54 vvcurveto
          30 -13 25 -27 21 vhcurveto
          endchar
        </CharString>
        <CharString name="T">
          -45 21 -21 538 106 -11 11 hstemhm
          189.5 128 hintmask 00000000
          hintmask 10110000
          489 633 rmoveto
          -8 11 rlineto
          hintmask 11010000
          -457 hlineto
          -9 -101 9 -11 123 6 rlineto
          40 hlineto
          5 -346 -7 -192 rlineto
          136 hlineto
          -6 204 5 334 rlineto
          40 hlineto
          121 -6 rlineto
          endchar
        </CharString>
        <CharString name="Tbar">
          -45 21 -21 267 74 197 106 -11 11 hstemhm
          189 130 hintmask 11101000
          321 538 rmoveto
          38 hlineto
          122 -6 rlineto
          hintmask 11011000
          8 101 -8 11 rlineto
          hintmask 11101000
          -457 hlineto
          -9 -101 9 -11 122 6 rlineto
          41 hlineto
          4 -197 rlineto
          -93 hlineto
          -5 -65 9 -9 rlineto
          90 hlineto
          1 -75 -8 -192 rlineto
          136 hlineto
          -6 204 1 63 rlineto
          102 hlineto
          6 65 -9 9 rlineto
          -98 hlineto
          endchar
        </CharString>
        <CharString name="Tcaron">
          -45 21 -21 538 106 -11 11 hstemhm
          190 128 hintmask 11010000
          269 703 rmoveto
          49 52 48 49 44 40 -34 51 rcurveline
          -13 hlineto
          -41 -33 -37 -31 -30 -28 -30 28 -37 31 -42 33 rrcurveto
          -13 hlineto
          -33 -51 49 -44 48 -50 43 -47 rlinecurve
          hintmask 10110000
          249 -70 rmoveto
          -8 11 rlineto
          hintmask 11010000
          -457 hlineto
          -9 -101 9 -11 122 6 rlineto
          41 hlineto
          6 -346 -8 -192 rlineto
          136 hlineto
          -6 204 6 334 rlineto
          38 hlineto
          122 -6 rlineto
          endchar
        </CharString>
        <CharString name="Tcedilla">
          -45 -201 57 165 -21 538 106 -11 11 hstemhm
          190 128 -51 78 hintmask 00000000
          hintmask 11011000
          489 633 rmoveto
          -8 11 rlineto
          hintmask 11101000
          -457 hlineto
          -9 -101 9 -11 122 6 rlineto
          41 hlineto
          6 -346 -8 -192 rlineto
          hintmask 11100100
          33 hlineto
          -17 -75 49 -28 rlineto
          10 -5 7 -5 -10 vvcurveto
          -14 -9 -7 -15 -20 -20 11 19 -19 vhcurveto
          -6 -3 -9 -56 rlineto
          -16 21 26 -12 35 hhcurveto
          57 37 31 44 23 -10 19 -31 17 hvcurveto
          hintmask 11101000
          -34 19 12 48 rlineto
          39 hlineto
          -6 204 6 334 rlineto
          38 hlineto
          122 -6 rlineto
          endchar
        </CharString>
        <CharString name="Tcommaaccent">
          -45 -66 -21 108 -21 538 106 -11 11 hstemhm
          190 128 -92 98 hintmask 00000000
          hintmask 11011000
          489 633 rmoveto
          -8 11 rlineto
          hintmask 11101000
          -457 hlineto
          -9 -101 9 -11 122 6 rlineto
          41 hlineto
          6 -346 -8 -192 rlineto
          136 hlineto
          -6 204 6 334 rlineto
          38 hlineto
          122 -6 rlineto
          hintmask 11100100
          -197 -572 rmoveto
          -31 -8 -28 -13 -27 -16 rrcurveto
          -10 vlineto
          19 -16 9 -17 -21 vvcurveto
          -32 -16 -28 -34 -28 vhcurveto
          1 -9 39 -34 rlineto
          73 52 35 50 54 vvcurveto
          30 -13 25 -27 21 vhcurveto
          endchar
        </CharString>
        <CharString name="Thorn">
          13 21 -21 108 102 231.5 101.5 101 -20 hstem
          82.5 129.5 185 143 vstem
          215 543 rmoveto
          2 101 rlineto
          -139 hlineto
          2 -102 5 -350 -7 -192 rlineto
          137 hlineto
          -3 107 64 1 rlineto
          170 94 87 150 131 -75 67 -136 hvcurveto
          -119 -331 rmoveto
          4 228 72 3 rlineto
          75 -3 36 -31 -74 vvcurveto
          -73 -34 -38 -59 -16 vhcurveto
          endchar
        </CharString>
        <CharString name="U">
          90 -9 111 542 -20 hstem
          62.5 131 250 132 vstem
          573 317 rmoveto
          5 327 rlineto
          -138 hlineto
          7 -406 rlineto
          -92 1 -43 -44 -87 hhcurveto
          -87 -42 46 97 1 hvcurveto
          7 399 rlineto
          -136 hlineto
          3 -324 -1 -93 rlineto
          -152 -4 89 -84 162 hhcurveto
          169 95 87 154 -2 hvcurveto
          endchar
        </CharString>
        <CharString name="Uacute">
          90 -9 111 542 -20 hstem
          62.5 131 249.5 132 vstem
          436 886 rmoveto
          -12 3 -69 -41 -66 -35 -73 -37 rlinecurve
          22 -55 13 -4 70 24 68 24 77 30 rlinecurve
          4 12 rlineto
          103 -490 rmoveto
          4 327 rlineto
          -137 hlineto
          6 -406 rlineto
          -92 1 -43 -44 -86 hhcurveto
          -87 -42 46 97 1 hvcurveto
          7 399 rlineto
          -136 hlineto
          3 -324 -2 -93 rlineto
          -152 -3 89 -84 162 hhcurveto
          169 95 87 154 -2 hvcurveto
          endchar
        </CharString>
        <CharString name="Ubreve">
          90 -9 111 542 -20 85 94 hstem
          62.5 131 249.5 132 vstem
          441 879 rmoveto
          -19 hlineto
          -51 -15 -36 -25 -49 hhcurveto
          -48 -37 25 51 -16 hvcurveto
          -19 hlineto
          -31 -45 rlineto
          -67 17 44 -58 86 hhcurveto
          87 48 55 70 19 hvcurveto
          101 -517 rmoveto
          4 327 rlineto
          -137 hlineto
          6 -406 rlineto
          -92 1 -43 -44 -86 hhcurveto
          -87 -42 46 97 1 hvcurveto
          7 399 rlineto
          -136 hlineto
          3 -324 -2 -93 rlineto
          -152 -3 89 -84 162 hhcurveto
          169 95 87 154 -2 hvcurveto
          endchar
        </CharString>
        <CharString name="Ucaron">
          90 -9 111 542 -20 hstem
          62.5 131 249.5 132 vstem
          442 895 rmoveto
          -13 hlineto
          -41 -33 -37 -31 -30 -28 -30 28 -37 31 -42 33 rrcurveto
          -13 hlineto
          -33 -51 49 -44 48 -50 43 -47 rlinecurve
          29 hlineto
          49 52 48 49 44 40 rrcurveto
          97 -527 rmoveto
          4 327 rlineto
          -137 hlineto
          6 -406 rlineto
          -92 1 -43 -44 -86 hhcurveto
          -87 -42 46 97 1 hvcurveto
          7 399 rlineto
          -136 hlineto
          3 -324 -2 -93 rlineto
          -152 -3 89 -84 162 hhcurveto
          169 95 87 154 -2 hvcurveto
          endchar
        </CharString>
        <CharString name="Ucircumflex">
          90 -9 111 542 -20 hstem
          62.5 131 249.5 132 vstem
          198 728 rmoveto
          13 hlineto
          37 21 37 20 36 22 36 -22 37 -20 37 -21 rrcurveto
          13 hlineto
          24 53 -48 33 -45 35 -41 36 rlinecurve
          -27 hlineto
          -40 -36 -44 -35 -50 -33 rrcurveto
          400 -464 rmoveto
          4 327 rlineto
          -137 hlineto
          6 -406 rlineto
          -92 1 -43 -44 -86 hhcurveto
          -87 -42 46 97 1 hvcurveto
          7 399 rlineto
          -136 hlineto
          3 -324 -2 -93 rlineto
          -152 -3 89 -84 162 hhcurveto
          169 95 87 154 -2 hvcurveto
          endchar
        </CharString>
        <CharString name="Udieresis">
          90 -9 111 542 -20 108 130 hstemhm
          62.5 131 -21.5 127 47 127 -30 132 hintmask 00000000
          hintmask 11101100
          238 862 rmoveto
          -41 -25 -26 -41 -40 22 -23 39 41 25 26 42 39 -22 23 -39 hvcurveto
          174 hmoveto
          -41 -25 -26 -41 -40 22 -23 39 41 25 26 42 39 -22 23 -39 hvcurveto
          hintmask 11110010
          161 -545 rmoveto
          4 327 rlineto
          -137 hlineto
          6 -406 rlineto
          -92 1 -43 -44 -86 hhcurveto
          -87 -42 46 97 1 hvcurveto
          7 399 rlineto
          -136 hlineto
          3 -324 -2 -93 rlineto
          -152 -3 89 -84 162 hhcurveto
          169 95 87 154 -2 hvcurveto
          endchar
        </CharString>
        <CharString name="Udieresisacute">
          90 -9 111 542 -20 90 125 hstemhm
          62.5 131 -21.5 122 52 122 -25 132 hintmask 11110010
          425 1019 rmoveto
          -12 6 -75 -29 -71 -23 -77 -23 rlinecurve
          11 -59 12 -5 74 10 71 13 80 15 rlinecurve
          7 12 rlineto
          hintmask 11101100
          -209 -97 rmoveto
          -40 -24 -25 -39 -39 21 -22 38 39 24 26 39 38 -21 22 -37 hvcurveto
          174 hmoveto
          -40 -24 -25 -39 -39 21 -22 38 39 24 26 39 38 -21 22 -37 hvcurveto
          hintmask 11110010
          163 -522 rmoveto
          4 327 rlineto
          -137 hlineto
          6 -406 rlineto
          -92 1 -43 -44 -86 hhcurveto
          -87 -42 46 97 1 hvcurveto
          7 399 rlineto
          -136 hlineto
          3 -324 -2 -93 rlineto
          -152 -3 89 -84 162 hhcurveto
          169 95 87 154 -2 hvcurveto
          endchar
        </CharString>
        <CharString name="Udieresiscaron">
          90 -9 111 542 -20 90 125 hstemhm
          62.5 131 -21.5 122 52 122 -25 132 hintmask 11110010
          443 1010 rmoveto
          -13 hlineto
          -37 -21 -37 -21 -36 -21 -36 21 -37 21 -37 21 rrcurveto
          -13 hlineto
          -24 -53 48 -34 45 -35 41 -35 rlinecurve
          27 hlineto
          40 35 44 35 50 34 rrcurveto
          hintmask 11101100
          -232 -118 rmoveto
          -40 -24 -25 -39 -39 21 -22 38 39 24 26 39 38 -21 22 -37 hvcurveto
          174 hmoveto
          -40 -24 -25 -39 -39 21 -22 38 39 24 26 39 38 -21 22 -37 hvcurveto
          hintmask 11110010
          163 -522 rmoveto
          4 327 rlineto
          -137 hlineto
          6 -406 rlineto
          -92 1 -43 -44 -86 hhcurveto
          -87 -42 46 97 1 hvcurveto
          7 399 rlineto
          -136 hlineto
          3 -324 -2 -93 rlineto
          -152 -3 89 -84 162 hhcurveto
          169 95 87 154 -2 hvcurveto
          endchar
        </CharString>
        <CharString name="Udieresisgrave">
          90 -9 111 542 -20 90 125 hstemhm
          62.5 131 -21.5 122 52 122 -25 132 hintmask 11110010
          209 1019 rmoveto
          -19 -83 6 -12 80 -15 72 -13 73 -10 rlinecurve
          12 5 12 59 -78 23 -71 23 -75 29 rlinecurve
          hintmask 11101100
          15 -186 rmoveto
          -40 -24 -25 -39 -39 21 -22 38 39 24 26 39 38 -21 22 -37 hvcurveto
          174 hmoveto
          -40 -24 -25 -39 -39 21 -22 38 39 24 26 39 38 -21 22 -37 hvcurveto
          hintmask 11110010
          163 -522 rmoveto
          4 327 rlineto
          -137 hlineto
          6 -406 rlineto
          -92 1 -43 -44 -86 hhcurveto
          -87 -42 46 97 1 hvcurveto
          7 399 rlineto
          -136 hlineto
          3 -324 -2 -93 rlineto
          -152 -3 89 -84 162 hhcurveto
          169 95 87 154 -2 hvcurveto
          endchar
        </CharString>
        <CharString name="Udieresismacron">
          90 -9 111 542 -20 90 125 57 85 hstemhm
          62.5 131 -21.5 122 52 122 -25 132 hintmask 11111001
          469 971 rmoveto
          -9 10 rlineto
          -280 hlineto
          -7 -75 10 -10 rlineto
          279 hlineto
          hintmask 11110110
          -226 -57 rmoveto
          -40 -24 -25 -39 -39 21 -22 38 39 24 26 39 38 -21 22 -37 hvcurveto
          174 hmoveto
          -40 -24 -25 -39 -39 21 -22 38 39 24 26 39 38 -21 22 -37 hvcurveto
          hintmask 11111001
          163 -522 rmoveto
          4 327 rlineto
          -137 hlineto
          6 -406 rlineto
          -92 1 -43 -44 -86 hhcurveto
          -87 -42 46 97 1 hvcurveto
          7 399 rlineto
          -136 hlineto
          3 -324 -2 -93 rlineto
          -152 -3 89 -84 162 hhcurveto
          169 95 87 154 -2 hvcurveto
          endchar
        </CharString>
        <CharString name="Udotbelow">
          90 -194 142 43 111 542 -20 hstem
          62.5 131 52.5 139 58 132 vstem
          573 317 rmoveto
          4 327 rlineto
          -137 hlineto
          6 -406 rlineto
          -92 1 -43 -44 -86 hhcurveto
          -87 -42 46 97 1 hvcurveto
          7 399 rlineto
          -136 hlineto
          3 -324 -2 -93 rlineto
          -152 -3 89 -84 162 hhcurveto
          169 95 87 154 -2 hvcurveto
          -253 -284 rmoveto
          -45 -28 -29 -44 -44 24 -25 44 44 27 29 45 43 -24 25 -42 hvcurveto
          endchar
        </CharString>
        <CharString name="Ugrave">
          90 -9 111 542 -20 hstem
          62.5 131 249.5 132 vstem
          230 887 rmoveto
          -34 -79 4 -12 77 -30 68 -24 70 -24 rlinecurve
          13 4 22 55 -73 37 -66 35 -69 41 rlinecurve
          331 -573 rmoveto
          4 327 rlineto
          -137 hlineto
          6 -406 rlineto
          -92 1 -43 -44 -86 hhcurveto
          -87 -42 46 97 1 hvcurveto
          7 399 rlineto
          -136 hlineto
          3 -324 -2 -93 rlineto
          -152 -3 89 -84 162 hhcurveto
          169 95 87 154 -2 hvcurveto
          endchar
        </CharString>
        <CharString name="Uhookabove">
          90 -9 111 542 -20 233 62 hstem
          62.5 131 127.5 71 51 132 vstem
          312 919 rmoveto
          -37 -38 -20 -31 -30 hvcurveto
          22 -36 rlineto
          16 20 25 9 19 hhcurveto
          16 12 -7 -15 -19 -19 -28 -33 -24 hvcurveto
          42 -66 49 28 -23 39 rlineto
          40 35 15 21 27 vvcurveto
          41 -35 30 -45 vhcurveto
          261 -602 rmoveto
          4 327 rlineto
          -137 hlineto
          6 -406 rlineto
          -92 1 -43 -44 -86 hhcurveto
          -87 -42 46 97 1 hvcurveto
          7 399 rlineto
          -136 hlineto
          3 -324 -2 -93 rlineto
          -152 -3 89 -84 162 hhcurveto
          169 95 87 154 -2 hvcurveto
          endchar
        </CharString>
        <CharString name="Uhorn">
          100 -9 111 542 -20 hstemhm
          62.5 131 249.5 131.5 -8.5 103 hintmask 00000000
          hintmask 11101000
          669 705 rmoveto
          48 -33 36 -35 -21 -23 -11 -15 -20 vhcurveto
          -3 -10 rlineto
          22 -19 10 -19 -22 vvcurveto
          -33 -20 -16 -42 vhcurveto
          hintmask 11110000
          -64 hlineto
          6 -406 rlineto
          -92 1 -43 -44 -86 hhcurveto
          -87 -42 46 97 1 hvcurveto
          7 399 rlineto
          -136 hlineto
          3 -324 -2 -93 rlineto
          -152 -3 89 -84 162 hhcurveto
          169 95 87 154 -2 hvcurveto
          1 85 3 273 rlineto
          hintmask 11101000
          57 21 36 43 51 vvcurveto
          endchar
        </CharString>
        <CharString name="Uhornacute">
          100 -9 111 542 -20 hstemhm
          62.5 131 249.5 131.5 -8.5 103 hintmask 11110000
          238 721 rmoveto
          13 -4 70 24 68 24 77 30 rlinecurve
          4 12 -34 79 -12 3 -69 -41 -66 -35 -73 -37 rlinecurve
          hintmask 11101000
          453 -71 rmoveto
          48 -33 36 -35 -21 -23 -11 -15 -20 vhcurveto
          -3 -10 rlineto
          22 -19 10 -19 -22 vvcurveto
          -33 -20 -16 -42 vhcurveto
          hintmask 11110000
          -64 hlineto
          6 -406 rlineto
          -92 1 -43 -44 -86 hhcurveto
          -87 -42 46 97 1 hvcurveto
          7 399 rlineto
          -136 hlineto
          3 -324 -2 -93 rlineto
          -152 -3 89 -84 162 hhcurveto
          169 95 87 154 -2 hvcurveto
          1 85 3 273 rlineto
          hintmask 11101000
          57 21 36 43 51 vvcurveto
          endchar
        </CharString>
        <CharString name="Uhorndotbelow">
          100 -194 142 43 111 542 -20 hstemhm
          62.5 131 54.5 139 56 131.5 -8.5 103 hintmask 00000000
          hintmask 11110010
          669 705 rmoveto
          48 -33 36 -35 -21 -23 -11 -15 -20 vhcurveto
          -3 -10 rlineto
          22 -19 10 -19 -22 vvcurveto
          -33 -20 -16 -42 vhcurveto
          hintmask 11110100
          -64 hlineto
          6 -406 rlineto
          -92 1 -43 -44 -86 hhcurveto
          -87 -42 46 97 1 hvcurveto
          7 399 rlineto
          -136 hlineto
          3 -324 -2 -93 rlineto
          -152 -3 89 -84 162 hhcurveto
          169 95 87 154 -2 hvcurveto
          1 85 3 273 rlineto
          hintmask 11110010
          57 21 36 43 51 vvcurveto
          hintmask 11111100
          -348 -757 rmoveto
          -45 -28 -29 -44 -44 24 -25 44 44 27 29 45 43 -24 25 -42 hvcurveto
          endchar
        </CharString>
        <CharString name="Uhorngrave">
          100 -9 111 542 -20 hstemhm
          62.5 131 249.5 131.5 -8.5 103 hintmask 11110000
          428 722 rmoveto
          22 55 -73 37 -66 35 -69 41 rlinecurve
          -12 -3 -34 -79 4 -12 77 -30 68 -24 70 -24 rlinecurve
          hintmask 11101000
          254 -13 rmoveto
          48 -33 36 -35 -21 -23 -11 -15 -20 vhcurveto
          -3 -10 rlineto
          22 -19 10 -19 -22 vvcurveto
          -33 -20 -16 -42 vhcurveto
          hintmask 11110000
          -64 hlineto
          6 -406 rlineto
          -92 1 -43 -44 -86 hhcurveto
          -87 -42 46 97 1 hvcurveto
          7 399 rlineto
          -136 hlineto
          3 -324 -2 -93 rlineto
          -152 -3 89 -84 162 hhcurveto
          169 95 87 154 -2 hvcurveto
          1 85 3 273 rlineto
          hintmask 11101000
          57 21 36 43 51 vvcurveto
          endchar
        </CharString>
        <CharString name="Uhornhookabove">
          100 -9 111 542 -20 234 62 hstemhm
          62.5 131 127.5 71 51 131.5 -8.5 103 hintmask 11111100
          293 858 rmoveto
          16 12 -7 -15 -19 -19 -28 -33 -24 hvcurveto
          42 -66 49 28 -23 39 rlineto
          40 35 15 21 27 vvcurveto
          41 -35 30 -45 -37 -38 -20 -31 -30 vhcurveto
          22 -36 rlineto
          16 20 25 9 19 hhcurveto
          hintmask 11111010
          376 -153 rmoveto
          48 -33 36 -35 -21 -23 -11 -15 -20 vhcurveto
          -3 -10 rlineto
          22 -19 10 -19 -22 vvcurveto
          -33 -20 -16 -42 vhcurveto
          hintmask 11111100
          -64 hlineto
          6 -406 rlineto
          -92 1 -43 -44 -86 hhcurveto
          -87 -42 46 97 1 hvcurveto
          7 399 rlineto
          -136 hlineto
          3 -324 -2 -93 rlineto
          -152 -3 89 -84 162 hhcurveto
          169 95 87 154 -2 hvcurveto
          1 85 3 273 rlineto
          hintmask 11111010
          57 21 36 43 51 vvcurveto
          endchar
        </CharString>
        <CharString name="Uhorntilde">
          100 -9 111 542 -20 hstemhm
          62.5 131 249.5 131.5 -8.5 103 hintmask 11110000
          184 720 rmoveto
          12 hlineto
          26 24 18 25 20 hhcurveto
          26 82 -29 -6 46 hvcurveto
          13 5 70 89 rlineto
          11 vlineto
          -39 39 rlineto
          -12 hlineto
          -27 -24 -18 -24 -21 hhcurveto
          -25 -82 29 6 -47 hvcurveto
          -12 -5 -71 -89 rlineto
          -11 vlineto
          hintmask 11101000
          525 -54 rmoveto
          48 -33 36 -35 -21 -23 -11 -15 -20 vhcurveto
          -3 -10 rlineto
          22 -19 10 -19 -22 vvcurveto
          -33 -20 -16 -42 vhcurveto
          hintmask 11110000
          -64 hlineto
          6 -406 rlineto
          -92 1 -43 -44 -86 hhcurveto
          -87 -42 46 97 1 hvcurveto
          7 399 rlineto
          -136 hlineto
          3 -324 -2 -93 rlineto
          -152 -3 89 -84 162 hhcurveto
          169 95 87 154 -2 hvcurveto
          1 85 3 273 rlineto
          hintmask 11101000
          57 21 36 43 51 vvcurveto
          endchar
        </CharString>
        <CharString name="Uhungarumlaut">
          90 -9 111 542 -20 hstem
          62.5 131 249.5 132 vstem
          219 715 rmoveto
          12 3 43 38 41 38 40 40 rlinecurve
          -1 11 -61 40 -11 -2 -33 -46 -36 -43 -36 -45 rlinecurve
          197 -34 rmoveto
          11 3 43 38 41 38 41 40 rlinecurve
          -1 11 -62 40 -10 -2 -34 -46 -35 -43 -36 -45 rlinecurve
          241 -432 rmoveto
          4 327 rlineto
          -137 hlineto
          6 -406 rlineto
          -92 1 -43 -44 -86 hhcurveto
          -87 -42 46 97 1 hvcurveto
          7 399 rlineto
          -136 hlineto
          3 -324 -2 -93 rlineto
          -152 -3 89 -84 162 hhcurveto
          169 95 87 154 -2 hvcurveto
          endchar
        </CharString>
        <CharString name="Umacron">
          90 -9 111 542 -20 132 83 hstem
          62.5 131 249.5 132 vstem
          468 830 rmoveto
          -8 9 rlineto
          -280 hlineto
          -7 -74 9 -9 rlineto
          280 hlineto
          111 -439 rmoveto
          4 327 rlineto
          -137 hlineto
          6 -406 rlineto
          -92 1 -43 -44 -86 hhcurveto
          -87 -42 46 97 1 hvcurveto
          7 399 rlineto
          -136 hlineto
          3 -324 -2 -93 rlineto
          -152 -3 89 -84 162 hhcurveto
          169 95 87 154 -2 hvcurveto
          endchar
        </CharString>
        <CharString name="Uogonek">
          90 -197 74 114 111 542 -20 hstemhm
          62.5 131 157.5 72 20 132 hintmask 11110100
          573 317 rmoveto
          4 327 rlineto
          -137 hlineto
          6 -406 rlineto
          -92 1 -43 -44 -86 hhcurveto
          -87 -42 46 97 1 hvcurveto
          7 399 rlineto
          -136 hlineto
          3 -324 -2 -93 rlineto
          -152 -3 89 -84 162 hhcurveto
          hintmask 11111100
          33 30 3 7 27 hvcurveto
          -22 -33 rlineto
          -19 -27 -8 -26 -24 vvcurveto
          -51 34 -37 56 36 32 17 33 37 vhcurveto
          -12 54 rlineto
          -8 hlineto
          -20 -22 -24 -10 -21 hhcurveto
          -25 -11 14 19 14 6 18 11 16 hvcurveto
          hintmask 11110100
          54 86 52 41 27 64 -1 83 rlinecurve
          endchar
        </CharString>
        <CharString name="Uring">
          90 -9 111 542 -20 90 55 77 57 hstemhm
          62.5 131 30.5 55 82 55 27 132 hintmask 00000000
          hintmask 11111111
          322 903 rmoveto
          -63 -35 -35 -60 -62 36 -32 57 60 39 35 63 56 -32 35 -62 hvcurveto
          -3 -57 rmoveto
          29 13 -14 -25 -26 -15 -12 -26 -26 -15 13 27 25 13 12 27 hvcurveto
          hintmask 11111101
          254 -529 rmoveto
          4 327 rlineto
          -137 hlineto
          6 -406 rlineto
          -92 1 -43 -44 -86 hhcurveto
          -87 -42 46 97 1 hvcurveto
          7 399 rlineto
          -136 hlineto
          3 -324 -2 -93 rlineto
          -152 -3 89 -84 162 hhcurveto
          169 95 87 154 -2 hvcurveto
          endchar
        </CharString>
        <CharString name="Utilde">
          90 -9 111 542 -20 hstem
          62.5 131 249.5 132 vstem
          495 841 rmoveto
          -39 39 rlineto
          -12 hlineto
          -27 -24 -18 -24 -21 hhcurveto
          -25 -82 29 6 -47 hvcurveto
          -12 -5 -71 -89 rlineto
          -11 vlineto
          40 -39 rlineto
          12 hlineto
          26 24 18 25 20 hhcurveto
          26 82 -29 -6 46 hvcurveto
          13 5 70 89 rlineto
          78 -513 rmoveto
          4 327 rlineto
          -137 hlineto
          6 -406 rlineto
          -92 1 -43 -44 -86 hhcurveto
          -87 -42 46 97 1 hvcurveto
          7 399 rlineto
          -136 hlineto
          3 -324 -2 -93 rlineto
          -152 -3 89 -84 162 hhcurveto
          169 95 87 154 -2 hvcurveto
          endchar
        </CharString>
        <CharString name="V">
          39 0 126 518 -20 hstem
          10 576 vstem
          369 hmoveto
          217 644 rlineto
          -134 hlineto
          -17 -92 -140 -426 rlineto
          -9 hlineto
          -122 433 -16 85 rlineto
          -138 hlineto
          197 -644 rlineto
          endchar
        </CharString>
        <CharString name="V.ss01">
          -29 0 49 -49 120 336 49 hstemhm
          -100 719 hintmask 10110000
          485 456 rmoveto
          134 49 -719 -49 141 hlineto
          129 -407 rlineto
          -270 -49 719 49 -276 hlineto
          29 407 rmoveto
          -6 -38 rlineto
          hintmask 01110000
          -104 -298 rlineto
          -7 hlineto
          -90 305 -6 31 rlineto
          endchar
        </CharString>
        <CharString name="W">
          355 0 140 504 -20 hstem
          19 879 vstem
          686 hmoveto
          212 644 rlineto
          -126 hlineto
          -16 -88 -130 -416 rlineto
          -9 hlineto
          -116 411 -15 93 rlineto
          -138 hlineto
          46 -157 -109 -347 rlineto
          -9 hlineto
          -114 425 -10 79 rlineto
          -133 hlineto
          180 -644 rlineto
          143 hlineto
          97 308 rlineto
          9 hlineto
          96 -308 rlineto
          endchar
        </CharString>
        <CharString name="Wacute">
          355 0 140 504 -20 hstem
          19 879 vstem
          560 886 rmoveto
          -12 3 -69 -41 -66 -35 -73 -37 rlinecurve
          22 -55 13 -4 70 24 68 24 77 30 rlinecurve
          4 12 rlineto
          92 -807 rmoveto
          212 644 rlineto
          -126 hlineto
          -16 -88 -130 -416 rlineto
          -9 hlineto
          -116 411 -15 93 rlineto
          -138 hlineto
          45 -157 -109 -347 rlineto
          -9 hlineto
          -113 425 -11 79 rlineto
          -132 hlineto
          180 -644 rlineto
          143 hlineto
          97 308 rlineto
          9 hlineto
          96 -308 rlineto
          endchar
        </CharString>
        <CharString name="Wcircumflex">
          355 0 140 504 -20 hstem
          19 879 vstem
          322 728 rmoveto
          13 hlineto
          37 21 37 20 36 22 36 -22 37 -20 37 -21 rrcurveto
          13 hlineto
          24 53 -48 33 -45 35 -41 36 rlinecurve
          -27 hlineto
          -40 -36 -44 -35 -50 -33 rrcurveto
          389 -781 rmoveto
          212 644 rlineto
          -126 hlineto
          -16 -88 -130 -416 rlineto
          -9 hlineto
          -116 411 -15 93 rlineto
          -138 hlineto
          45 -157 -109 -347 rlineto
          -9 hlineto
          -113 425 -11 79 rlineto
          -132 hlineto
          180 -644 rlineto
          143 hlineto
          97 308 rlineto
          9 hlineto
          96 -308 rlineto
          endchar
        </CharString>
        <CharString name="Wdieresis">
          355 0 140 504 -20 108 130 hstem
          296 127 47 127 vstem
          362 862 rmoveto
          -41 -25 -26 -41 -40 22 -23 39 41 25 26 42 39 -22 23 -39 hvcurveto
          174 hmoveto
          -41 -25 -26 -41 -40 22 -23 39 41 25 26 42 39 -22 23 -39 hvcurveto
          150 -862 rmoveto
          212 644 rlineto
          -126 hlineto
          -16 -88 -130 -416 rlineto
          -9 hlineto
          -116 411 -15 93 rlineto
          -138 hlineto
          45 -157 -109 -347 rlineto
          -9 hlineto
          -113 425 -11 79 rlineto
          -132 hlineto
          180 -644 rlineto
          143 hlineto
          97 308 rlineto
          9 hlineto
          96 -308 rlineto
          endchar
        </CharString>
        <CharString name="Wgrave">
          355 0 140 504 -20 hstem
          19 879 vstem
          354 887 rmoveto
          -34 -79 4 -12 77 -30 68 -24 70 -24 rlinecurve
          13 4 22 55 -73 37 -66 35 -69 41 rlinecurve
          320 -890 rmoveto
          212 644 rlineto
          -126 hlineto
          -16 -88 -130 -416 rlineto
          -9 hlineto
          -116 411 -15 93 rlineto
          -138 hlineto
          45 -157 -109 -347 rlineto
          -9 hlineto
          -113 425 -11 79 rlineto
          -132 hlineto
          180 -644 rlineto
          143 hlineto
          97 308 rlineto
          9 hlineto
          96 -308 rlineto
          endchar
        </CharString>
        <CharString name="X">
          62 21 -21 644 -20 hstem
          13 585 vstem
          390 337 rmoveto
          194 307 rlineto
          -143 hlineto
          -28 -60 -104 -162 -101 157 -30 65 rlineto
          -163 hlineto
          204 -326 -206 -318 rlineto
          140 hlineto
          29 57 116 174 107 -167 30 -64 rlineto
          163 hlineto
          endchar
        </CharString>
        <CharString name="X.ss01">
          -12 0 49 407 49 hstem
          -100 736 vstem
          345 266 rmoveto
          128 190 rlineto
          163 49 -736 -49 162 hlineto
          137 -207 -138 -200 rlineto
          -161 -49 736 49 -151 hlineto
          -279 384 rmoveto
          -10 23 rlineto
          160 hlineto
          -8 -17 -72 -103 rlineto
          63 -261 rmoveto
          12 -26 rlineto
          -176 hlineto
          10 20 81 107 rlineto
          endchar
        </CharString>
        <CharString name="Y">
          10 21 -21 644 -20 hstem
          207 129 vstem
          333 179 rmoveto
          2 40 226 425 rlineto
          -140 hlineto
          -19 -49 -121 -241 rlineto
          -10 hlineto
          -109 245 -14 45 rlineto
          -144 hlineto
          205 -427 2 -38 -8 -179 rlineto
          136 hlineto
          endchar
        </CharString>
        <CharString name="Yacute">
          10 21 -21 644 -20 hstem
          207 129 vstem
          193 721 rmoveto
          13 -4 70 24 68 24 77 30 rlinecurve
          4 12 -34 79 -12 3 -69 -41 -66 -35 -73 -37 rlinecurve
          162 -597 rmoveto
          2 40 225 425 rlineto
          -140 hlineto
          -18 -49 -122 -241 rlineto
          -9 hlineto
          -109 245 -15 45 rlineto
          -143 hlineto
          206 -429 1 -36 -8 -179 rlineto
          136 hlineto
          endchar
        </CharString>
        <CharString name="Ycircumflex">
          10 21 -21 644 -20 hstem
          207 129 vstem
          154 728 rmoveto
          13 hlineto
          37 21 37 20 36 22 36 -22 37 -20 37 -21 rrcurveto
          13 hlineto
          24 53 -48 33 -45 35 -41 36 rlinecurve
          -27 hlineto
          -40 -36 -44 -35 -50 -33 rrcurveto
          204 -602 rmoveto
          2 40 225 425 rlineto
          -140 hlineto
          -18 -49 -122 -241 rlineto
          -9 hlineto
          -109 245 -15 45 rlineto
          -143 hlineto
          206 -429 1 -36 -8 -179 rlineto
          136 hlineto
          endchar
        </CharString>
        <CharString name="Ydieresis">
          10 21 -21 644 -20 108 130 hstemhm
          127 127 -47 129 -35 127 hintmask 00000000
          hintmask 11110100
          188 732 rmoveto
          41 25 26 42 39 -22 23 -39 -41 -25 -26 -41 -40 22 -23 39 hvcurveto
          174 hmoveto
          41 25 26 42 39 -22 23 -39 -41 -25 -26 -41 -40 22 -23 39 hvcurveto
          hintmask 11101000
          -29 -553 rmoveto
          2 40 225 425 rlineto
          -140 hlineto
          -18 -49 -122 -241 rlineto
          -9 hlineto
          -109 245 -15 45 rlineto
          -143 hlineto
          206 -429 1 -36 -8 -179 rlineto
          136 hlineto
          endchar
        </CharString>
        <CharString name="Ydotbelow">
          10 -194 142 73 -21 644 -20 hstemhm
          201 139 -133 129 hintmask 11101000
          210 215 rmoveto
          1 -36 -8 -179 rlineto
          136 hlineto
          -6 179 2 40 225 425 rlineto
          -140 hlineto
          -18 -49 -122 -241 rlineto
          -9 hlineto
          -109 245 -15 45 rlineto
          -143 hlineto
          hintmask 11110000
          270 -696 rmoveto
          -45 -28 -29 -44 -44 24 -25 44 44 27 29 45 43 -24 25 -42 hvcurveto
          endchar
        </CharString>
        <CharString name="Ygrave">
          10 21 -21 644 -20 hstem
          207 129 vstem
          383 722 rmoveto
          22 55 -73 37 -66 35 -69 41 rlinecurve
          -12 -3 -34 -79 4 -12 77 -30 68 -24 70 -24 rlinecurve
          -37 -539 rmoveto
          2 40 225 425 rlineto
          -140 hlineto
          -18 -49 -122 -241 rlineto
          -9 hlineto
          -109 245 -15 45 rlineto
          -143 hlineto
          206 -429 1 -36 -8 -179 rlineto
          136 hlineto
          endchar
        </CharString>
        <CharString name="Yhookabove">
          10 21 -21 644 -20 233 62 hstemhm
          207 129 -60 71 hintmask 00000000
          hintmask 11101000
          248 857 rmoveto
          16 12 -7 -15 -19 -19 -28 -33 -24 hvcurveto
          42 -66 49 28 -23 39 rlineto
          40 35 15 21 27 vvcurveto
          41 -35 30 -45 -37 -38 -20 -31 -30 vhcurveto
          22 -36 rlineto
          16 20 25 9 19 hhcurveto
          hintmask 11110000
          85 -678 rmoveto
          2 40 225 425 rlineto
          -140 hlineto
          -18 -49 -122 -241 rlineto
          -9 hlineto
          -109 245 -15 45 rlineto
          -143 hlineto
          206 -429 1 -36 -8 -179 rlineto
          136 hlineto
          endchar
        </CharString>
        <CharString name="Ytilde">
          10 21 -21 644 -20 hstem
          207 129 vstem
          140 720 rmoveto
          12 hlineto
          26 24 18 25 20 hhcurveto
          26 82 -29 -6 46 hvcurveto
          13 5 70 89 rlineto
          11 vlineto
          -39 39 rlineto
          -12 hlineto
          -27 -24 -18 -24 -21 hhcurveto
          -25 -82 29 6 -47 hvcurveto
          -12 -5 -71 -89 rlineto
          -11 vlineto
          233 -580 rmoveto
          2 40 225 425 rlineto
          -140 hlineto
          -18 -49 -122 -241 rlineto
          -9 hlineto
          -109 245 -15 45 rlineto
          -143 hlineto
          206 -429 1 -36 -8 -179 rlineto
          136 hlineto
          endchar
        </CharString>
        <CharString name="Z">
          -1 0 103 -85 -21 543 105 hstemhm
          30 490 hintmask 10110000
          510 546 rmoveto
          99 vlineto
          -62 -1 -404 1 -10 -107 6 -7 109 9 rlineto
          204 hlineto
          hintmask 01110000
          -323 -447 rlineto
          -97 vlineto
          hintmask 10110000
          77 4 rlineto
          257 hlineto
          hintmask 01110000
          145 -3 rlineto
          hintmask 10110000
          11 107 -5 8 -109 -9 rlineto
          -216 hlineto
          endchar
        </CharString>
        <CharString name="Zacute">
          -1 0 103 -85 -21 543 105 hstemhm
          30 490 hintmask 10110000
          391 886 rmoveto
          -12 3 -69 -41 -66 -35 -73 -37 rlinecurve
          22 -55 13 -4 70 24 68 24 77 30 rlinecurve
          4 12 rlineto
          86 -261 rmoveto
          99 vlineto
          -62 -1 -404 1 -11 -107 6 -7 109 9 rlineto
          204 hlineto
          hintmask 01110000
          -323 -447 rlineto
          -97 vlineto
          hintmask 10110000
          77 4 rlineto
          257 hlineto
          hintmask 01110000
          146 -3 rlineto
          hintmask 10110000
          10 107 -4 8 -109 -9 rlineto
          -217 hlineto
          endchar
        </CharString>
        <CharString name="Zcaron">
          -1 0 103 -85 -21 543 105 hstemhm
          30 490 hintmask 10110000
          400 875 rmoveto
          -13 hlineto
          -37 -21 -37 -20 -36 -22 -36 22 -37 20 -37 21 rrcurveto
          -13 hlineto
          -24 -53 48 -33 45 -35 41 -36 rlinecurve
          27 hlineto
          40 36 44 35 50 33 rrcurveto
          86 -276 rmoveto
          99 vlineto
          -62 -1 -404 1 -11 -107 6 -7 109 9 rlineto
          204 hlineto
          hintmask 01110000
          -323 -447 rlineto
          -97 vlineto
          hintmask 10110000
          77 4 rlineto
          257 hlineto
          hintmask 01110000
          146 -3 rlineto
          hintmask 10110000
          10 107 -4 8 -109 -9 rlineto
          -217 hlineto
          endchar
        </CharString>
        <CharString name="Zdotaccent">
          -1 0 103 -85 -21 543 105 85 142 hstemhm
          207 139 hintmask 10111000
          280 872 rmoveto
          -45 -28 -29 -44 -44 24 -25 44 44 27 29 45 43 -24 25 -42 hvcurveto
          231 -326 rmoveto
          99 vlineto
          -62 -1 -404 1 -11 -107 6 -7 109 9 rlineto
          204 hlineto
          hintmask 01111000
          -323 -447 rlineto
          -97 vlineto
          hintmask 10111000
          77 4 rlineto
          257 hlineto
          hintmask 01111000
          146 -3 rlineto
          hintmask 10111000
          10 107 -4 8 -109 -9 rlineto
          -217 hlineto
          endchar
        </CharString>
        <CharString name="a">
          -19 21 -21 102.5 94 193.5 115 hstem
          17 487 vstem
          504 hmoveto
          -161 505 rlineto
          -149 hlineto
          -177 -505 rlineto
          123 hlineto
          15 80 7 21 90 2 102 -1 9 -29 14 -73 rlineto
          -50 197 rmoveto
          -67 -1 -65 1 67 193 rlineto
          8 hlineto
          endchar
        </CharString>
        <CharString name="a.sups">
          -208 324 71 185 72 hstem
          25 93 78.5 96.5 vstem
          176 652 rmoveto
          -45 -48 -14 -22 -39 hvcurveto
          11 -67 7 -3 rlineto
          23 40 30 11 26 hhcurveto
          28 12 -12 -28 hvcurveto
          -1 -21 -99 -16 rlineto
          -49 -8 -24 -28 -45 vvcurveto
          -60 40 -37 64 -1 vhcurveto
          26 8 26 17 20 24 rrcurveto
          4 hlineto
          -35 9 15 -13 34 hhcurveto
          19 15 5 12 16 hvcurveto
          10 55 -7 6 rlineto
          -4 -5 -6 0 -5 hhcurveto
          -9 -4 7 15 hvcurveto
          16 6 102 21 vvcurveto
          58 -42 34 -75 vhcurveto
          21 -181 rmoveto
          -1 -52 rlineto
          -15 -14 -17 -9 -14 hhcurveto
          -21 -12 14 22 18 9 9 16 3 hvcurveto
          endchar
        </CharString>
        <CharString name="aacute">
          -19 21 -21 102.5 94 193.5 115 hstem
          17 487 vstem
          206 561 rmoveto
          13 -1 64 37 61 38 70 43 rlinecurve
          2 13 -48 72 -13 1 -59 -55 -58 -47 -64 -51 rlinecurve
          330 -611 rmoveto
          -161 505 rlineto
          -149 hlineto
          -177 -505 rlineto
          123 hlineto
          15 80 7 21 90 2 103 -1 9 -29 13 -73 rlineto
          -50 197 rmoveto
          -67 -1 -65 1 67 193 rlineto
          8 hlineto
          endchar
        </CharString>
        <CharString name="abreve">
          -19 21 -21 102.5 94 193.5 115 65 94 hstem
          17 487 vstem
          268 570 rmoveto
          87 48 55 70 19 hvcurveto
          -31 45 rlineto
          -19 hlineto
          -51 -15 -36 -25 -49 hhcurveto
          -48 -37 25 51 -16 hvcurveto
          -19 hlineto
          -31 -45 rlineto
          -67 17 44 -58 86 hhcurveto
          236 -570 rmoveto
          -161 505 rlineto
          -149 hlineto
          -177 -505 rlineto
          123 hlineto
          15 80 7 21 90 2 103 -1 9 -29 13 -73 rlineto
          -50 197 rmoveto
          -67 -1 -65 1 67 193 rlineto
          8 hlineto
          endchar
        </CharString>
        <CharString name="abreveacute">
          -19 21 -21 102.5 94 193.5 115 57 92 13 43 0 -20 hstemhm
          17 487 hintmask 11110110
          263 698 rmoveto
          11 3 38 35 38 36 36 37 rlinecurve
          -2 10 -61 40 -10 -2 -30 -43 -30 -41 -32 -42 rlinecurve
          47 -169 rmoveto
          74 54 37 68 25 hvcurveto
          -31 43 rlineto
          -19 hlineto
          -35 -17 -35 -21 -46 hhcurveto
          -49 -37 21 35 -17 hvcurveto
          -19 hlineto
          hintmask 11111010
          -31 -43 rlineto
          hintmask 11110110
          -68 23 53 -37 72 hhcurveto
          236 -562 rmoveto
          -161 505 rlineto
          -149 hlineto
          -177 -505 rlineto
          123 hlineto
          15 80 7 21 90 2 103 -1 9 -29 13 -73 rlineto
          -50 197 rmoveto
          -67 -1 -65 1 67 193 rlineto
          8 hlineto
          endchar
        </CharString>
        <CharString name="abrevedotbelow">
          -19 -194 142 73 -21 102.5 94 193.5 115 65 94 hstem
          191 139 vstem
          268 570 rmoveto
          87 48 55 70 19 hvcurveto
          -31 45 rlineto
          -19 hlineto
          -51 -15 -36 -25 -49 hhcurveto
          -48 -37 25 51 -16 hvcurveto
          -19 hlineto
          -31 -45 rlineto
          -67 17 44 -58 86 hhcurveto
          236 -570 rmoveto
          -161 505 rlineto
          -149 hlineto
          -177 -505 rlineto
          123 hlineto
          15 80 7 21 90 2 103 -1 9 -29 13 -73 rlineto
          -50 197 rmoveto
          -67 -1 -65 1 67 193 rlineto
          8 hlineto
          -6 -442 rmoveto
          -45 -28 -29 -44 -44 24 -25 44 44 27 29 45 43 -24 25 -42 hvcurveto
          endchar
        </CharString>
        <CharString name="abrevegrave">
          -19 21 -21 102.5 94 193.5 115 57 92 13 43 0 -20 hstemhm
          17 487 hintmask 11110110
          279 698 rmoveto
          41 33 -31 42 -31 41 -29 43 rlinecurve
          -11 2 -61 -40 -1 -10 36 -37 37 -36 38 -35 rlinecurve
          1 -139 rmoveto
          74 54 37 68 25 hvcurveto
          -31 43 rlineto
          -19 hlineto
          -35 -17 -35 -21 -46 hhcurveto
          -49 -37 21 35 -17 hvcurveto
          -19 hlineto
          hintmask 11111010
          -31 -43 rlineto
          hintmask 11110110
          -68 23 53 -37 72 hhcurveto
          236 -562 rmoveto
          -161 505 rlineto
          -149 hlineto
          -177 -505 rlineto
          123 hlineto
          15 80 7 21 90 2 103 -1 9 -29 13 -73 rlineto
          -50 197 rmoveto
          -67 -1 -65 1 67 193 rlineto
          8 hlineto
          endchar
        </CharString>
        <CharString name="abrevehookabove">
          -19 21 -21 102.5 94 193.5 115 57 92 13 43 0 -20 162 62 hstemhm
          275 71 hintmask 11110111
          247 852 rmoveto
          16 12 -7 -15 -19 -19 -28 -33 -24 hvcurveto
          42 -66 49 28 -23 39 rlineto
          40 35 15 21 27 vvcurveto
          41 -35 30 -45 -37 -38 -20 -31 -30 vhcurveto
          22 -36 rlineto
          16 20 25 9 19 hhcurveto
          21 -290 rmoveto
          74 54 37 68 25 hvcurveto
          -31 43 rlineto
          -19 hlineto
          -35 -17 -35 -21 -46 hhcurveto
          -49 -37 21 35 -17 hvcurveto
          -19 hlineto
          hintmask 11111011
          -31 -43 rlineto
          hintmask 11110111
          -68 23 53 -37 72 hhcurveto
          236 -562 rmoveto
          -161 505 rlineto
          -149 hlineto
          -177 -505 rlineto
          123 hlineto
          15 80 7 21 90 2 103 -1 9 -29 13 -73 rlineto
          -50 197 rmoveto
          -67 -1 -65 1 67 193 rlineto
          8 hlineto
          endchar
        </CharString>
        <CharString name="abrevetilde">
          -19 21 -21 102.5 94 193.5 115 56 89 13 40 0 -20 hstemhm
          17 487 hintmask 11110110
          149 731 rmoveto
          11 hlineto
          25 22 16 24 19 hhcurveto
          24 76 -28 -6 43 hvcurveto
          11 5 65 84 rlineto
          11 vlineto
          -36 37 rlineto
          -11 hlineto
          -26 -22 -17 -23 -19 hhcurveto
          -23 -76 27 6 -43 hvcurveto
          -12 -4 -65 -84 rlineto
          -11 vlineto
          164 -118 rmoveto
          -47 -35 19 34 -16 hvcurveto
          -19 hlineto
          hintmask 11111010
          -29 -40 rlineto
          hintmask 11110110
          -65 22 50 -37 70 hhcurveto
          70 52 37 65 23 hvcurveto
          -29 40 rlineto
          -18 hlineto
          -34 -17 -33 -19 -44 hhcurveto
          228 -650 rmoveto
          -161 505 rlineto
          -149 hlineto
          -177 -505 rlineto
          123 hlineto
          15 80 7 21 90 2 103 -1 9 -29 13 -73 rlineto
          -50 197 rmoveto
          -67 -1 -65 1 67 193 rlineto
          8 hlineto
          endchar
        </CharString>
        <CharString name="acaron">
          -19 21 -21 102.5 94 193.5 115 200 -20 hstem
          17 487 vstem
          285 564 rmoveto
          49 52 48 49 44 40 -34 51 rcurveline
          -13 hlineto
          -41 -33 -37 -31 -30 -28 -30 28 -37 31 -42 33 rrcurveto
          -13 hlineto
          -33 -51 49 -44 48 -50 43 -47 rlinecurve
          248 -564 rmoveto
          -161 505 rlineto
          -149 hlineto
          -177 -505 rlineto
          123 hlineto
          15 80 7 21 90 2 103 -1 9 -29 13 -73 rlineto
          -50 197 rmoveto
          -67 -1 -65 1 67 193 rlineto
          8 hlineto
          endchar
        </CharString>
        <CharString name="acircumflex">
          -19 21 -21 102.5 94 193.5 115 hstem
          17 487 vstem
          150 566 rmoveto
          13 hlineto
          41 33 37 31 30 28 30 -28 37 -31 42 -33 rrcurveto
          13 hlineto
          33 51 -49 44 -48 50 -43 47 rlinecurve
          -29 hlineto
          -49 -52 -48 -49 -44 -40 rrcurveto
          388 -617 rmoveto
          -161 505 rlineto
          -149 hlineto
          -177 -505 rlineto
          123 hlineto
          15 80 7 21 90 2 103 -1 9 -29 13 -73 rlineto
          -50 197 rmoveto
          -67 -1 -65 1 67 193 rlineto
          8 hlineto
          endchar
        </CharString>
        <CharString name="acircumflexacute">
          -19 21 -21 102.5 94 193.5 115 hstem
          17 487 vstem
          371 694 rmoveto
          9 hlineto
          95 123 -3 10 -67 29 -9 -4 -70 -124 rlineto
          -179 -159 rmoveto
          13 hlineto
          37 21 37 20 36 22 36 -22 37 -20 37 -21 rrcurveto
          13 hlineto
          24 53 -48 33 -45 35 -41 36 rlinecurve
          -27 hlineto
          -40 -36 -44 -35 -50 -33 rrcurveto
          382 -622 rmoveto
          -161 505 rlineto
          -149 hlineto
          -177 -505 rlineto
          123 hlineto
          15 80 7 21 90 2 103 -1 9 -29 13 -73 rlineto
          -50 197 rmoveto
          -67 -1 -65 1 67 193 rlineto
          8 hlineto
          endchar
        </CharString>
        <CharString name="acircumflexdotbelow">
          -19 -194 142 73 -21 102.5 94 193.5 115 hstem
          191 139 vstem
          150 566 rmoveto
          13 hlineto
          41 33 37 31 30 28 30 -28 37 -31 42 -33 rrcurveto
          13 hlineto
          33 51 -49 44 -48 50 -43 47 rlinecurve
          -29 hlineto
          -49 -52 -48 -49 -44 -40 rrcurveto
          388 -617 rmoveto
          -161 505 rlineto
          -149 hlineto
          -177 -505 rlineto
          123 hlineto
          15 80 7 21 90 2 103 -1 9 -29 13 -73 rlineto
          -50 197 rmoveto
          -67 -1 -65 1 67 193 rlineto
          8 hlineto
          -6 -442 rmoveto
          -45 -28 -29 -44 -44 24 -25 44 44 27 29 45 43 -24 25 -42 hvcurveto
          endchar
        </CharString>
        <CharString name="acircumflexgrave">
          -19 21 -21 102.5 94 193.5 115 hstem
          17 487 vstem
          378 694 rmoveto
          10 hlineto
          44 34 -70 124 -9 4 -67 -29 -3 -10 rlineto
          -136 -248 rmoveto
          13 hlineto
          37 21 37 20 36 22 36 -22 37 -20 37 -21 rrcurveto
          13 hlineto
          24 53 -48 33 -45 35 -41 36 rlinecurve
          -27 hlineto
          -40 -36 -44 -35 -50 -33 rrcurveto
          382 -622 rmoveto
          -161 505 rlineto
          -149 hlineto
          -177 -505 rlineto
          123 hlineto
          15 80 7 21 90 2 103 -1 9 -29 13 -73 rlineto
          -50 197 rmoveto
          -67 -1 -65 1 67 193 rlineto
          8 hlineto
          endchar
        </CharString>
        <CharString name="acircumflexhookabove">
          -19 21 -21 102.5 94 193.5 115 336 58 hstem
          381 68 vstem
          354 841 rmoveto
          15 12 -7 -15 -18 -18 -26 -32 -23 hvcurveto
          40 -63 46 27 -22 37 rlineto
          39 33 15 20 26 vvcurveto
          39 -34 28 -43 -35 -37 -18 -30 -28 vhcurveto
          22 -34 rlineto
          15 18 24 9 18 hhcurveto
          -207 -272 rmoveto
          13 hlineto
          37 21 37 20 36 22 36 -22 37 -20 37 -21 rrcurveto
          13 hlineto
          24 53 -48 33 -45 35 -41 36 rlinecurve
          -27 hlineto
          -40 -36 -44 -35 -50 -33 rrcurveto
          382 -622 rmoveto
          -161 505 rlineto
          -149 hlineto
          -177 -505 rlineto
          123 hlineto
          15 80 7 21 90 2 103 -1 9 -29 13 -73 rlineto
          -50 197 rmoveto
          -67 -1 -65 1 67 193 rlineto
          8 hlineto
          endchar
        </CharString>
        <CharString name="acircumflextilde">
          -19 21 -21 102.5 94 193.5 115 hstem
          17 487 vstem
          149 731 rmoveto
          11 hlineto
          25 22 16 24 19 hhcurveto
          24 76 -28 -6 43 hvcurveto
          11 5 65 84 rlineto
          11 vlineto
          -36 37 rlineto
          -11 hlineto
          -26 -22 -17 -23 -19 hhcurveto
          -23 -76 27 6 -43 hvcurveto
          -12 -4 -65 -84 rlineto
          -11 vlineto
          144 -42 rmoveto
          -40 -36 -44 -35 -50 -33 25 -53 rcurveline
          13 hlineto
          37 21 37 20 36 22 36 -22 37 -20 37 -21 rrcurveto
          13 hlineto
          24 53 -48 33 -45 35 -41 36 rlinecurve
          221 -726 rmoveto
          -161 505 rlineto
          -149 hlineto
          -177 -505 rlineto
          123 hlineto
          15 80 7 21 90 2 103 -1 9 -29 13 -73 rlineto
          -50 197 rmoveto
          -67 -1 -65 1 67 193 rlineto
          8 hlineto
          endchar
        </CharString>
        <CharString name="acute">
          651 -20 hstem
          74 242 vstem
          268 723 rmoveto
          -13 1 -59 -55 -58 -47 -64 -51 rlinecurve
          32 -50 13 -1 64 37 61 38 70 43 rlinecurve
          2 13 rlineto
          endchar
        </CharString>
        <CharString name="acute.cap">
          710 -20 hstem
          66 254 vstem
          286 707 rmoveto
          -12 3 -69 -41 -66 -35 -73 -37 rlinecurve
          22 -55 13 -4 70 24 68 24 77 30 rlinecurve
          4 12 rlineto
          endchar
        </CharString>
        <CharString name="adieresis">
          -19 21 -21 102.5 94 193.5 115 88 130 hstem
          122 127 47 127 vstem
          183 593 rmoveto
          41 25 26 42 39 -22 23 -39 -41 -25 -26 -41 -40 22 -23 39 hvcurveto
          174 hmoveto
          41 25 26 42 39 -22 23 -39 -41 -25 -26 -41 -40 22 -23 39 hvcurveto
          147 -593 rmoveto
          -161 505 rlineto
          -149 hlineto
          -177 -505 rlineto
          123 hlineto
          15 80 7 21 90 2 103 -1 9 -29 13 -73 rlineto
          -50 197 rmoveto
          -67 -1 -65 1 67 193 rlineto
          8 hlineto
          endchar
        </CharString>
        <CharString name="adotbelow">
          -19 -194 142 73 -21 102.5 94 193.5 115 hstem
          191 139 vstem
          504 hmoveto
          -161 505 rlineto
          -149 hlineto
          -177 -505 rlineto
          123 hlineto
          15 80 7 21 90 2 103 -1 9 -29 13 -73 rlineto
          -50 197 rmoveto
          -67 -1 -65 1 67 193 rlineto
          8 hlineto
          -6 -442 rmoveto
          -45 -28 -29 -44 -44 24 -25 44 44 27 29 45 43 -24 25 -42 hvcurveto
          endchar
        </CharString>
        <CharString name="ae">
          163 0 93 320 92 -10 10 hstemhm
          -4 700 hintmask 11010000
          696 89 rmoveto
          -7 9 -138 -5 rlineto
          -86 hlineto
          -13 98 169 38 -9 86 -8 7 -163 -42 -17 133 rlineto
          72 hlineto
          130 -6 rlineto
          hintmask 10110000
          10 88 -7 10 rlineto
          hintmask 11010000
          -374 hlineto
          -259 -505 rlineto
          116 hlineto
          24 76 20 38 187 49 13 -94 4 -69 rlineto
          328 hlineto
          -357 252 rmoveto
          -118 -30 91 174 rlineto
          8 hlineto
          endchar
        </CharString>
        <CharString name="aeacute">
          163 0 93 320 92 -10 10 hstemhm
          -4 701 hintmask 11010000
          353 561 rmoveto
          13 -1 64 37 61 38 70 43 rlinecurve
          2 13 -48 72 -13 1 -59 -55 -58 -47 -64 -51 rlinecurve
          376 -522 rmoveto
          -8 9 -138 -5 rlineto
          -86 hlineto
          -13 98 170 38 -10 86 -8 7 -163 -42 -17 133 rlineto
          72 hlineto
          131 -6 rlineto
          hintmask 10110000
          9 88 -7 10 rlineto
          hintmask 11010000
          -374 hlineto
          -259 -505 rlineto
          116 hlineto
          24 76 20 37 187 50 13 -94 4 -69 rlineto
          328 hlineto
          -357 252 rmoveto
          -118 -30 91 174 rlineto
          8 hlineto
          endchar
        </CharString>
        <CharString name="agrave">
          -19 21 -21 102.5 94 193.5 115 hstem
          17 487 vstem
          360 561 rmoveto
          32 50 -64 51 -58 47 -59 55 rlinecurve
          -13 -1 -48 -72 2 -13 70 -43 61 -38 64 -37 rlinecurve
          157 -560 rmoveto
          -161 505 rlineto
          -149 hlineto
          -177 -505 rlineto
          123 hlineto
          15 80 7 21 90 2 103 -1 9 -29 13 -73 rlineto
          -50 197 rmoveto
          -67 -1 -65 1 67 193 rlineto
          8 hlineto
          endchar
        </CharString>
        <CharString name="ahookabove">
          -19 21 -21 102.5 94 193.5 115 83 -20 151 62 hstem
          271 71 vstem
          243 719 rmoveto
          16 12 -7 -15 -19 -19 -28 -33 -24 hvcurveto
          42 -66 49 28 -23 39 rlineto
          40 35 15 21 27 vvcurveto
          41 -35 30 -45 -37 -38 -20 -31 -30 vhcurveto
          22 -36 rlineto
          16 20 25 9 19 hhcurveto
          261 -719 rmoveto
          -161 505 rlineto
          -149 hlineto
          -177 -505 rlineto
          123 hlineto
          15 80 7 21 90 2 103 -1 9 -29 13 -73 rlineto
          -50 197 rmoveto
          -67 -1 -65 1 67 193 rlineto
          8 hlineto
          endchar
        </CharString>
        <CharString name="amacron">
          -19 21 -21 102.5 94 193.5 115 112 83 -9 9 hstemhm
          17 487 hintmask 11110100
          132 617 rmoveto
          280 hlineto
          hintmask 11101100
          6 74 -8 9 rlineto
          hintmask 11110100
          -280 hlineto
          -7 -74 rlineto
          381 -626 rmoveto
          -161 505 rlineto
          -149 hlineto
          -177 -505 rlineto
          123 hlineto
          15 80 7 21 90 2 103 -1 9 -29 13 -73 rlineto
          -50 197 rmoveto
          -67 -1 -65 1 67 193 rlineto
          8 hlineto
          endchar
        </CharString>
        <CharString name="ampersand">
          164 -12 95 108 93 144 85 198 -20 hstem
          31 111 153 82 vstem
          684 284 rmoveto
          -204 hlineto
          -9 -10 rlineto
          -119 -2 -59 -72 -107 hhcurveto
          -74 -50 33 61 -23 hvcurveto
          233 100 247 209 59 141 -9 33 -17 27 -26 24 rrcurveto
          -11 hlineto
          -50 -110 -91 -107 -115 -87 1 11 rcurveline
          55 -42 40 -84 -131 -89 -101 -157 -167 100 -100 163 139 89 73 130 30 vhcurveto
          129 hlineto
          11 82 rlineto
          -445 155 rmoveto
          28 18 -11 -26 2 hvcurveto
          1 -20 -9 -24 -29 -19 -37 -22 -39 -19 -40 -17 rrcurveto
          97 1 40 61 64 hhcurveto
          endchar
        </CharString>
        <CharString name="aogonek">
          -19 -196 75 142 -21 102.5 94 193.5 115 hstem
          353 74 vstem
          527 -89 rmoveto
          -8 hlineto
          -21 -19 -20 -11 -21 hhcurveto
          -20 -12 10 23 16 7 24 36 48 hvcurveto
          34 hlineto
          -161 505 rlineto
          -149 hlineto
          -177 -505 rlineto
          123 hlineto
          15 80 7 21 90 2 103 -1 9 -29 13 -73 rlineto
          26 hlineto
          -37 -51 -13 -30 -30 vvcurveto
          -51 36 -34 52 35 29 16 34 33 vhcurveto
          -211 343 rmoveto
          -67 -1 -65 1 67 193 rlineto
          8 hlineto
          endchar
        </CharString>
        <CharString name="approxequal">
          -68 88 345 hstem
          41 422 vstem
          162 332 rmoveto
          32 120 -45 -7 55 hvcurveto
          12 4 82 93 rlineto
          12 vlineto
          -35 44 rlineto
          -12 hlineto
          -31 -30 -21 -25 -21 hhcurveto
          -33 -121 43 10 -54 hvcurveto
          -13 -6 -82 -93 rlineto
          -12 vlineto
          36 -43 rlineto
          12 hlineto
          29 29 22 27 22 hhcurveto
          -189 vmoveto
          32 120 -44 -8 55 hvcurveto
          12 5 82 93 rlineto
          12 vlineto
          -35 43 rlineto
          -12 hlineto
          -30 -30 -21 -25 -21 hhcurveto
          -33 -121 43 10 -54 hvcurveto
          -13 -6 -82 -93 rlineto
          -12 vlineto
          36 -43 rlineto
          12 hlineto
          29 29 22 26 22 hhcurveto
          endchar
        </CharString>
        <CharString name="aring">
          -19 21 -21 102.5 94 193.5 115 70 55 77 57 hstem
          174 55 82 55 vstem
          267 575 rmoveto
          60 39 35 63 56 -32 35 -62 -63 -35 -35 -60 -62 36 -32 57 hvcurveto
          2 132 rmoveto
          29 13 -14 -25 -26 -15 -12 -26 -26 -15 13 27 25 13 12 27 hvcurveto
          235 -707 rmoveto
          -161 505 rlineto
          -149 hlineto
          -177 -505 rlineto
          123 hlineto
          15 80 7 21 90 2 103 -1 9 -29 13 -73 rlineto
          -50 197 rmoveto
          -67 -1 -65 1 67 193 rlineto
          8 hlineto
          endchar
        </CharString>
        <CharString name="aringacute">
          -19 21 -21 102.5 94 193.5 115 70 55 77 57 hstem
          174 55 82 55 vstem
          179 783 rmoveto
          12 -6 73 13 71 14 80 18 rlinecurve
          6 11 -21 83 -12 5 -75 -30 -70 -25 -77 -25 rlinecurve
          8 -172 rmoveto
          -62 36 -32 57 60 39 35 63 56 -32 35 -62 -63 -35 -35 -60 vhcurveto
          137 -1 rmoveto
          -26 -15 -12 -26 -26 -15 13 27 25 13 12 27 29 13 -14 -25 vhcurveto
          193 -668 rmoveto
          -161 505 rlineto
          -149 hlineto
          -177 -505 rlineto
          123 hlineto
          15 80 7 21 90 2 103 -1 9 -29 13 -73 rlineto
          -50 197 rmoveto
          -67 -1 -65 1 67 193 rlineto
          8 hlineto
          endchar
        </CharString>
        <CharString name="arrowdown">
          -16 14 -21 475 -20 25 -20 hstemhm
          222 87 hintmask 10110000
          479 190 rmoveto
          -17 72 rlineto
          -17 hlineto
          -139 -132 rlineto
          hintmask 11010000
          6 338 rlineto
          hintmask 10110000
          -83 5 -10 -8 6 -334 -138 131 rlineto
          -17 hlineto
          -17 -72 203 -197 rlineto
          20 hlineto
          endchar
        </CharString>
        <CharString name="arrowdownleft">
          -16 54 76.5 hstem
          94 75.5 vstem
          420 128 rmoveto
          -191 5 243 234 -55 62 -13 1 -232 -241 -5 191 -12 13 -63 -40 4 -283 14 -14 283 -4 39 63 rlineto
          endchar
        </CharString>
        <CharString name="arrowdownright">
          -16 50 76.5 hstem
          360.5 76.5 vstem
          439 349 rmoveto
          -63 40 -13 -13 -5 -191 -234 243 -62 -55 -1 -13 240 -231 -190 -5 -13 -13 40 -63 283 4 14 15 rlineto
          endchar
        </CharString>
        <CharString name="arrowleft">
          -16 193 87 hstem
          24 481 vstem
          500 190 rmoveto
          5 84 -9 9 -333 -6 131 138 rlineto
          18 vlineto
          -73 17 -197 -204 rlineto
          -20 vlineto
          197 -203 73 17 rlineto
          18 vlineto
          -132 138 rlineto
          endchar
        </CharString>
        <CharString name="arrowright">
          -16 194 87 hstem
          26 481 vstem
          507 248 rmoveto
          -197 203 -73 -17 rlineto
          -18 vlineto
          131 -138 -337 6 -5 -84 9 -9 334 6 -132 -138 rlineto
          -18 vlineto
          73 -17 197 204 rlineto
          endchar
        </CharString>
        <CharString name="arrowup">
          -16 21 -21 hstem
          223 87 vstem
          480 284 rmoveto
          -204 197 rlineto
          -20 hlineto
          -203 -197 17 -73 rlineto
          18 hlineto
          138 132 -6 -338 83 -5 10 9 -6 333 138 -131 rlineto
          18 hlineto
          endchar
        </CharString>
        <CharString name="arrowupleft">
          -16 342.5 76.5 hstem
          93 76.5 vstem
          469 109 rmoveto
          -239 231 189 5 13 13 -39 63 -284 -4 -14 -15 -4 -282 63 -40 13 13 5 191 234 -243 63 55 rlineto
          endchar
        </CharString>
        <CharString name="arrowupright">
          -16 346.5 76.5 hstem
          361.5 76 vstem
          440 124 rmoveto
          -5 283 -14 14 -283 4 -39 -63 12 -13 192 -5 -244 -234 56 -62 13 -1 231 241 5 -191 13 -13 rlineto
          endchar
        </CharString>
        <CharString name="asciicircum">
          -107 403 93 hstem
          17 408 vstem
          425 146 rmoveto
          -144 350 rlineto
          -107 hlineto
          -13 -7 -144 -349 75 -28 11 5 118 286 rlineto
          7 hlineto
          113 -286 75 18 rlineto
          endchar
        </CharString>
        <CharString name="asciitilde">
          -68 180 157 hstem
          30 421 vstem
          150 236 rmoveto
          32 120 -44 -8 55 hvcurveto
          12 5 82 93 rlineto
          12 vlineto
          -35 43 rlineto
          -12 hlineto
          -30 -30 -21 -26 -21 hhcurveto
          -33 -120 44 9 -55 hvcurveto
          -12 -5 -82 -93 rlineto
          -12 vlineto
          35 -44 rlineto
          13 hlineto
          30 28 22 26 22 hhcurveto
          endchar
        </CharString>
        <CharString name="asterisk">
          -165 516 -20 hstem
          27 341 vstem
          241 734 rmoveto
          -4 8 rlineto
          -28 -27 -5 -8 -23 hvcurveto
          4 -116 7 -7 42 5 rlineto
          -63 -11 rmoveto
          -102 67 -10 -3 -7 -26 -4 -28 1 -24 rlinecurve
          106 -32 10 4 rlineto
          84 43 rmoveto
          -4 -9 19 -38 120 10 6 6 -10 26 -13 25 -13 20 rlinecurve
          -95 -106 rmoveto
          -11 1 -30 -28 45 -119 9 -2 21 17 20 18 14 21 rlinecurve
          -128 73 rmoveto
          -38 19 -92 -82 -1 -9 24 -14 24 -14 24 -7 rlinecurve
          60 96 rlineto
          endchar
        </CharString>
        <CharString name="at">
          296 -210 75 149 -21 27 -21 465 -20 107 84 hstemhm
          28 89 101 108 410 87 hintmask 10111111
          823 312 rmoveto
          199 -139 124 -211 -269 -176 -192 -258 -250 175 -144 263 -1 vhcurveto
          36 62 -5 13 rlineto
          -228 -152 123 213 200 135 146 205 4 hvcurveto
          171 5 108 -98 -151 vvcurveto
          -118 -63 -82 -105 -16 vhcurveto
          1 21 47 346 -10 6 -72 -22 -77 20 rlineto
          -6 hlineto
          -159 -38 -74 -145 -126 vvcurveto
          hintmask 11011111
          -79 27 -53 74 -28 vhcurveto
          18 hlineto
          45 46 39 57 35 60 rrcurveto
          12 hlineto
          hintmask 10111111
          -22 -157 rlineto
          241 4 136 111 198 vvcurveto
          -471 -202 rmoveto
          -13 -13 20 65 102 38 74 67 hvcurveto
          64 -20 rlineto
          -4 vlineto
          -2 -15 rlineto
          -150 -63 -58 -72 -20 hhcurveto
          endchar
        </CharString>
        <CharString name="atilde">
          -19 21 -21 102.5 94 193.5 115 197 -20 hstem
          17 487 vstem
          134 581 rmoveto
          12 hlineto
          26 24 18 25 20 hhcurveto
          26 82 -29 -6 46 hvcurveto
          13 5 70 89 rlineto
          11 vlineto
          -39 39 rlineto
          -12 hlineto
          -27 -24 -18 -24 -21 hhcurveto
          -25 -82 29 6 -47 hvcurveto
          -12 -5 -71 -89 rlineto
          -11 vlineto
          410 -620 rmoveto
          -161 505 rlineto
          -149 hlineto
          -177 -505 rlineto
          123 hlineto
          15 80 7 21 90 2 103 -1 9 -29 13 -73 rlineto
          -50 197 rmoveto
          -67 -1 -65 1 67 193 rlineto
          8 hlineto
          endchar
        </CharString>
        <CharString name="b">
          -31 -4 88 -63 -21 209 87 120 90 hstemhm
          75.5 119.5 129 131 -106 129 hintmask 00000000
          hintmask 10111010
          374 261 rmoveto
          hintmask 01111100
          51 22 30 41 54 vvcurveto
          84 -68 44 -111 vhcurveto
          -203 -1 5 -355 -5 -150 rlineto
          hintmask 10111010
          -2 50 68 -2 37 hhcurveto
          163 87 45 103 63 -34 37 -70 17 hvcurveto
          hintmask 10111100
          -50 100 rmoveto
          -39 -19 -18 -38 -9 vhcurveto
          -73 2 2 119 rlineto
          31 hlineto
          72 25 -13 -42 hvcurveto
          hintmask 10111010
          -74 -277 rmoveto
          -14 -21 1 2 -21 hvcurveto
          -2 75 1 46 87 2 rlineto
          46 -10 23 -17 -33 vvcurveto
          -45 -37 -21 -62 vhcurveto
          endchar
        </CharString>
        <CharString name="b.sups">
          -185 323 66 178 81 -49 -20 hstemhm
          43 100 100 96 hintmask 00000000
          hintmask 11011000
          217 648 rmoveto
          hintmask 10111000
          -27 -6 -25 -18 -21 -25 rrcurveto
          -3 hlineto
          4 203 -104 -6 4 -337 -4 -125 9 -10 46 14 rlineto
          -10 28 30 -5 27 hhcurveto
          97 61 60 112 hvcurveto
          hintmask 11011000
          96 -45 57 -77 vhcurveto
          -43 -259 rmoveto
          -9 -12 2 4 -13 hvcurveto
          -1 77 1 77 rlineto
          12 15 14 6 16 hhcurveto
          39 19 -29 -56 -68 -26 -25 -43 hvcurveto
          endchar
        </CharString>
        <CharString name="backslash">
          -264 668 12 hstem
          -10 307 vstem
          90 680 rmoveto
          -89 hlineto
          -11 -12 206 -783 rlineto
          92 hlineto
          9 11 rlineto
          endchar
        </CharString>
        <CharString name="bar">
          -241 -259 1062 hstem
          103.5 99.5 vstem
          206 794 rmoveto
          -10 9 -92 -7 -1 -515 -1 -528 11 -12 90 7 rlineto
          543 vlineto
          endchar
        </CharString>
        <CharString name="braceleft">
          -253 -119 81 613 82 0 -20 hstemhm
          36 108 -60 105 -84 107 hintmask 11001000
          220 657 rmoveto
          -89 -47 -42 -76 hvcurveto
          hintmask 11000100
          -58 21 -61 -41 vvcurveto
          hintmask 11010000
          -40 -22 -27 -47 -12 vhcurveto
          -63 vlineto
          hintmask 11000100
          47 -12 22 -26 -41 vvcurveto
          hintmask 11001000
          -41 -21 -60 -58 vvcurveto
          -76 47 -42 89 23 21 3 6 20 vhcurveto
          6 10 -11 67 rlineto
          -3 -13 -10 -2 -13 hhcurveto
          -36 -18 20 42 hvcurveto
          hintmask 11000100
          43 23 54 44 vvcurveto
          hintmask 11010000
          43 -23 38 -45 20 vhcurveto
          5 vlineto
          hintmask 11000100
          45 21 23 36 46 vvcurveto
          hintmask 11001000
          41 -23 57 42 vvcurveto
          40 18 21 36 13 10 -2 -3 13 vhcurveto
          hintmask 10101000
          11 68 -6 10 rlineto
          hintmask 11001000
          5 -20 -21 4 -23 hhcurveto
          endchar
        </CharString>
        <CharString name="braceright">
          -253 -119 81 614 81 hstemhm
          83 106 -83 104 -59 107 hintmask 11010000
          75 -119 rmoveto
          88 47 42 76 hvcurveto
          hintmask 11100000
          58 -21 60 42 vvcurveto
          hintmask 11001000
          40 23 26 46 13 vhcurveto
          62 vlineto
          hintmask 11100000
          -46 12 -23 27 40 vvcurveto
          hintmask 11010000
          42 21 60 58 vvcurveto
          76 -47 42 -88 -24 -20 -3 -6 -21 vhcurveto
          -5 -10 11 -67 rlineto
          3 13 10 2 12 hhcurveto
          36 19 -21 -41 hvcurveto
          hintmask 11100000
          -43 -23 -54 -44 vvcurveto
          hintmask 11001000
          -44 23 -37 45 -21 vhcurveto
          -5 vlineto
          hintmask 11100000
          -45 -20 -23 -37 -46 vvcurveto
          hintmask 11010000
          -41 23 -56 -42 vvcurveto
          -41 -19 -21 -36 -12 -10 2 3 -13 vhcurveto
          -11 -67 5 -10 rlineto
          -6 21 20 -3 24 hhcurveto
          endchar
        </CharString>
        <CharString name="bracketleft">
          -253 -121 75 613 81 0 -20 hstemhm
          83.5 104.5 hintmask 10110000
          295 641 rmoveto
          -6 7 -209 -10 7 -377 -7 -377 209 -10 6 6 rlineto
          61 vlineto
          -107 13 rlineto
          hintmask 11010000
          613 vlineto
          107 14 rlineto
          endchar
        </CharString>
        <CharString name="bracketright">
          -253 -121 75 614 80 0 -20 hstemhm
          106 105.5 hintmask 10110000
          -1 -119 rmoveto
          6 -7 210 10 -7 377 7 377 -210 10 -6 -7 rlineto
          hintmask 11010000
          -60 vlineto
          107 -13 rlineto
          -614 vlineto
          -107 -13 rlineto
          endchar
        </CharString>
        <CharString name="breve">
          530 94 31 -20 20 45 0 -20 hstemhm
          44 301 hintmask 11011000
          314 700 rmoveto
          -19 hlineto
          -51 -15 -36 -25 -49 hhcurveto
          -48 -37 25 51 -16 hvcurveto
          -19 hlineto
          hintmask 10101000
          -31 -45 rlineto
          -67 17 44 -58 86 hhcurveto
          87 48 55 70 19 hvcurveto
          endchar
        </CharString>
        <CharString name="breve.cap">
          542 92 hstemhm
          44 301 hintmask 00000000
          hintmask 11000000
          314 690 rmoveto
          -19 hlineto
          -35 -17 -35 -21 -46 hhcurveto
          -49 -37 21 35 -17 hvcurveto
          -19 hlineto
          -31 -43 rlineto
          -68 23 53 -37 72 hhcurveto
          74 54 37 68 25 hvcurveto
          endchar
        </CharString>
        <CharString name="breveacute">
          522 92 hstem
          44 301 vstem
          308 779 rmoveto
          -61 40 -10 -2 -30 -43 -31 -41 -31 -42 rlinecurve
          42 -33 11 3 38 35 37 36 37 37 rlinecurve
          4 -99 rmoveto
          -19 hlineto
          -35 -17 -35 -21 -46 hhcurveto
          -49 -37 21 35 -17 hvcurveto
          -19 hlineto
          -31 -43 rlineto
          -68 23 53 -37 72 hhcurveto
          74 54 37 68 25 hvcurveto
          endchar
        </CharString>
        <CharString name="brevegrave">
          522 92 hstem
          44 301 vstem
          143 819 rmoveto
          -62 -40 -1 -10 36 -37 38 -36 37 -35 rlinecurve
          12 -3 42 33 -32 42 -30 41 -30 43 rlinecurve
          161 -147 rmoveto
          -19 hlineto
          -35 -17 -35 -21 -46 hhcurveto
          -49 -37 21 35 -17 hvcurveto
          -19 hlineto
          -31 -43 rlineto
          -68 23 53 -37 72 hhcurveto
          74 54 37 68 25 hvcurveto
          endchar
        </CharString>
        <CharString name="brevehookabove">
          522 92 198 62 hstem
          199 71 vstem
          190 874 rmoveto
          -37 -38 -19 -32 -30 hvcurveto
          22 -35 rlineto
          16 20 25 8 19 hhcurveto
          16 12 -7 -15 -19 -19 -27 -33 -24 hvcurveto
          42 -67 49 29 -23 38 rlineto
          40 35 15 21 27 vvcurveto
          42 -35 29 -45 vhcurveto
          124 -204 rmoveto
          -19 hlineto
          -35 -17 -35 -21 -46 hhcurveto
          -49 -37 21 35 -17 hvcurveto
          -19 hlineto
          -31 -43 rlineto
          -68 23 53 -37 72 hhcurveto
          74 54 37 68 25 hvcurveto
          endchar
        </CharString>
        <CharString name="brevetilde">
          522 88 hstem
          36 324 vstem
          360 806 rmoveto
          -36 37 rlineto
          -11 hlineto
          -26 -23 -16 -23 -19 hhcurveto
          -24 -75 28 5 -44 hvcurveto
          -11 -4 -65 -84 rlineto
          -11 vlineto
          36 -36 rlineto
          11 hlineto
          25 23 16 23 19 hhcurveto
          24 76 -28 -5 42 hvcurveto
          12 4 65 84 rlineto
          -48 -131 rmoveto
          -18 hlineto
          -34 -17 -33 -20 -44 hhcurveto
          -47 -35 20 34 -17 hvcurveto
          -18 hlineto
          -29 -41 rlineto
          -65 22 50 -36 69 hhcurveto
          71 51 36 65 24 hvcurveto
          endchar
        </CharString>
        <CharString name="brokenbar">
          -241 -259 1062 hstem
          103 101.5 vstem
          206 794 rmoveto
          -10 9 -93 -7 rlineto
          -422 vlineto
          9 -8 91 11 rlineto
          -229 vmoveto
          -11 12 -89 -10 -1 -397 11 -12 90 7 rlineto
          endchar
        </CharString>
        <CharString name="bullet">
          -271 157 176 hstem
          51 173 vstem
          141 333 rmoveto
          -55 -35 -35 -56 -54 30 -31 54 54 35 36 56 53 -30 31 -53 hvcurveto
          endchar
        </CharString>
        <CharString name="bulletoperator">
          -271 158 176 hstem
          51 173 vstem
          141 334 rmoveto
          -56 -34 -36 -55 -54 30 -31 54 54 35 35 57 52 -31 32 -52 hvcurveto
          endchar
        </CharString>
        <CharString name="c">
          -94 -8 105 312 103 hstem
          33 132 vstem
          294 512 rmoveto
          -166 -95 -96 -168 -165 86 -91 165 46 41 7 17 42 hvcurveto
          10 105 -11 6 rlineto
          -18 -34 -46 -12 -40 hhcurveto
          -84 -43 54 111 103 41 44 80 41 44 -13 -21 31 hvcurveto
          10 5 22 106 rlineto
          16 -40 -47 10 -53 hhcurveto
          endchar
        </CharString>
        <CharString name="c.sups">
          -283 323 82 163 84 0 -20 hstemhm
          23 98 hintmask 11010000
          178 652 rmoveto
          -97 -58 -62 -107 -100 50 -60 86 31 29 5 9 26 hvcurveto
          11 76 -8 6 rlineto
          -9 -24 -21 -5 -19 hhcurveto
          -41 -22 30 58 50 20 25 37 19 18 -7 -11 20 hvcurveto
          8 4 rlineto
          hintmask 10110000
          18 79 rlineto
          hintmask 11010000
          11 -23 -30 8 -30 hhcurveto
          endchar
        </CharString>
        <CharString name="cacute">
          -94 -8 105 312 103 hstem
          33 133 vstem
          368 763 rmoveto
          -13 1 -59 -55 -58 -47 -64 -51 rlinecurve
          32 -50 13 -1 64 37 61 38 70 43 rlinecurve
          2 13 rlineto
          -122 -179 rmoveto
          -166 -95 -96 -168 -165 86 -91 165 46 41 7 17 42 hvcurveto
          11 105 -12 6 rlineto
          -18 -34 -46 -12 -40 hhcurveto
          -83 -43 54 111 103 40 44 80 42 43 -13 -21 31 hvcurveto
          11 5 22 106 rlineto
          16 -40 -48 10 -53 hhcurveto
          endchar
        </CharString>
        <CharString name="caron">
          524 192 hstem
          39 310 vstem
          315 716 rmoveto
          -13 hlineto
          -41 -33 -37 -31 -30 -28 -30 28 -37 31 -42 33 rrcurveto
          -13 hlineto
          -33 -51 49 -44 48 -50 43 -47 rlinecurve
          29 hlineto
          49 52 48 49 44 40 rrcurveto
          endchar
        </CharString>
        <CharString name="caron.alt">
          711 -20 hstem
          146.5 68.5 vstem
          248 711 rmoveto
          -8 9 -95 -6 3 -204 9 -7 58 9 rlineto
          endchar
        </CharString>
        <CharString name="caron.cap">
          643 -20 hstem
          47 295 vstem
          317 696 rmoveto
          -13 hlineto
          -37 -21 -37 -20 -36 -22 -36 22 -37 20 -37 21 rrcurveto
          -13 hlineto
          -24 -53 48 -33 45 -35 41 -36 rlinecurve
          27 hlineto
          40 36 44 35 50 33 rrcurveto
          endchar
        </CharString>
        <CharString name="ccaron">
          -94 -8 105 312 103 193 -20 hstem
          33 133 vstem
          393 756 rmoveto
          -13 hlineto
          -41 -33 -37 -31 -30 -28 -30 28 -37 31 -42 33 rrcurveto
          -13 hlineto
          -33 -51 49 -44 48 -50 43 -47 rlinecurve
          29 hlineto
          49 52 48 49 44 40 rrcurveto
          -133 -193 rmoveto
          -166 -95 -96 -168 -165 86 -91 165 46 41 7 17 42 hvcurveto
          11 105 -12 6 rlineto
          -18 -34 -46 -12 -40 hhcurveto
          -83 -43 54 111 103 40 44 80 42 43 -13 -21 31 hvcurveto
          11 5 22 106 rlineto
          16 -40 -48 10 -53 hhcurveto
          endchar
        </CharString>
        <CharString name="ccedilla">
          -94 -201 57 136 105 -81 -21 414 103 hstemhm
          33 133 120 78 hintmask 00000000
          hintmask 11011000
          292 97 rmoveto
          -83 -43 54 111 103 40 44 80 42 43 -13 -21 31 hvcurveto
          11 5 22 106 rlineto
          16 -40 -48 10 -53 hhcurveto
          -166 -95 -96 -168 hvcurveto
          hintmask 10111100
          -148 69 -89 134 -16 vhcurveto
          -16 -70 49 -28 rlineto
          10 -5 7 -5 -10 vvcurveto
          -14 -9 -7 -15 -20 -20 11 19 -19 vhcurveto
          -6 -3 -9 -56 rlineto
          -16 21 26 -12 35 hhcurveto
          57 37 31 44 hvcurveto
          hintmask 11011100
          23 -10 19 -31 17 vhcurveto
          -34 19 10 40 40 2 37 7 37 15 rlinecurve
          11 105 -12 6 rlineto
          hintmask 11011000
          -18 -34 -46 -12 -40 hhcurveto
          endchar
        </CharString>
        <CharString name="ccircumflex">
          -94 -8 105 312 103 hstem
          33 133 vstem
          151 566 rmoveto
          13 hlineto
          41 33 37 31 30 28 30 -28 37 -31 42 -33 rrcurveto
          13 hlineto
          33 51 -49 44 -48 50 -43 47 rlinecurve
          -29 hlineto
          -49 -52 -48 -49 -44 -40 rrcurveto
          177 -105 rmoveto
          -166 -95 -96 -168 -165 86 -91 165 46 41 7 17 42 hvcurveto
          11 105 -12 6 rlineto
          -18 -34 -46 -12 -40 hhcurveto
          -83 -43 54 111 103 40 44 80 42 43 -13 -21 31 hvcurveto
          11 5 22 106 rlineto
          16 -40 -48 10 -53 hhcurveto
          endchar
        </CharString>
        <CharString name="cdotaccent">
          -94 -8 105 312 103 79 142 hstem
          33 133 35 139 vstem
          274 733 rmoveto
          -45 -28 -29 -44 -44 24 -25 44 44 27 29 45 43 -24 25 -42 hvcurveto
          20 -221 rmoveto
          -166 -95 -96 -168 -165 86 -91 165 46 41 7 17 42 hvcurveto
          11 105 -12 6 rlineto
          -18 -34 -46 -12 -40 hhcurveto
          -83 -43 54 111 103 40 44 80 42 43 -13 -21 31 hvcurveto
          11 5 22 106 rlineto
          16 -40 -48 10 -53 hhcurveto
          endchar
        </CharString>
        <CharString name="cedilla">
          -201 57 hstem
          207 78 vstem
          210 -48 rmoveto
          18 74 rlineto
          -64 hlineto
          -23 -101 49 -28 rlineto
          10 -5 7 -5 -10 vvcurveto
          -14 -9 -7 -15 -20 -20 11 19 -19 vhcurveto
          -6 -3 -9 -56 rlineto
          -16 21 26 -12 35 hhcurveto
          57 37 31 44 23 -10 19 -31 17 hvcurveto
          endchar
        </CharString>
        <CharString name="cent">
          -165 -124 11 144 103 375 -20 156 12 hstemhm
          29 126 16.5 96.5 -57.5 97 hintmask 11111010
          259 134 rmoveto
          -67 -37 51 93 82 35 45 61 30 30 -11 -17 31 hvcurveto
          11 5 22 106 -21 10 -25 7 -26 4 rlinecurve
          9 136 -14 12 rlineto
          -83 hlineto
          -9 -148 rlineto
          -112 -18 -65 -89 -136 vvcurveto
          -125 54 -82 93 -23 vhcurveto
          hintmask 11111100
          -9 -149 10 -11 rlineto
          86 hlineto
          10 155 28 3 29 6 26 8 rlinecurve
          13 103 -10 8 rlineto
          hintmask 11111010
          -16 -35 -34 -9 -31 hhcurveto
          endchar
        </CharString>
        <CharString name="circle1">
          -87 9 -21 476 -20 hstem
          -7 476 vstem
          231 464 rmoveto
          -131 -107 -107 -131 -131 107 -107 131 131 107 107 131 131 -107 107 -131 hvcurveto
          endchar
        </CharString>
        <CharString name="circle2">
          93 649 -20 hstem
          -11 663 vstem
          320 649 rmoveto
          -183 -148 -149 -183 -183 148 -148 183 183 149 148 183 183 -149 149 -183 hvcurveto
          endchar
        </CharString>
        <CharString name="circumflex">
          526 192 hstem
          39 310 vstem
          72 526 rmoveto
          14 hlineto
          41 33 37 30 30 29 30 -29 37 -30 41 -33 rrcurveto
          13 hlineto
          34 51 -49 44 -49 49 -43 48 rlinecurve
          -28 hlineto
          -49 -53 -49 -49 -43 -39 rrcurveto
          endchar
        </CharString>
        <CharString name="circumflex.cap">
          706 -20 hstem
          46 295 vstem
          71 549 rmoveto
          13 hlineto
          110 63 36 -21 36 -21 38 -21 rlinecurve
          13 hlineto
          24 53 -49 34 -44 34 -41 36 rlinecurve
          -28 hlineto
          -40 -36 -44 -34 -49 -34 rrcurveto
          endchar
        </CharString>
        <CharString name="circumflexacute">
          529 287 hstem
          46 353 vstem
          396 787 rmoveto
          -66 29 -10 -4 -70 -124 45 -34 rlineto
          9 hlineto
          95 123 rlineto
          -328 -248 rmoveto
          13 hlineto
          110 63 36 -21 36 -21 38 -21 rlinecurve
          13 hlineto
          24 53 -49 34 -44 34 -41 36 rlinecurve
          -28 hlineto
          -40 -36 -44 -34 -49 -34 rrcurveto
          endchar
        </CharString>
        <CharString name="circumflexgrave">
          529 287 hstem
          46 310 vstem
          286 812 rmoveto
          -9 4 -67 -29 -3 -10 95 -123 rlineto
          9 hlineto
          45 34 rlineto
          -285 -159 rmoveto
          13 hlineto
          110 63 36 -21 36 -21 38 -21 rlinecurve
          13 hlineto
          24 53 -49 34 -44 34 -41 36 rlinecurve
          -28 hlineto
          -40 -36 -44 -34 -49 -34 rrcurveto
          endchar
        </CharString>
        <CharString name="circumflexhookabove">
          713 -20 108 59 hstem
          305 68 vstem
          297 860 rmoveto
          -36 -36 -19 -30 -28 hvcurveto
          21 -34 rlineto
          15 19 23 9 18 hhcurveto
          16 11 -7 -14 -18 -18 -26 -31 -23 hvcurveto
          40 -64 46 27 -22 37 rlineto
          39 33 14 20 26 vvcurveto
          40 -33 28 -43 vhcurveto
          -226 -331 rmoveto
          13 hlineto
          110 63 36 -21 36 -21 38 -21 rlinecurve
          13 hlineto
          24 53 -49 34 -44 34 -41 36 rlinecurve
          -28 hlineto
          -40 -36 -44 -34 -49 -34 rrcurveto
          endchar
        </CharString>
        <CharString name="circumflextilde">
          529 314 hstem
          36 324 vstem
          360 806 rmoveto
          -36 37 rlineto
          -11 hlineto
          -26 -23 -16 -23 -19 hhcurveto
          -24 -75 28 5 -44 hvcurveto
          -11 -4 -65 -84 rlineto
          -11 vlineto
          36 -36 rlineto
          11 hlineto
          25 23 16 23 19 hhcurveto
          24 76 -28 -5 42 hvcurveto
          12 4 65 84 rlineto
          -289 -266 rmoveto
          13 hlineto
          110 63 36 -21 36 -21 38 -21 rlinecurve
          13 hlineto
          24 53 -49 34 -44 34 -41 36 rlinecurve
          -28 hlineto
          -40 -36 -44 -34 -49 -34 rrcurveto
          endchar
        </CharString>
        <CharString name="colon">
          -319 -7 142 121 142 hstem
          40 139 vstem
          112 398 rmoveto
          -44 -28 -29 -44 -44 24 -25 43 44 28 29 45 43 -25 25 -42 hvcurveto
          -263 vmoveto
          -44 -28 -29 -44 -44 24 -25 43 44 28 29 45 43 -25 25 -42 hvcurveto
          endchar
        </CharString>
        <CharString name="comma">
          -319 -127 259 hstem
          78 110 vstem
          143 132 rmoveto
          -35 -10 -31 -14 -30 -18 -1 -11 rcurveline
          22 -18 10 -19 -23 vvcurveto
          -35 -18 -32 -37 -31 vhcurveto
          1 -10 43 -38 rlineto
          82 58 39 56 59 vvcurveto
          35 -15 27 -30 24 vhcurveto
          endchar
        </CharString>
        <CharString name="commaaccent">
          -548 -66 -21 hstem
          80 98 vstem
          138 -40 rmoveto
          -31 -8 -28 -13 -27 -16 rrcurveto
          -10 vlineto
          19 -16 9 -17 -21 vvcurveto
          -31 -16 -29 -33 -27 vhcurveto
          1 -9 38 -34 rlineto
          73 52 35 50 53 vvcurveto
          30 -13 25 -27 21 vhcurveto
          endchar
        </CharString>
        <CharString name="copyright">
          139 -12 46 93 73 192 73 87 46 hstem
          43 47 102 93 311 47 vstem
          343 598 rmoveto
          -180 -120 -122 -183 -183 120 -122 180 180 120 122 183 183 -120 122 -180 hvcurveto
          -46 vmoveto
          151 102 -104 -155 -155 -102 -104 -151 -151 -102 104 155 155 102 104 151 hvcurveto
          22 -87 rmoveto
          -111 -62 -63 -109 -107 56 -59 111 25 29 4 10 26 hvcurveto
          7 70 -8 4 rlineto
          -9 -21 -29 -6 -22 hhcurveto
          -55 -26 34 68 63 25 27 52 22 28 -7 -11 20 hvcurveto
          6 4 16 70 rlineto
          10 -27 -30 7 -32 hhcurveto
          endchar
        </CharString>
        <CharString name="currency">
          -113 191 73 171 71 hstem
          64 72 172 71 vstem
          426 501 rmoveto
          -60 57 -13 -2 -60 -69 rlineto
          12 -21 -25 7 -25 hhcurveto
          -28 -26 -7 -14 -22 hvcurveto
          -63 69 rlineto
          -12 hlineto
          -57 -60 2 -12 69 -59 rlineto
          -13 -22 -8 -25 -27 vvcurveto
          -28 8 -27 14 -22 vhcurveto
          -68 -60 -1 -13 61 -57 12 1 59 69 rlineto
          -13 21 26 -8 26 hhcurveto
          28 27 9 15 23 hvcurveto
          61 -69 12 -1 57 61 -1 12 -70 59 rlineto
          12 22 8 24 26 vvcurveto
          28 -8 27 -14 23 vhcurveto
          69 62 rlineto
          -204 -54 rmoveto
          50 36 -36 -50 -50 -36 -35 -50 -51 -35 35 50 50 35 36 51 hvcurveto
          endchar
        </CharString>
        <CharString name="d">
          22 -6 96 -69 -21 408 101 hstemhm
          75.5 121 210.5 130 hintmask 10111000
          73 505 rmoveto
          5 -355 rlineto
          hintmask 01111000
          -5 -150 rlineto
          hintmask 10111000
          -3 57 89 -3 45 hhcurveto
          176 97 99 179 152 -86 85 -156 hvcurveto
          -8 -419 rmoveto
          -17 -44 3 4 -30 hvcurveto
          -2 65 5 242 rlineto
          3 29 40 1 17 hhcurveto
          84 38 -46 -120 -109 -46 -43 -74 hvcurveto
          endchar
        </CharString>
        <CharString name="d.sups">
          -181 326 76 178 71 -5 -20 hstemhm
          23 96 103.5 95.5 hintmask 11011000
          322 802 rmoveto
          -103 -6 rlineto
          hintmask 10111000
          2 -150 rlineto
          hintmask 11011000
          3 -14 -12 2 -10 hhcurveto
          -99 -63 -58 -111 -96 51 -60 82 hvcurveto
          25 5 24 17 20 23 rrcurveto
          4 hlineto
          -35 11 17 -11 30 hhcurveto
          21 19 5 12 17 hvcurveto
          11 55 -8 6 rlineto
          -4 -6 -5 0 -4 hhcurveto
          -10 -4 7 14 hvcurveto
          -135 160 rmoveto
          13 13 -2 -3 12 hvcurveto
          3 -148 rlineto
          -16 -16 -17 -9 -17 hhcurveto
          -34 -21 29 64 62 21 23 43 hvcurveto
          endchar
        </CharString>
        <CharString name="dagger">
          -46 -73 -21 27 -21 411 89 173 -20 26 -20 hstemhm
          203 91 hintmask 01101100
          456 323 rmoveto
          7 80 -10 9 rlineto
          -158 hlineto
          hintmask 10110100
          1 172 -8 7 -84 -6 -1 -173 rlineto
          -156 hlineto
          -7 -80 8 -9 rlineto
          155 -42 hlineto
          -365 vlineto
          9 -10 rlineto
          hintmask 01101100
          82 6 rlineto
          377 vlineto
          34 vlineto
          endchar
        </CharString>
        <CharString name="daggerdbl">
          -46 -73 -21 27 -21 157 89 176 89 162 -20 26 -20 hstemhm
          203 91 hintmask 01110110
          453 158 rmoveto
          -159 131 hlineto
          45 162 vlineto
          7 80 -10 9 rlineto
          -158 hlineto
          hintmask 10111010
          1 161 -8 7 -84 -6 -1 -162 rlineto
          -156 hlineto
          -7 -80 8 -9 rlineto
          155 -53 hlineto
          -123 -156 vlineto
          -7 -80 8 -9 rlineto
          155 -153 hlineto
          9 -10 rlineto
          hintmask 01110110
          82 6 rlineto
          157 162 vlineto
          7 79 rlineto
          endchar
        </CharString>
        <CharString name="dcaron">
          22 -6 96 -69 -21 408 101 196 -20 hstemhm
          76 120.5 210.5 130 hintmask 10111100
          284 564 rmoveto
          49 52 48 49 44 40 -34 51 rcurveline
          -13 hlineto
          -41 -33 -37 -31 -30 -28 -30 28 -37 31 -42 33 rrcurveto
          -13 hlineto
          -33 -51 49 -44 48 -50 43 -47 rlinecurve
          -182 -59 rmoveto
          6 -355 rlineto
          hintmask 01111100
          -6 -150 rlineto
          hintmask 10111100
          -3 58 88 -3 45 hhcurveto
          176 97 99 179 152 -86 85 -156 hvcurveto
          -8 -419 rmoveto
          -17 -44 3 4 -30 hvcurveto
          -2 65 5 242 rlineto
          3 29 41 1 16 hhcurveto
          84 38 -46 -120 -109 -45 -43 -75 hvcurveto
          endchar
        </CharString>
        <CharString name="dcroat">
          22 -6 96 -69 -21 408 101 108 83 -9 9 hstemhm
          76 120.5 210.5 130 hintmask 10110110
          131 617 rmoveto
          280 hlineto
          hintmask 10101110
          6 74 -8 9 rlineto
          hintmask 01110110
          -280 hlineto
          -7 -74 rlineto
          -49 -121 rmoveto
          6 -355 -6 -150 rlineto
          hintmask 10110110
          -3 58 88 -3 45 hhcurveto
          176 97 99 179 152 -86 85 -156 hvcurveto
          -8 -419 rmoveto
          -17 -44 3 4 -30 hvcurveto
          -2 65 5 242 rlineto
          3 29 41 1 16 hhcurveto
          84 38 -46 -120 -109 -45 -43 -75 hvcurveto
          endchar
        </CharString>
        <CharString name="degree">
          -255 394 58 143 58 hstem
          16 58 144 58 vstem
          147 653 rmoveto
          -73 -58 -57 -73 -72 58 -57 73 72 57 57 72 73 -57 57 -72 hvcurveto
          -1 -58 rmoveto
          41 31 -31 -41 -40 -31 -31 -41 -41 -31 31 40 41 31 31 41 hvcurveto
          endchar
        </CharString>
        <CharString name="dieresis">
          553 130 hstem
          45 127 46 127 vstem
          111 683 rmoveto
          -41 -25 -26 -41 -40 22 -23 39 41 25 26 42 39 -22 23 -39 hvcurveto
          173 hmoveto
          -41 -25 -26 -41 -40 22 -23 39 41 25 26 42 39 -22 23 -39 hvcurveto
          endchar
        </CharString>
        <CharString name="dieresis.i">
          553 130 hstemhm
          55 127 26 127 hintmask 11000000
          121 683 rmoveto
          -41 -25 -26 -41 -40 22 -23 39 41 25 26 42 39 -22 23 -39 hvcurveto
          hintmask 11100000
          153 hmoveto
          -41 -25 -26 -41 -40 22 -23 39 41 25 26 42 39 -22 23 -39 hvcurveto
          endchar
        </CharString>
        <CharString name="dieresisacute">
          535 125 hstem
          46 122 52 122 vstem
          299 840 rmoveto
          -12 6 -75 -29 -71 -23 -77 -23 rlinecurve
          11 -59 12 -5 74 10 71 13 80 15 rlinecurve
          7 12 rlineto
          -209 -97 rmoveto
          -40 -24 -25 -39 -39 21 -22 38 39 24 26 39 38 -21 22 -37 hvcurveto
          174 hmoveto
          -40 -24 -25 -39 -39 21 -22 38 39 24 26 39 38 -21 22 -37 hvcurveto
          endchar
        </CharString>
        <CharString name="dieresiscaron">
          535 125 hstem
          46 122 52 122 vstem
          317 831 rmoveto
          -13 hlineto
          -37 -21 -37 -21 -36 -21 -36 21 -37 21 -37 21 rrcurveto
          -13 hlineto
          -24 -53 48 -34 45 -35 41 -35 rlinecurve
          27 hlineto
          40 35 44 35 50 34 rrcurveto
          -232 -118 rmoveto
          -40 -24 -25 -39 -39 21 -22 38 39 24 26 39 38 -21 22 -37 hvcurveto
          174 hmoveto
          -40 -24 -25 -39 -39 21 -22 38 39 24 26 39 38 -21 22 -37 hvcurveto
          endchar
        </CharString>
        <CharString name="dieresisgrave">
          535 125 hstem
          46 122 52 122 vstem
          83 840 rmoveto
          -19 -83 6 -12 80 -15 72 -13 73 -10 rlinecurve
          12 5 12 59 -78 23 -71 23 -75 29 rlinecurve
          15 -186 rmoveto
          -40 -24 -25 -39 -39 21 -22 38 39 24 26 39 38 -21 22 -37 hvcurveto
          174 hmoveto
          -40 -24 -25 -39 -39 21 -22 38 39 24 26 39 38 -21 22 -37 hvcurveto
          endchar
        </CharString>
        <CharString name="dieresismacron">
          535 125 57 85 hstem
          46 122 52 122 vstem
          343 792 rmoveto
          -9 10 rlineto
          -280 hlineto
          -7 -75 10 -10 rlineto
          279 hlineto
          -226 -57 rmoveto
          -40 -24 -25 -39 -39 21 -22 38 39 24 26 39 38 -21 22 -37 hvcurveto
          174 hmoveto
          -40 -24 -25 -39 -39 21 -22 38 39 24 26 39 38 -21 22 -37 hvcurveto
          endchar
        </CharString>
        <CharString name="divide">
          -68 30 126 59 90 64 125 hstem
          193 123 vstem
          257 494 rmoveto
          -39 -25 -25 -40 -38 21 -22 39 39 24 25 40 38 -21 22 -38 hvcurveto
          206 -198 rmoveto
          -10 9 rlineto
          -417 hlineto
          -7 -81 9 -9 rlineto
          418 hlineto
          -199 -59 rmoveto
          -39 -25 -26 -39 -39 21 -22 39 39 24 26 40 37 -21 23 -38 hvcurveto
          endchar
        </CharString>
        <CharString name="divisionslash">
          -264 -115 11 772 12 hstem
          0 306 vstem
          306 668 rmoveto
          -10 12 rlineto
          -90 hlineto
          -206 -784 8 -11 rlineto
          92 hlineto
          endchar
        </CharString>
        <CharString name="dollar">
          -98 -136 11 118 90 -69 -21 23 -21 512 -20 23 -20 143 12 hstemhm
          52 124 -15.5 88 -45.5 88 -13 124 hintmask 1001011100100000
          402 155 rmoveto
          156 -226 -15 76 vvcurveto
          23 21 23 39 vhcurveto
          hintmask 1001101101000000
          32 42 -16 -32 43 hvcurveto
          19 5 19 112 rlineto
          hintmask 1001011101000000
          -32 12 -36 8 -36 3 8 123 rcurveline
          -13 12 rlineto
          -75 hlineto
          hintmask 1001101101000000
          -8 -138 rlineto
          hintmask 1100101100100000
          -94 -17 -53 -63 -76 -158 226 16 -77 vvcurveto
          -27 -24 -22 -38 -41 -61 24 42 -46 vhcurveto
          -13 -9 -17 -118 rlineto
          hintmask 1010011010100000
          43 -17 44 -9 39 -3 -7 -118 rcurveline
          11 -11 rlineto
          76 hlineto
          hintmask 1001011010100000
          9 131 rlineto
          hintmask 1001011100100000
          103 18 46 71 71 vvcurveto
          endchar
        </CharString>
        <CharString name="dotaccent">
          -293 551 142 hstem
          58 139 vstem
          131 693 rmoveto
          -45 -28 -29 -45 -43 24 -25 43 44 28 29 45 43 -24 25 -42 hvcurveto
          endchar
        </CharString>
        <CharString name="dotbelowcomb">
          -548 -194 142 hstem
          48 139 vstem
          121 -52 rmoveto
          -45 -28 -29 -45 -43 24 -25 43 44 28 28 46 42 -24 26 -42 hvcurveto
          endchar
        </CharString>
        <CharString name="dotlessi">
          -269 21 -21 505 -20 hstem
          76 121.5 vstem
          194 162 rmoveto
          7 343 rlineto
          -128 hlineto
          6 -355 -6 -150 rlineto
          126 hlineto
          endchar
        </CharString>
</ttFont>
